<svg viewBox="0 0 12.8335 12.8334" fill="none" xmlns="http://www.w3.org/2000/svg"><path d="M7.5446 6.41669C7.5446 7.03959 7.03957 7.54462 6.41667 7.54462C5.79376 7.54462 5.28874 7.03959 5.28874 6.41669C5.28874 5.79378 5.79376 5.28876 6.41667 5.28876C7.03957 5.28876 7.5446 5.79378 7.5446 6.41669Z" fill="currentColor"/><path d="M8.32161 3.00783H4.51172C3.68242 3.00783 3.00781 3.68244 3.00781 4.51174V8.32164C3.00781 9.15094 3.68242 9.82554 4.51172 9.82554H8.32161C9.15092 9.82554 9.82552 9.15094 9.82552 8.32164V4.51174C9.82552 3.68244 9.15092 3.00783 8.32161 3.00783ZM6.41667 8.29657C5.38009 8.29657 4.53678 7.45327 4.53678 6.41669C4.53678 5.38011 5.38009 4.5368 6.41667 4.5368C7.45325 4.5368 8.29655 5.38011 8.29655 6.41669C8.29655 7.45327 7.45325 8.29657 6.41667 8.29657ZM8.57227 4.63706C8.3646 4.63706 8.19629 4.46876 8.19629 4.26109C8.19629 4.05342 8.3646 3.88511 8.57227 3.88511C8.77993 3.88511 8.94824 4.05342 8.94824 4.26109C8.94824 4.46876 8.77993 4.63706 8.57227 4.63706Z" fill="currentColor"/><path d="M9.44954 2.0504e-05H3.38379C1.51801 2.0504e-05 0 1.51803 0 3.38381V9.44956C0 11.3153 1.51801 12.8334 3.38379 12.8334H9.44954C11.3153 12.8334 12.8333 11.3153 12.8333 9.44956V3.38381C12.8333 1.51803 11.3153 2.0504e-05 9.44954 2.0504e-05ZM10.5775 8.32163C10.5775 9.56549 9.56547 10.5775 8.32161 10.5775H4.51172C3.26786 10.5775 2.25586 9.56549 2.25586 8.32163V4.51174C2.25586 3.26788 3.26786 2.25588 4.51172 2.25588H8.32161C9.56547 2.25588 10.5775 3.26788 10.5775 4.51174V8.32163Z" fill="currentColor"/></svg>