<svg viewBox="0 0 14 14" fill="none" xmlns="http://www.w3.org/2000/svg"><path d="M10.1905 0.588421H3.7993C2.02848 0.588421 0.583333 2.03357 0.583333 3.80439V10.2058C0.583333 11.9664 2.02848 13.4116 3.7993 13.4116H10.2007C11.9715 13.4116 13.4167 11.9664 13.4167 10.1956V3.80439C13.4065 2.03357 11.9613 0.588421 10.1905 0.588421ZM4.85772 10.9691H3.02584V5.67698H4.85772V10.9691ZM3.9316 4.86281C3.41257 4.86281 2.99531 4.44555 2.99531 3.92651C2.99531 3.40748 3.41257 2.99022 3.9316 2.99022C4.45063 2.99022 4.8679 3.40748 4.8679 3.92651C4.85772 4.44555 4.44046 4.86281 3.9316 4.86281ZM10.9742 10.9691H10.964H9.43742V8.40444C9.43742 7.78364 9.356 6.98982 8.5113 6.98982C7.64625 6.98982 7.50377 7.66151 7.50377 8.36373V10.9691H5.9772V5.67698H7.402V6.38937H7.4427C7.6666 5.98229 8.18563 5.6668 8.9998 5.6668C10.679 5.6668 10.9742 6.63362 10.9742 8.0686V10.9691Z" fill="currentColor"/></svg>