<svg viewBox="0 0 14 14" fill="none" xmlns="http://www.w3.org/2000/svg"><path d="M10.3347 1.77934C9.7295 1.28383 9.02191 0.928805 8.26293 0.739867C7.50395 0.550929 6.7125 0.532788 5.94566 0.686752C4.95967 0.8889 4.05256 1.37022 3.3324 2.07336C2.61224 2.77651 2.10938 3.67185 1.88373 4.65273C1.65807 5.63361 1.71913 6.65869 2.05962 7.60585C2.40012 8.55301 3.00571 9.38232 3.80424 9.99501C4.71595 10.6623 5.49221 11.4972 6.09149 12.4549L6.49983 13.1339C6.55169 13.2202 6.62498 13.2915 6.71258 13.3411C6.80018 13.3906 6.89911 13.4167 6.99975 13.4167C7.10038 13.4167 7.19931 13.3906 7.28691 13.3411C7.37451 13.2915 7.4478 13.2202 7.49966 13.1339L7.89108 12.4818C8.41294 11.5644 9.1245 10.7689 9.97825 10.1484C10.6477 9.68785 11.2009 9.078 11.5943 8.367C11.9877 7.65601 12.2105 6.86332 12.2452 6.05148C12.2798 5.23964 12.1253 4.43086 11.7938 3.68896C11.4624 2.94705 10.963 2.29232 10.3352 1.77642L10.3347 1.77934ZM6.99916 8.16743C6.53767 8.16743 6.08655 8.03058 5.70283 7.77419C5.31911 7.5178 5.02004 7.15338 4.84344 6.72702C4.66684 6.30066 4.62063 5.8315 4.71066 5.37888C4.80069 4.92626 5.02292 4.5105 5.34924 4.18417C5.67557 3.85785 6.09133 3.63562 6.54395 3.54559C6.99657 3.45556 7.46573 3.50177 7.89209 3.67837C8.31845 3.85497 8.68287 4.15404 8.93926 4.53776C9.19565 4.92147 9.3325 5.3726 9.3325 5.83409C9.3325 6.45293 9.08667 7.04642 8.64908 7.48401C8.21149 7.92159 7.618 8.16743 6.99916 8.16743Z" fill="currentColor"/></svg>