<svg viewBox="0 0 12.8334 9.91667" fill="none" xmlns="http://www.w3.org/2000/svg"><path fill-rule="evenodd" clip-rule="evenodd" d="M0 1.29348C0 0.950426 0.144866 0.621425 0.402728 0.378851C0.660591 0.136277 1.01033 0 1.375 0H11.4583C11.823 0 12.1727 0.136277 12.4306 0.378851C12.6885 0.621425 12.8333 0.950426 12.8333 1.29348V1.58839L6.76775 5.39294C6.66187 5.45288 6.54023 5.48366 6.41667 5.48176C6.29311 5.48366 6.17146 5.45288 6.06558 5.39294L0 1.58839V1.29348ZM0 2.88359V8.62319C0 8.96624 0.144866 9.29524 0.402728 9.53781C0.660591 9.78039 1.01033 9.91666 1.375 9.91666H11.4583C11.823 9.91666 12.1727 9.78039 12.4306 9.53781C12.6885 9.29524 12.8333 8.96624 12.8333 8.62319V2.88359L7.40025 6.29148L7.39567 6.29493C7.10319 6.4699 6.76327 6.56181 6.41667 6.55966C6.07292 6.55966 5.72642 6.4717 5.43767 6.29493L5.43308 6.29148L0 2.88359Z" fill="currentColor"/></svg>