<svg viewBox="0 0 14 14" fill="none" xmlns="http://www.w3.org/2000/svg"><path fill-rule="evenodd" clip-rule="evenodd" d="M6.46585 8.86391C6.8426 9.167 7.38983 9.04092 7.63765 8.62571C8.03102 7.96662 8.81856 7.65462 9.55657 7.86549L11.1942 8.33338C12.1387 8.60323 12.7474 9.51902 12.6306 10.4943L12.5735 10.9705C12.448 12.018 11.5263 12.8073 10.4861 12.6312C9.21302 12.4156 7.98825 12.0279 6.82808 11.3696C5.08504 10.3806 3.61944 8.91496 2.63041 7.17193C1.97213 6.01174 1.58437 4.78694 1.36884 3.51389C1.19273 2.4737 1.98197 1.55197 3.02947 1.42648L3.50567 1.36943C4.48097 1.25259 5.39676 1.8613 5.66661 2.80578L6.13076 4.4303C6.34383 5.17605 6.02857 5.97184 5.36258 6.36933C4.93603 6.62391 4.81304 7.18968 5.13475 7.56818C5.53633 8.04067 5.9827 8.47524 6.46585 8.86391Z" fill="currentColor"/></svg>