<svg viewBox="0 0 12.8335 12.8334" fill="none" xmlns="http://www.w3.org/2000/svg"><path d="M5.59161 5.15371V7.4963L7.75087 6.33519L5.59161 5.15371Z" fill="currentColor"/><path d="M9.61481 2.0504e-05H3.20833C1.4463 2.0504e-05 0 1.44632 0 3.21854V9.62502C0 11.3871 1.4463 12.8334 3.20833 12.8334H9.61481C11.387 12.8334 12.8333 11.3871 12.8333 9.61484V3.21854C12.8333 1.44632 11.387 2.0504e-05 9.61481 2.0504e-05ZM10.3889 6.73243C10.3889 7.40465 10.3278 8.08706 10.3278 8.08706C10.3278 8.08706 10.2565 8.65743 10.0222 8.91206C9.71667 9.24817 9.38056 9.24817 9.22778 9.26854C8.10741 9.35002 6.42685 9.36021 6.42685 9.36021C6.42685 9.36021 4.33889 9.32965 3.69722 9.26854C3.52407 9.23798 3.11667 9.24817 2.81111 8.91206C2.56667 8.65743 2.50556 8.08706 2.50556 8.08706C2.50556 8.08706 2.44444 7.40465 2.44444 6.73243V6.10095C2.44444 5.42872 2.50556 4.74632 2.50556 4.74632C2.50556 4.74632 2.57685 4.17595 2.81111 3.92132C3.11667 3.58521 3.45278 3.57502 3.60556 3.55465C4.73611 3.47317 6.41667 3.46298 6.41667 3.46298C6.41667 3.46298 8.09722 3.47317 9.21759 3.55465C9.37037 3.57502 9.71667 3.58521 10.0222 3.91113C10.2667 4.16576 10.3278 4.74632 10.3278 4.74632C10.3278 4.74632 10.3889 5.42872 10.3889 6.10095V6.73243Z" fill="currentColor"/></svg>