<svg viewBox="0 0 24 24" fill="none" stroke-width="1.5" xmlns="http://www.w3.org/2000/svg"><path d="M16.5039 9.59989C17.0549 9.60015 17.5031 10.1303 17.3999 10.6799C16.8373 13.1696 14.5604 14.9891 12.0081 14.9891C9.45574 14.9891 7.17901 13.1695 6.61632 10.6799C6.50622 10.1257 6.96399 9.58925 7.52029 9.59989H16.5039Z" stroke="currentColor" stroke-linecap="square"/><path d="M18 21L15.3841 13.8641" stroke="currentColor"/><path d="M6 21L8.6159 13.8641" stroke="currentColor"/><path d="M17.1185 18.6H6.87891" stroke="currentColor"/><path d="M7.93637 3L7.44039 3.65599C7.24236 3.91574 7.15184 4.24172 7.18758 4.56638C7.22332 4.89105 7.38259 5.18953 7.63238 5.39998C7.77137 5.51548 7.88432 5.6591 7.96381 5.82139C8.0433 5.98369 8.08752 6.16098 8.09357 6.3416C8.09961 6.52221 8.06735 6.70207 7.99889 6.86931C7.93042 7.03657 7.82733 7.18742 7.69638 7.31196" stroke="currentColor" stroke-linecap="square"/><path d="M12.4471 3L11.9512 3.65599C11.7532 3.91574 11.6626 4.24172 11.6984 4.56638C11.7341 4.89105 11.8934 5.18953 12.1432 5.39998C12.28 5.51689 12.3909 5.66103 12.469 5.82319C12.5471 5.98535 12.5904 6.16199 12.5965 6.34186C12.6025 6.52173 12.571 6.70088 12.5039 6.8679C12.4369 7.03492 12.3359 7.18615 12.2072 7.31196" stroke="currentColor" stroke-linecap="square"/><path d="M16.6481 3L16.1521 3.65599C15.9541 3.91574 15.8636 4.24172 15.8994 4.56638C15.9351 4.89105 16.0944 5.18953 16.3441 5.39998C16.4809 5.51689 16.5919 5.66103 16.67 5.82319C16.748 5.98535 16.7914 6.16199 16.7975 6.34186C16.8035 6.52173 16.772 6.70088 16.7049 6.8679C16.6379 7.03492 16.5368 7.18615 16.4081 7.31196" stroke="currentColor" stroke-linecap="square"/></svg>