<svg viewBox="0 0 24 24" fill="none" stroke-width="1.5" xmlns="http://www.w3.org/2000/svg"><path d="M15 11C14.9999 10.4459 14.8463 9.90269 14.5563 9.43055C14.2663 8.95842 13.8512 8.57582 13.357 8.32518C12.8629 8.07454 12.309 7.96566 11.7567 8.01059C11.2044 8.05553 10.6754 8.25253 10.2283 8.57976C9.78114 8.90699 9.43336 9.35166 9.2235 9.86447C9.01364 10.3773 8.9499 10.9382 9.03935 11.485C9.1288 12.0318 9.36793 12.5432 9.73025 12.9624C10.0926 13.3816 10.5639 13.6923 11.092 13.86" stroke="currentColor" stroke-linecap="round" stroke-linejoin="round"/><path d="M11.059 21.25C10.8853 21.1572 10.7262 21.0393 10.587 20.9L6.343 16.657C5.42543 15.7393 4.74487 14.6122 4.36003 13.3729C3.97519 12.1335 3.89762 10.8192 4.13401 9.54318C4.3704 8.26717 4.91366 7.06783 5.71692 6.0486C6.52018 5.02937 7.55933 4.22084 8.74475 3.69277C9.93016 3.16469 11.2262 2.93292 12.5212 3.01744C13.8162 3.10196 15.0711 3.50023 16.1778 4.17791C17.2845 4.85559 18.2098 5.79232 18.8738 6.90732C19.5377 8.02232 19.9205 9.2821 19.989 10.578" stroke="currentColor" stroke-linecap="round" stroke-linejoin="round"/><path d="M15.628 21.955L17.8 20.817L19.972 21.955C20.0364 21.9892 20.1092 22.0046 20.1819 21.9995C20.2547 21.9944 20.3245 21.969 20.3836 21.9262C20.4426 21.8834 20.4885 21.8249 20.516 21.7573C20.5434 21.6898 20.5514 21.6159 20.539 21.544L20.125 19.134L21.882 17.427C21.9341 17.3761 21.9709 17.3117 21.9882 17.241C22.0056 17.1704 22.0028 17.0962 21.9802 17.027C21.9577 16.9579 21.9162 16.8964 21.8605 16.8495C21.8047 16.8027 21.737 16.7724 21.665 16.762L19.237 16.41L18.151 14.217C18.1185 14.1517 18.0685 14.0967 18.0065 14.0583C17.9444 14.0199 17.8729 13.9995 17.8 13.9995C17.7271 13.9995 17.6556 14.0199 17.5935 14.0583C17.5315 14.0967 17.4815 14.1517 17.449 14.217L16.363 16.41L13.935 16.762C13.8627 16.772 13.7948 16.8021 13.7388 16.8489C13.6829 16.8957 13.6412 16.9573 13.6186 17.0266C13.5959 17.096 13.5933 17.1703 13.6108 17.2411C13.6284 17.3119 13.6656 17.3763 13.718 17.427L15.475 19.134L15.06 21.545C15.0485 21.6167 15.0571 21.6903 15.0849 21.7574C15.1127 21.8245 15.1587 21.8826 15.2176 21.9251C15.2765 21.9677 15.3461 21.993 15.4186 21.9982C15.491 22.0035 15.5635 21.9885 15.628 21.955Z" stroke="currentColor" stroke-linecap="round" stroke-linejoin="round"/></svg>