<svg viewBox="0 0 24 24" fill="none" stroke-width="1.5" xmlns="http://www.w3.org/2000/svg"><path d="M5.00004 19.5C7.2092 19.5 9.00008 17.6474 9.00008 15.3621C9.00008 13.0768 7.2092 11.2242 5.00004 11.2242C2.79088 11.2242 1 13.0768 1 15.3621C1 17.6474 2.79088 19.5 5.00004 19.5Z" stroke="currentColor" stroke-linecap="round" stroke-linejoin="round"/><path d="M8.5 7.60342H14.5001M14.5001 7.60342H15.0001L19.0001 15.362M14.5001 7.60342L16.5001 4.5M16.5001 4.5H14.0001M16.5001 4.5H18.5001" stroke="currentColor" stroke-linecap="round" stroke-linejoin="round"/><path d="M5 15.3617L8.50003 7.60317L12.0001 14.3273H15.0001" stroke="currentColor" stroke-linecap="round" stroke-linejoin="round"/><path d="M8.50003 7.60342C8.1667 6.56895 7.00002 4.5 5 4.5" stroke="currentColor" stroke-linecap="round" stroke-linejoin="round"/><path d="M19 19.5C21.2092 19.5 23.0001 17.6474 23.0001 15.3621C23.0001 13.0768 21.2092 11.2242 19 11.2242C16.7909 11.2242 15 13.0768 15 15.3621C15 17.6474 16.7909 19.5 19 19.5Z" stroke="currentColor" stroke-linecap="round" stroke-linejoin="round"/></svg>