<svg viewBox="0 0 24 24" fill="none" stroke-width="1.5" xmlns="http://www.w3.org/2000/svg"><path d="M8.99985 12C8.99985 12.7957 9.31592 13.5587 9.87853 14.1213C10.4411 14.6839 11.2042 15 11.9999 15C12.7955 15 13.5586 14.6839 14.1212 14.1213C14.6838 13.5587 14.9999 12.7957 14.9999 12C14.9999 11.2044 14.6838 10.4413 14.1212 9.8787C13.5586 9.31609 12.7955 9.00002 11.9999 9.00002C11.2042 9.00002 10.4411 9.31609 9.87853 9.8787C9.31592 10.4413 8.99985 11.2044 8.99985 12Z" stroke="currentColor" stroke-linecap="round" stroke-linejoin="round"/><path d="M12 16.5C12 17.39 11.7361 18.26 11.2416 19.0001C10.7471 19.7401 10.0443 20.3169 9.22208 20.6575C8.39981 20.9981 7.49501 21.0872 6.62209 20.9135C5.74918 20.7399 4.94736 20.3113 4.31802 19.682C3.68868 19.0526 3.2601 18.2508 3.08647 17.3779C2.91283 16.505 3.00195 15.6002 3.34254 14.7779C3.68314 13.9557 4.25991 13.2529 4.99994 12.7584C5.73996 12.2639 6.60999 12 7.5 12C6.60999 12 5.73996 11.7361 4.99994 11.2416C4.25991 10.7472 3.68314 10.0443 3.34254 9.22208C3.00195 8.39981 2.91283 7.49501 3.08647 6.6221C3.2601 5.74919 3.68868 4.94736 4.31802 4.31803C4.94736 3.68869 5.74918 3.26011 6.62209 3.08647C7.49501 2.91284 8.39981 3.00196 9.22208 3.34255C10.0443 3.68314 10.7471 4.25992 11.2416 4.99994C11.7361 5.73996 12 6.60999 12 7.50001C12 6.60999 12.2639 5.73996 12.7584 4.99994C13.2529 4.25992 13.9557 3.68314 14.7779 3.34255C15.6002 3.00196 16.505 2.91284 17.3779 3.08647C18.2508 3.26011 19.0526 3.68869 19.682 4.31803C20.3113 4.94736 20.7399 5.74919 20.9135 6.6221C21.0872 7.49501 20.998 8.39981 20.6575 9.22208C20.3169 10.0443 19.7401 10.7472 19.0001 11.2416C18.26 11.7361 17.39 12 16.5 12C17.39 12 18.26 12.2639 19.0001 12.7584C19.7401 13.2529 20.3169 13.9557 20.6575 14.7779C20.998 15.6002 21.0872 16.505 20.9135 17.3779C20.7399 18.2508 20.3113 19.0526 19.682 19.682C19.0526 20.3113 18.2508 20.7399 17.3779 20.9135C16.505 21.0872 15.6002 20.9981 14.7779 20.6575C13.9557 20.3169 13.2529 19.7401 12.7584 19.0001C12.2639 18.26 12 17.39 12 16.5Z" stroke="currentColor" stroke-linecap="round" stroke-linejoin="round"/><path d="M12 7.49997V8.99997" stroke="currentColor" stroke-linecap="round" stroke-linejoin="round"/><path d="M7.5 12H9" stroke="currentColor" stroke-linecap="round" stroke-linejoin="round"/><path d="M16.4999 12H14.9999" stroke="currentColor" stroke-linecap="round" stroke-linejoin="round"/><path d="M12 16.5V15" stroke="currentColor" stroke-linecap="round" stroke-linejoin="round"/><path d="M7.99988 7.99985L9.87988 9.87985" stroke="currentColor" stroke-linecap="round" stroke-linejoin="round"/><path d="M14.1197 9.87985L15.9997 7.99985" stroke="currentColor" stroke-linecap="round" stroke-linejoin="round"/><path d="M7.99988 16L9.87988 14.12" stroke="currentColor" stroke-linecap="round" stroke-linejoin="round"/><path d="M14.1197 14.12L15.9997 16" stroke="currentColor" stroke-linecap="round" stroke-linejoin="round"/></svg>