<svg viewBox="0 0 24 24" fill="none" stroke-width="1.5" xmlns="http://www.w3.org/2000/svg"><path d="M9.12936 12.0436H9.13943" stroke="currentColor" stroke-linecap="round" stroke-linejoin="round"/><path d="M14.8709 12.0436H14.8809" stroke="currentColor" stroke-linecap="round" stroke-linejoin="round"/><path d="M10.0863 16.0631C10.5648 16.3646 11.2346 16.5655 12.0001 16.5655C12.7655 16.5655 13.4354 16.3646 13.9138 16.0631" stroke="currentColor" stroke-linecap="round" stroke-linejoin="round"/><path d="M18.6981 6.31599C19.565 7.45716 20.1559 8.80175 20.4204 10.2349C20.744 10.3994 21.0169 10.6564 21.2078 10.9763C21.3987 11.2962 21.5 11.6661 21.5 12.0436C21.5 12.4211 21.3987 12.791 21.2078 13.1109C21.0169 13.4308 20.744 13.6878 20.4204 13.8523C20.0074 15.8756 18.9461 17.6889 17.4137 18.9896C15.8813 20.2904 13.9704 21 12 21C10.0296 21 8.11874 20.2904 6.58634 18.9896C5.05393 17.6889 3.99265 15.8756 3.57956 13.8523C3.256 13.6878 2.98313 13.4308 2.7922 13.1109C2.60127 12.791 2.5 12.4211 2.5 12.0436C2.5 11.6661 2.60127 11.2962 2.7922 10.9763C2.98313 10.6564 3.256 10.3994 3.57956 10.2349C3.97596 8.19556 5.03007 6.36223 6.56406 5.04422C8.09804 3.72621 10.018 3.0042 12 3C13.9137 3 15.349 4.10533 15.349 5.51211C15.349 6.9189 14.4879 8.02423 13.4353 8.02423C12.6698 8.02423 12 7.62229 12 7.01938" stroke="currentColor" stroke-linecap="round" stroke-linejoin="round"/></svg>