<svg viewBox="0 0 24 24" fill="none" stroke-width="1.5" xmlns="http://www.w3.org/2000/svg"><path d="M4.5 6C4.5 5.60218 4.65804 5.22064 4.93934 4.93934C5.22064 4.65804 5.60218 4.5 6 4.5H18C18.3978 4.5 18.7794 4.65804 19.0607 4.93934C19.342 5.22064 19.5 5.60218 19.5 6V18C19.5 18.3978 19.342 18.7794 19.0607 19.0607C18.7794 19.342 18.3978 19.5 18 19.5H6C5.60218 19.5 5.22064 19.342 4.93934 19.0607C4.65804 18.7794 4.5 18.3978 4.5 18V6Z" stroke="currentColor" stroke-linecap="round" stroke-linejoin="round"/><path d="M9.5 16.5V7.5H13.25C14.4926 7.5 15.5 8.50736 15.5 9.75C15.5 10.9926 14.4926 12 13.25 12H9.5" stroke="currentColor" stroke-linecap="round" stroke-linejoin="round"/></svg>
