<svg viewBox="0 0 24 24" fill="none" xmlns="http://www.w3.org/2000/svg"><path d="M18.4363 8.2043C19.6011 7.03939 20.4789 5.61922 20.9998 4.05636L19.9436 3.00007C18.3807 3.52106 16.9605 4.39877 15.7956 5.56365L9.25875 12.1006C8.09491 13.2644 7.21799 14.6832 6.69752 16.2447L6.69678 16.2469L7.75302 17.3031C9.31596 16.7821 10.7361 15.9044 11.901 14.7395L18.4363 8.2043Z" stroke="currentColor" stroke-miterlimit="10" stroke-linecap="round" stroke-linejoin="round"/><path d="M7.75392 17.303L7.75317 17.3032" stroke="currentColor" stroke-miterlimit="10" stroke-linecap="round" stroke-linejoin="round"/><path d="M7.75317 17.3031L9.33754 21L10.6579 19.6797V15.7994" stroke="currentColor" stroke-miterlimit="10" stroke-linecap="round" stroke-linejoin="round"/><path d="M8.20031 13.3423H4.32031L3 14.6625L6.69686 16.2469" stroke="currentColor" stroke-miterlimit="10" stroke-linecap="round" stroke-linejoin="round"/><path d="M6.69678 16.2469L6.69779 16.2439" stroke="currentColor" stroke-miterlimit="10" stroke-linecap="round" stroke-linejoin="round"/><path d="M17.5982 9.04248L20.211 16.8808C20.3899 17.4175 20.2502 18.0093 19.8501 18.4094L19.1826 19.0769L14.4294 12.2113" stroke="currentColor" stroke-miterlimit="10" stroke-linecap="round" stroke-linejoin="round"/><path d="M14.9578 6.40178L7.11949 3.78902C6.5827 3.61007 5.99094 3.74977 5.59083 4.14988L4.92334 4.81737L11.789 9.57056" stroke="currentColor" stroke-miterlimit="10" stroke-linecap="round" stroke-linejoin="round"/><path d="M19.3569 14.3184L20.6719 13.0034C21.1094 12.5659 21.1094 11.8565 20.6719 11.419C20.2343 10.9815 19.525 10.9815 19.0875 11.419L18.5647 11.9418L19.3569 14.3184Z" stroke="currentColor" stroke-miterlimit="10" stroke-linecap="round" stroke-linejoin="round"/><path d="M12.0582 5.43542L12.581 4.91264C13.0185 4.47512 13.0185 3.7658 12.581 3.32827C12.1435 2.89074 11.4341 2.89074 10.9966 3.32827L9.68164 4.64324L12.0582 5.43542Z" stroke="currentColor" stroke-miterlimit="10" stroke-linecap="round" stroke-linejoin="round"/></svg>