<svg viewBox="0 0 24 24" fill="none" xmlns="http://www.w3.org/2000/svg"><path d="M4 12H20C20.2652 12 20.5196 12.1054 20.7071 12.2929C20.8946 12.4804 21 12.7348 21 13V16C21 17.0609 20.5786 18.0784 19.8284 18.8285C19.0783 19.5787 18.0609 20.0001 17 20.0001H7C5.93913 20.0001 4.92172 19.5787 4.17157 18.8285C3.42143 18.0784 3 17.0609 3 16V13C3 12.7348 3.10536 12.4804 3.29289 12.2929C3.48043 12.1054 3.73478 12 4 12Z" stroke="currentColor" stroke-linecap="round" stroke-linejoin="round"/><path d="M6.00024 12.0001V5.00002C6.00024 4.46958 6.21096 3.96087 6.58603 3.58579C6.9611 3.21072 7.46981 3 8.00024 3H11.0002V5.25003" stroke="currentColor" stroke-linecap="round" stroke-linejoin="round"/><path d="M4 21L5 19.5" stroke="currentColor" stroke-linecap="round" stroke-linejoin="round"/><path d="M19.9998 21L18.9998 19.5" stroke="currentColor" stroke-linecap="round" stroke-linejoin="round"/></svg>