<svg viewBox="0 0 24 24" fill="none" xmlns="http://www.w3.org/2000/svg"><path d="M3.81914 11.8743H20.181C20.6634 11.8743 21.1261 12.0976 21.4672 12.4951C21.8084 12.8926 22 13.4317 22 13.9938V18.2329H2.0001V14.016C1.99758 13.7358 2.04277 13.4578 2.13306 13.1981C2.22335 12.9383 2.35694 12.7021 2.5261 12.5029C2.69527 12.3037 2.89665 12.1456 3.11859 12.0377C3.34054 11.9298 3.57865 11.8743 3.81914 11.8743Z" stroke="currentColor" stroke-miterlimit="10" stroke-linecap="round"/><path d="M4.72382 3.42859H19.2761C19.515 3.42859 19.7516 3.48341 19.9722 3.58993C20.1929 3.69645 20.3935 3.85257 20.5624 4.04939C20.7313 4.24621 20.8653 4.47986 20.9567 4.73702C21.0481 4.99417 21.0952 5.26979 21.0952 5.54813V11.8735H2.90479V5.54813C2.90479 4.98599 3.09643 4.44688 3.43757 4.04939C3.77871 3.6519 4.24138 3.42859 4.72382 3.42859Z" stroke="currentColor" stroke-miterlimit="10" stroke-linecap="round"/><path d="M7.45722 7.65613H10.181C10.6635 7.65613 11.1261 7.87944 11.4673 8.27693C11.8084 8.67442 12.0001 9.21353 12.0001 9.77567V11.873H5.63818V9.77567C5.63818 9.21353 5.82983 8.67442 6.17097 8.27693C6.5121 7.87944 6.97478 7.65613 7.45722 7.65613Z" stroke="currentColor" stroke-miterlimit="10" stroke-linecap="round"/><path d="M13.819 7.65613H16.5428C17.0253 7.65613 17.488 7.87944 17.8291 8.27693C18.1702 8.67442 18.3619 9.21353 18.3619 9.77567V11.873H12V9.77567C12 9.21353 12.1916 8.67442 12.5328 8.27693C12.8739 7.87944 13.3366 7.65613 13.819 7.65613Z" stroke="currentColor" stroke-miterlimit="10" stroke-linecap="round"/><path d="M2.90479 21.4286V18.2549" stroke="currentColor" stroke-miterlimit="10" stroke-linecap="round"/><path d="M21.0952 21.4286V18.2549" stroke="currentColor" stroke-miterlimit="10" stroke-linecap="round"/></svg>