<svg viewBox="0 0 22 20" fill="none" xmlns="http://www.w3.org/2000/svg"><path fill-rule="evenodd" clip-rule="evenodd" d="M2.90011 8.96901H1.63658C1.63658 8.96901 0.818409 9.0089 0.410124 8.28461C0.100023 7.73446 -0.0425457 7.28609 0.0110603 6.43421C0.468292 7.06712 1.51623 6.98494 1.51623 6.98494H2.90285C2.90155 6.61465 2.89897 6.23068 2.8948 5.84065C2.87906 4.37873 2.97542 2.80351 2.66816 1.62035C2.49844 0.966826 2.26835 0.419756 1.96033 0.049636C2.10759 0.000234804 5.35553 -0.016458 7.03172 0.0187222C9.64502 0.0735409 14.8323 -0.268983 17.5483 3.95375C18.1199 4.8425 18.4783 5.95215 18.7031 6.98497H20.3524C20.3524 6.98497 21.1706 6.94509 21.5789 7.66938C21.889 8.21953 22.0316 8.6679 21.978 9.51974C21.5207 8.88683 20.4728 8.96901 20.4728 8.96901H19.0086C19.0455 9.35098 19.0635 9.66212 19.0722 9.86636V10.1336C19.0637 10.3329 19.0463 10.6341 19.0113 11.0035H20.3634C20.3634 11.0035 21.1816 10.9636 21.5899 11.6879C21.9 12.2381 22.0425 12.6865 21.9889 13.5383C21.5317 12.9054 20.4838 12.9876 20.4838 12.9876H18.709C18.4847 14.0282 18.125 15.1496 17.5483 16.0462C14.8323 20.269 9.64506 19.9264 7.03175 19.9813C5.3556 20.0165 2.10763 19.9997 1.96033 19.9503C2.26838 19.5802 2.49844 19.0332 2.66816 18.3796C2.97542 17.1964 2.87906 15.6212 2.8948 14.1593C2.8991 13.7597 2.90168 13.3664 2.90295 12.9876H1.64756C1.64756 12.9876 0.829391 13.0275 0.421106 12.3032C0.110973 11.753 -0.0315638 11.3047 0.0220422 10.4528C0.479274 11.0857 1.52721 11.0035 1.52721 11.0035H2.90038C2.89969 10.4635 2.89956 9.42906 2.90015 8.96901H2.90011ZM15.5405 6.98497C15.2126 5.23185 14.4412 3.18338 12.6682 1.99199C10.3543 0.437024 5.7385 1.05933 5.7385 1.05933L5.7484 6.98494H12.0533H15.5405V6.98497ZM15.7621 11.0036C15.7745 10.6816 15.7741 10.4094 15.7697 10.2054V9.79468C15.7742 9.58482 15.7745 9.30304 15.7611 8.96905H9.93573H5.75169L5.75342 10L5.75176 11.0036H12.0642H15.7622H15.7621ZM5.74844 12.9876L5.7385 18.9407C5.7385 18.9407 10.3543 19.563 12.6683 18.008C14.4504 16.8104 15.2206 14.7468 15.5456 12.9876H9.94675H5.74847H5.74844Z" fill="currentColor"/></svg>
