<svg viewBox="0 0 36 36" fill="none" stroke-width="1.5" xmlns="http://www.w3.org/2000/svg"><path d="M14.3006 12H18.6642C19.6286 12 20.5536 12.3951 21.2355 13.0983C21.9175 13.8016 22.3006 14.7554 22.3006 15.75V20.25C22.3006 21.2446 21.9175 22.1984 21.2355 22.9017C20.5536 23.6049 19.6286 24 18.6642 24H14.3006V12Z" stroke="currentColor" stroke-width="1.5" stroke-linecap="round" stroke-linejoin="round"/><path d="M13.4998 16.2C15.0998 15.4 16.6998 15.4 18.2998 16.2C19.8998 17 21.4998 17 23.0998 16.2" stroke="currentColor" stroke-width="1.5" stroke-linecap="round" stroke-linejoin="round"/><path d="M13.4998 19.8C15.0998 19 16.6998 19 18.2998 19.8C19.8998 20.6 21.4998 20.6 23.0998 19.8" stroke="currentColor" stroke-width="1.5" stroke-linecap="round" stroke-linejoin="round"/><path d="M4.14181 23.7403C3.38799 21.9204 3 19.9698 3 18C3 16.0302 3.38799 14.0796 4.14181 12.2597C4.89563 10.4399 6.00052 8.78628 7.3934 7.3934C8.78628 6.00052 10.4399 4.89563 12.2597 4.14181C14.0796 3.38799 16.0302 3 18 3C19.9698 3 21.9204 3.38799 23.7403 4.14181C25.5601 4.89563 27.2137 6.00052 28.6066 7.3934C29.9995 8.78628 31.1044 10.4399 31.8582 12.2597C32.612 14.0796 33 16.0302 33 18C33 19.9698 32.612 21.9204 31.8582 23.7403C31.1044 25.5601 29.9995 27.2137 28.6066 28.6066C27.2137 29.9995 25.5601 31.1044 23.7403 31.8582C21.9204 32.612 19.9698 33 18 33C16.0302 33 14.0796 32.612 12.2597 31.8582C10.4399 31.1044 8.78628 29.9995 7.3934 28.6066C6.00052 27.2137 4.89563 25.5601 4.14181 23.7403Z" stroke="currentColor" stroke-width="1.5" stroke-linecap="round" stroke-linejoin="round"/></svg>
