<svg viewBox="0 0 14 22" fill="none" xmlns="http://www.w3.org/2000/svg">
<path d="M0 13.5781V14.8672C0 16.9997 1.88398 18.7344 4.2 18.7344H5.6V22H8.4V18.7344H9.45546C11.9615 18.7344 14 16.8574 14 14.5499C14 12.6258 12.5843 10.9566 10.5574 10.4902L8.4 9.99346V5.84375H9.8C10.5718 5.84375 11.2 6.4222 11.2 7.13281V8.42188H14V7.13281C14 5.00032 12.116 3.26562 9.8 3.26562H8.4V0H5.6V3.26562H4.54454C2.03849 3.26562 0 5.14259 0 7.45005C0 9.37419 1.41573 11.0434 3.4426 11.5098L5.6 12.0065V16.1562H4.2C3.42823 16.1562 2.8 15.5778 2.8 14.8672V13.5781H0ZM8.4 12.6512L9.87793 12.9915C10.6566 13.1702 11.2 13.811 11.2 14.5499C11.2 15.4355 10.4173 16.1562 9.45546 16.1562H8.4V12.6512ZM4.12207 9.00848C3.34343 8.82973 2.8 8.18898 2.8 7.45001C2.8 6.56442 3.58269 5.84371 4.54454 5.84371H5.6V9.34875L4.12207 9.00848Z" fill="currentColor"/>
</svg>
