<svg viewBox="0 0 28 28" fill="none" xmlns="http://www.w3.org/2000/svg"><path d="M2.33322 19.0855V7.11966C2.33322 4.47623 4.47612 2.33333 7.11955 2.33333H21.4785C24.122 2.33333 26.2649 4.47623 26.2649 7.11966V19.0855" stroke="currentColor" stroke-width="1.5" stroke-miterlimit="10" stroke-linecap="round" stroke-linejoin="round"/><path d="M2.33333 8.91452V20.8803C2.33333 23.5238 4.47623 25.6667 7.11966 25.6667H21.4786C24.1221 25.6667 26.265 23.5238 26.265 20.8803V8.91452" stroke="currentColor" stroke-width="1.5" stroke-miterlimit="10" stroke-linecap="round" stroke-linejoin="round"/><path d="M9.51297 18.4872C10.6428 16.9806 12.4161 16.094 14.2993 16.094C16.1825 16.094 17.9557 16.9806 19.0856 18.4872" stroke="currentColor" stroke-width="1.5" stroke-miterlimit="10" stroke-linecap="round" stroke-linejoin="round"/><path d="M7.11944 8.91453L10.7092 12.5043" stroke="currentColor" stroke-width="1.5" stroke-miterlimit="10" stroke-linecap="round" stroke-linejoin="round"/><path d="M10.7092 8.91453L7.11944 12.5043" stroke="currentColor" stroke-width="1.5" stroke-miterlimit="10" stroke-linecap="round" stroke-linejoin="round"/><path d="M21.4786 8.91453L17.8889 12.5043" stroke="currentColor" stroke-width="1.5" stroke-miterlimit="10" stroke-linecap="round" stroke-linejoin="round"/><path d="M17.8889 8.91453L21.4786 12.5043" stroke="currentColor" stroke-width="1.5" stroke-miterlimit="10" stroke-linecap="round" stroke-linejoin="round"/></svg>
