<svg viewBox="0 0 20 20" fill="none" xmlns="http://www.w3.org/2000/svg">
<path d="M13.3333 17.2222C10.55 17.2222 8.13333 15.6445 6.92776 13.3333H13.3333V11.1111H6.20557C6.15 10.75 6.11115 10.3778 6.11115 10C6.11115 9.62224 6.15005 9.25 6.20557 8.88891H13.3333V6.66667H6.92776C8.13333 4.35557 10.5444 2.77776 13.3333 2.77776C15.1278 2.77776 16.7667 3.43333 18.0278 4.51667L20 2.55557C18.2333 0.97224 15.8944 0 13.3333 0C8.98333 0 5.28891 2.78333 3.91667 6.66667H0V8.88891H3.4C3.35557 9.25557 3.33333 9.62224 3.33333 10C3.33333 10.3778 3.35557 10.7444 3.4 11.1111H0V13.3333H3.91667C5.28891 17.2167 8.98333 20 13.3333 20C15.8944 20 18.2333 19.0278 20 17.4444L18.0278 15.4778C16.7667 16.5611 15.1278 17.2222 13.3333 17.2222Z" fill="currentColor"/>
</svg>
