<svg viewBox="0 0 24 24" fill="none" xmlns="http://www.w3.org/2000/svg"><path d="M4.92855 14.2207L2.47902 15.1908C1.58574 15.5445 1 16.4011 1 17.3538V22H12V17.3538C12 16.4011 11.4143 15.5445 10.5209 15.1908L8.0714 14.2207" stroke="currentColor" stroke-miterlimit="10" stroke-linejoin="round"/><path d="M4.92871 12.6997V14.2206C4.92871 15.0799 5.63225 15.7765 6.50016 15.7765C7.36802 15.7765 8.07156 15.0799 8.07156 14.2206V12.6997" stroke="currentColor" stroke-miterlimit="10" stroke-linejoin="round"/><path d="M3.35734 6.89349C2.48948 6.89349 1.78589 7.59007 1.78589 8.44933V8.45019C1.78589 9.309 2.48943 10.0052 3.35688 10.0052H3.35734V10.0054C3.35747 11.7239 4.76452 13.1169 6.50019 13.1169H6.50151C8.2365 13.1169 9.64308 11.724 9.64308 10.0061V10.0052H9.64482C10.512 10.0043 11.2145 9.30796 11.2145 8.44933C11.2145 7.59007 10.5109 6.89349 9.64308 6.89349" stroke="currentColor" stroke-miterlimit="10" stroke-linejoin="round"/><path d="M10.5362 7.21704V5.99625C10.5362 3.78916 8.7291 1.99995 6.49989 1.99995C4.27073 1.99995 2.46362 3.78916 2.46362 5.99625V7.21704" stroke="currentColor" stroke-miterlimit="10" stroke-linejoin="round"/><path d="M16.3853 15.5392L15.9286 17.3315L13.479 18.3016C12.5858 18.6554 12 19.512 12 20.4646V21.9999H23V20.4646C23 19.512 22.4142 18.6554 21.521 18.3016L19.0714 17.3315L18.6147 15.5392" stroke="currentColor" stroke-miterlimit="10" stroke-linejoin="round"/><path d="M20.1453 9.73309H20.643C21.5109 9.73309 22.2145 10.4297 22.2145 11.2889C22.2145 12.1482 21.5109 12.8448 20.643 12.8448C20.643 14.5634 19.2359 15.9565 17.5002 15.9565C15.7645 15.9565 14.3573 14.5634 14.3573 12.8448C13.4895 12.8448 12.7859 12.1482 12.7859 11.2889C12.7859 10.4297 13.4895 9.73309 14.3573 9.73309H17.0126C18.0123 9.73309 18.8227 8.93072 18.8227 7.9409V8.41961C18.8227 9.14344 19.4142 9.73088 20.1453 9.73309Z" stroke="currentColor" stroke-miterlimit="10" stroke-linejoin="round"/><path d="M21.5362 10.0566V8.83585C21.5362 6.62871 19.7291 4.83951 17.4999 4.83951C15.2707 4.83951 13.4636 6.62871 13.4636 8.83585V10.0566" stroke="currentColor" stroke-miterlimit="10" stroke-linejoin="round"/><path d="M15.9287 5.10071V3.78461C15.9287 2.92534 16.6323 2.22872 17.5002 2.22872C18.368 2.22872 19.0716 2.92534 19.0716 3.78461V5.10071" stroke="currentColor" stroke-miterlimit="10" stroke-linejoin="round"/><path d="M15.9287 17.3316L15.9337 17.3462C16.4433 18.8368 18.5762 18.8269 19.0716 17.3316" stroke="currentColor" stroke-miterlimit="10" stroke-linejoin="round"/><path d="M4.19235 6.87001L4.19005 6.37077C4.24988 6.37077 4.30927 6.38146 4.36542 6.40233L4.19235 6.87001ZM2.73187 6.87003L2.72957 6.37079L4.19005 6.37077L4.19235 6.87001L4.19465 7.36925L2.73417 7.36927L2.73187 6.87003ZM4.19235 6.87001L4.36542 6.40233C5.9307 6.98423 6.94323 6.6538 7.57877 5.9942C8.25518 5.29217 8.60386 4.11577 8.57835 2.84889L9.079 2.84116L9.57966 2.83342C9.60827 4.25383 9.22655 5.72864 8.30257 6.68761C7.33771 7.689 5.87985 8.02936 4.01928 7.33769L4.19235 6.87001Z" fill="currentColor"/></svg>