<svg viewBox="0 0 36 36" fill="none" stroke-width="1.5" xmlns="http://www.w3.org/2000/svg"><path d="M22.8052 15.483H18.229V20.0592" stroke="var(--stroke-0, currentColor)" stroke-width="1.5" stroke-miterlimit="10" stroke-linecap="round" stroke-linejoin="round"/><path d="M4.49992 15.483H9.07609V20.0592C11.6034 20.0592 13.6522 18.0105 13.6522 15.483H18.2284V4.49997" stroke="var(--stroke-0, currentColor)" stroke-width="1.5" stroke-miterlimit="10" stroke-linecap="round" stroke-linejoin="round"/><path d="M18 26.9238V31.5" stroke="var(--stroke-0, currentColor)" stroke-width="1.5" stroke-miterlimit="10" stroke-linecap="round" stroke-linejoin="round"/><path d="M22.5764 31.5H28.0678C29.9633 31.5 31.4999 29.9634 31.4999 28.0678V24.6356C28.9726 24.6356 26.9238 22.5868 26.9238 20.0594H31.4999V7.93234C31.4999 6.0368 29.9633 4.50015 28.0678 4.50015H7.93268C6.03718 4.50015 4.50056 6.0368 4.50056 7.93234V28.0678C4.50056 29.9634 6.03718 31.5 7.93268 31.5H13.4241" stroke="var(--stroke-0, currentColor)" stroke-width="1.5" stroke-miterlimit="10" stroke-linecap="round" stroke-linejoin="round"/><path d="M20.2876 26.9236H15.7114" stroke="var(--stroke-0, currentColor)" stroke-width="1.5" stroke-miterlimit="10" stroke-linecap="round" stroke-linejoin="round"/></svg>