<svg viewBox="0 0 24 24" fill="none" xmlns="http://www.w3.org/2000/svg"><path d="M12.6489 22.9773C24.7145 22.2872 26.9576 5.35368 15.5091 1.55113C12.3411 0.494557 8.70873 0.975133 5.93723 2.83825H5.93801C4.65355 3.68931 3.56237 4.79925 2.73488 6.09646C1.90739 7.39366 1.36195 8.84932 1.13376 10.3695L1.13306 10.3691C0.0472241 17.1551 5.76103 23.426 12.6489 22.9773ZM21.5788 16.0078C21.1849 16.9371 20.6556 17.8033 20.0078 18.5785C19.9621 18.3068 20.0883 17.9921 19.9003 17.7386C19.6963 17.3423 19.5074 16.938 19.2948 16.5464C19.2158 16.4008 19.2376 16.3171 19.3541 16.2123C20.6015 15.1215 19.4895 15.7015 19.612 14.1426C19.6164 14.1004 19.608 14.0579 19.5879 14.0206C19.5679 13.9833 19.537 13.9528 19.4993 13.9332C18.908 13.5569 18.1361 13.4277 17.5251 13.8458C16.7635 14.2045 15.6773 13.9301 15.4309 13.059C15.213 12.48 15.2398 11.8953 15.234 11.304C15.2692 10.9851 15.7081 10.9316 15.637 10.563C15.6539 10.095 15.5008 9.60094 15.9449 9.29548C15.9789 9.26555 16.0195 9.24393 16.0634 9.23236C16.1072 9.22078 16.1532 9.21955 16.1976 9.22877C16.6034 9.27768 17.0135 9.18237 17.3558 8.95962C17.7187 8.73032 18.1668 8.87876 18.5689 8.82656C18.7605 8.81296 18.9025 8.86904 19.0204 9.01769C19.2524 9.30955 19.6152 9.39526 19.9201 9.57253C20.0226 9.63215 20.0777 9.55699 20.1258 9.49516C20.3819 9.16591 20.7743 9.0553 21.1185 8.86598C21.3059 8.75895 21.6817 9.16755 22.0016 9.18206C22.6391 11.4058 22.4912 13.8813 21.5788 16.0078ZM21.429 7.65014C21.0469 7.70022 21.3038 7.33855 21.1067 7.14931C20.9087 6.97324 20.7203 6.78665 20.5425 6.59038C20.4504 6.49237 20.3909 6.47661 20.2844 6.58131C19.9985 6.86324 20.0146 6.83332 20.348 7.17021C20.7373 7.59669 21.0307 7.58956 20.3263 7.88592C20.166 7.95784 20.0146 8.12174 19.8397 7.88492C19.7338 7.74163 19.5897 7.64535 19.6068 7.42459C19.6331 7.08421 19.3725 6.83742 19.2519 6.54353C19.2159 6.45584 19.1523 6.51763 19.1183 6.5608C18.8647 6.88582 18.4815 7.01146 18.1344 7.19201C17.5348 7.71443 17.6717 7.65752 16.876 7.63481C16.8024 7.63796 16.7807 7.54946 16.7488 7.49773C16.3481 6.84416 16.4258 6.68484 16.8409 6.06783C16.9935 5.97656 17.6681 6.08191 17.7956 6.21463C17.8529 6.27421 17.9 6.34363 17.9827 6.44751C18.0462 6.19451 18.014 6.00065 18.0206 5.80969C18.1282 5.02612 18.7889 5.37924 19.2579 5.20905C19.4796 5.04019 19.5706 4.95613 19.5236 4.87328C20.3076 5.68815 20.9514 6.62637 21.429 7.65014ZM19.4594 4.8077C19.1393 4.59998 18.4281 4.381 18.4091 3.86774C18.7805 4.15665 19.1314 4.47071 19.4594 4.8077ZM4.73575 4.7084C5.33253 4.11282 6.00023 3.59229 6.72396 3.15843C6.97008 3.28363 7.14568 3.74426 7.45441 3.58059C7.78367 3.40841 8.1346 3.27185 8.37098 2.96397C8.50489 2.80185 8.73923 2.92593 8.91414 2.87676C9.60178 2.78398 9.78769 3.56423 10.0449 4.0284C10.0222 4.04744 10.0102 4.0657 10.0004 4.06458C9.4037 3.99748 8.8566 4.1884 8.31587 4.3959C8.13824 4.46407 8.00133 4.46986 7.89021 4.2994C7.75287 4.08862 7.57641 4.08254 7.35731 4.17346C7.15438 4.31641 6.42528 4.34111 6.47566 4.628C6.52514 4.89754 6.31159 5.35696 6.79709 5.26513C7.02458 5.18625 7.22015 5.85619 7.35918 5.47103C7.65751 4.26646 8.91522 5.31763 9.88499 4.54796C10.2418 4.33701 10.5352 5.03186 10.6738 5.27662C10.7792 5.50626 10.8554 5.77662 11.2259 5.69653C10.9936 5.92812 10.7597 6.15815 10.53 6.39225C10.4633 6.46016 10.4028 6.4384 10.3279 6.4125C10.0391 6.31259 9.7464 6.22378 9.45859 6.12107C9.3213 6.07206 9.25545 6.06727 9.25856 6.25059C9.49356 7.51129 8.41586 6.29541 7.66743 7.24084C6.73353 8.17618 7.45627 8.96109 6.17274 9.94439C6.09601 10.0146 6.03228 10.0231 5.95642 9.96754C5.39883 9.57309 4.14606 9.35877 3.72954 10.0035C3.72357 10.023 3.72211 10.0435 3.72528 10.0636C3.72844 10.0836 3.73616 10.1027 3.74783 10.1194C3.9709 10.4757 3.98841 11.0752 4.41195 10.4775C4.53802 10.3704 4.6861 10.4064 4.81521 10.4278C4.95103 10.4503 4.88358 10.5937 4.8802 10.677C4.89939 11.0095 5.37925 11.0687 5.28485 11.4429C5.23099 11.7137 5.57321 11.564 5.72359 11.6095C5.96669 11.6444 6.15112 11.5634 6.30696 11.3742C6.42515 11.2307 7.10356 11.1332 7.25979 11.2255C7.38366 11.3499 7.43569 11.5442 7.52455 11.6961C7.67224 11.9914 7.67861 11.9974 7.89601 11.764C8.39554 11.3732 9.0977 11.6824 9.57301 11.9537C9.94643 12.1622 9.82308 12.9063 10.3793 12.7994C10.4862 12.7743 10.544 12.865 10.6025 12.9307C11.0066 13.4233 11.659 13.3644 11.8979 14.0398C12.0519 14.3216 12.0354 14.5685 11.9046 14.8472C11.8116 15.3707 11.5533 15.7565 11.0078 15.9031C10.5752 16.058 11.305 16.7613 10.3149 17.0417C10.061 17.0968 10.0281 17.2906 10.061 17.5179C10.166 18.1033 10.0234 18.545 9.37732 18.6992C9.18626 18.7622 9.22031 19.0153 9.12963 19.1596C8.68391 19.9691 9.08908 20.5597 9.65672 21.1267C9.15849 21.156 8.61853 21.2065 8.44632 20.6719C8.23117 20.0492 8.03647 19.4211 7.71743 18.839C7.61029 18.6435 7.67926 18.4163 7.67649 18.2043C7.59872 17.3368 6.70979 16.6875 6.87676 15.7632C6.94149 15.3002 6.27888 15.9613 5.59284 15.1188C5.36417 14.8485 4.83211 14.1951 4.924 13.8565C5.11181 13.39 5.13161 12.8272 5.5652 12.5034C5.74989 12.3603 5.7667 11.9141 5.42223 12.0007C4.53737 12.1482 4.72644 11.4856 4.20819 11.6114C3.85726 11.6486 3.60394 11.534 3.33122 11.2893C2.51299 10.5394 2.27843 11.095 1.80962 10.539C2.12423 8.33055 3.1513 6.28401 4.73575 4.7084Z" fill="currentColor"/></svg>