<svg viewBox="0 0 36 36" fill="none" stroke-width="1.5" xmlns="http://www.w3.org/2000/svg"><path d="M16.9982 30.0789H7.34211C6.58833 30.0789 5.86543 29.7795 5.33243 29.2465C4.79944 28.7135 4.5 27.9906 4.5 27.2368V10.1842C4.5 9.43044 4.79944 8.70754 5.33243 8.17454C5.86543 7.64154 6.58833 7.3421 7.34211 7.3421H24.3947C25.1485 7.3421 25.8714 7.64154 26.4044 8.17454C26.9374 8.70754 27.2368 9.43044 27.2368 10.1842V15.8684" stroke="var(--stroke-0, currentColor)" stroke-width="1.5" stroke-linecap="round" stroke-linejoin="round"/><path d="M21.7964 29.8351C20.7305 28.7691 20.1316 27.3233 20.1316 25.8158C20.1316 24.3082 20.7305 22.8624 21.7964 21.7964C22.8624 20.7305 24.3082 20.1316 25.8158 20.1316C27.3233 20.1316 28.7691 20.7305 29.8351 21.7964C30.9011 22.8624 31.5 24.3082 31.5 25.8158C31.5 27.3233 30.9011 28.7691 29.8351 29.8351C28.7691 30.9011 27.3233 31.5 25.8158 31.5C24.3082 31.5 22.8624 30.9011 21.7964 29.8351Z" stroke="var(--stroke-0, currentColor)" stroke-width="1.5" stroke-linecap="round" stroke-linejoin="round"/><path d="M21.5526 4.5V10.1842" stroke="var(--stroke-0, currentColor)" stroke-width="1.5" stroke-linecap="round" stroke-linejoin="round"/><path d="M10.1842 4.5V10.1842" stroke="var(--stroke-0, currentColor)" stroke-width="1.5" stroke-linecap="round" stroke-linejoin="round"/><path d="M4.5 15.8684H27.2368" stroke="var(--stroke-0, currentColor)" stroke-width="1.5" stroke-linecap="round" stroke-linejoin="round"/><path d="M25.8158 23.6785V25.8157L27.2368 27.2368" stroke="var(--stroke-0, currentColor)" stroke-width="1.5" stroke-linecap="round" stroke-linejoin="round"/></svg>