<svg viewBox="0 0 14 14" fill="none" xmlns="http://www.w3.org/2000/svg"><path d="M10.3346 1.77935C9.72943 1.28384 9.02184 0.928815 8.26286 0.739877C7.50388 0.550939 6.71242 0.532798 5.94558 0.686762C4.95959 0.888911 4.05248 1.37023 3.33232 2.07337C2.61216 2.77652 2.10931 3.67186 1.88365 4.65274C1.65799 5.63362 1.71905 6.6587 2.05955 7.60586C2.40004 8.55302 3.00563 9.38233 3.80416 9.99502C4.71587 10.6623 5.49213 11.4972 6.09142 12.4549L6.49975 13.1339C6.55161 13.2202 6.6249 13.2916 6.7125 13.3411C6.8001 13.3906 6.89903 13.4167 6.99967 13.4167C7.10031 13.4167 7.19923 13.3906 7.28683 13.3411C7.37443 13.2916 7.44772 13.2202 7.49959 13.1339L7.891 12.4818C8.41286 11.5644 9.12442 10.7689 9.97817 10.1484C10.6476 9.68786 11.2009 9.07801 11.5943 8.36701C11.9877 7.65602 12.2105 6.86333 12.2451 6.05149C12.2797 5.23965 12.1252 4.43087 11.7937 3.68897C11.4623 2.94706 10.963 2.29233 10.3352 1.77643L10.3346 1.77935ZM6.99908 8.16744C6.53759 8.16744 6.08647 8.03059 5.70275 7.7742C5.31904 7.51781 5.01997 7.15339 4.84336 6.72703C4.66676 6.30067 4.62055 5.83151 4.71058 5.37889C4.80061 4.92627 5.02284 4.51051 5.34917 4.18418C5.67549 3.85786 6.09125 3.63563 6.54387 3.5456C6.9965 3.45557 7.46565 3.50178 7.89201 3.67838C8.31838 3.85498 8.68279 4.15405 8.93918 4.53777C9.19557 4.92148 9.33242 5.37261 9.33242 5.8341C9.33242 6.45294 9.08659 7.04643 8.649 7.48402C8.21142 7.92161 7.61792 8.16744 6.99908 8.16744Z" fill="currentColor"/></svg>
