<svg viewBox="0 0 24 24" fill="none" xmlns="http://www.w3.org/2000/svg"><path d="M3.53613 22L6.92894 19.8506" stroke="currentColor" stroke-miterlimit="10" stroke-linecap="round" stroke-linejoin="round"/><path d="M20.5 22L17.1072 19.8506" stroke="currentColor" stroke-miterlimit="10" stroke-linecap="round" stroke-linejoin="round"/><path d="M16.223 19.8508H7.74101C5.39875 19.8508 3.5 18.2198 3.5 16.2078V5.64315C3.5 3.63117 5.39875 2.00016 7.74101 2.00016H16.223C18.5653 2.00016 20.464 3.63117 20.464 5.64315V16.2078C20.464 18.2198 18.5653 19.8508 16.223 19.8508Z" stroke="currentColor" stroke-miterlimit="10" stroke-linecap="round" stroke-linejoin="round"/><path d="M5.22529 7.03543C4.94369 6.37573 5.42772 5.64284 6.14501 5.64284H17.8189C18.5362 5.64284 19.0202 6.37573 18.7386 7.03543L16.7415 11.714C16.427 12.4508 15.7032 12.9288 14.9021 12.9288H9.06181C8.2607 12.9288 7.53688 12.4508 7.22238 11.714L5.22529 7.03543Z" stroke="currentColor" stroke-miterlimit="10" stroke-linecap="round" stroke-linejoin="round"/><path d="M16.6064 17H14.5017" stroke="currentColor" stroke-linecap="round" stroke-linejoin="round"/><path d="M16.8934 22H7.32666" stroke="currentColor" stroke-linecap="round" stroke-linejoin="round"/><path d="M9.71846 17H7.61377" stroke="currentColor" stroke-linecap="round" stroke-linejoin="round"/></svg>