<svg viewBox="0 0 36 36" fill="none" stroke-width="1.5" xmlns="http://www.w3.org/2000/svg"><path d="M12.9154 20.2881C14.3195 20.2881 15.4578 19.1498 15.4578 17.7457C15.4578 16.3416 14.3195 15.2034 12.9154 15.2034C11.5113 15.2034 10.373 16.3416 10.373 17.7457C10.373 19.1498 11.5113 20.2881 12.9154 20.2881Z" stroke="var(--stroke-0, currentColor)" stroke-width="1.5" stroke-miterlimit="10" stroke-linecap="round" stroke-linejoin="round"/><path d="M23.0847 27.9152C24.4888 27.9152 25.627 26.777 25.627 25.3729C25.627 23.9688 24.4888 22.8305 23.0847 22.8305C21.6806 22.8305 20.5423 23.9688 20.5423 25.3729C20.5423 26.777 21.6806 27.9152 23.0847 27.9152Z" stroke="var(--stroke-0, currentColor)" stroke-width="1.5" stroke-miterlimit="10" stroke-linecap="round" stroke-linejoin="round"/><path d="M23.0848 15.2034L12.9154 27.9152" stroke="var(--stroke-0, currentColor)" stroke-width="1.5" stroke-miterlimit="10" stroke-linecap="round" stroke-linejoin="round"/><path d="M5.288 13.4498V27.9153C5.288 30.7235 7.5645 33 10.3727 33H25.627C28.4352 33 30.7117 30.7235 30.7117 27.9153V20.2549" stroke="var(--stroke-0, currentColor)" stroke-width="1.5" stroke-miterlimit="10" stroke-linecap="round" stroke-linejoin="round"/><path d="M3 15.4576L16.3106 3.64239C16.7597 3.2428 17.3515 3 18 3C18.6484 3 19.2402 3.2428 19.6893 3.64239L33 15.4576" stroke="var(--stroke-0, currentColor)" stroke-width="1.5" stroke-miterlimit="10" stroke-linecap="round" stroke-linejoin="round"/><path d="M28.1692 5.54252V11.1878" stroke="var(--stroke-0, currentColor)" stroke-width="1.5" stroke-miterlimit="10" stroke-linecap="round" stroke-linejoin="round"/></svg>