<svg viewBox="0 0 24 24" fill="none" xmlns="http://www.w3.org/2000/svg"><path d="M12.3306 10.5874C12.8486 12.7341 14.7316 14.4886 17.1087 14.4886C19.4157 14.4886 21.3321 12.7689 21.8585 10.5874C22.5041 7.91412 20.8323 5.51416 19.0362 3.70913C18.434 3.10391 17.7949 2.51751 17.1087 2.00735C17.1044 2.00395 17.0997 2.00179 17.0946 2.00009C17.0895 2.00179 17.0847 2.00395 17.0805 2.00735C16.3943 2.51751 15.7551 3.10391 15.1529 3.70913C13.3569 5.51416 11.6851 7.91412 12.3306 10.5874Z" stroke="currentColor" stroke-miterlimit="10" stroke-linecap="round" stroke-linejoin="round"/><path d="M17.1086 6.85704V22" stroke="currentColor" stroke-miterlimit="10" stroke-linecap="round" stroke-linejoin="round"/><path d="M17.1088 11.5393L19.2759 9.37221" stroke="currentColor" stroke-miterlimit="10" stroke-linecap="round" stroke-linejoin="round"/><path d="M17.1086 9.46448L14.9415 7.29738" stroke="currentColor" stroke-miterlimit="10" stroke-linecap="round" stroke-linejoin="round"/><path d="M12.1243 19.2286H2.00016" stroke="currentColor" stroke-miterlimit="10" stroke-linecap="round" stroke-linejoin="round"/><path d="M12.1243 16.739H2.00016V14.2494H12.1243V16.739Z" stroke="currentColor" stroke-miterlimit="10" stroke-linecap="round" stroke-linejoin="round"/><path d="M10.8792 16.739V22" stroke="currentColor" stroke-miterlimit="10" stroke-linecap="round" stroke-linejoin="round"/><path d="M3.24487 16.739V22" stroke="currentColor" stroke-miterlimit="10" stroke-linecap="round" stroke-linejoin="round"/><path d="M22 22H1.99992" stroke="currentColor" stroke-miterlimit="10" stroke-linecap="round" stroke-linejoin="round"/></svg>