<svg viewBox="0 0 14 20" fill="none" xmlns="http://www.w3.org/2000/svg">
<path d="M0.597178 20V16.3843H0.726297C1.04506 16.3128 1.31137 16.111 1.52119 15.7831C1.72697 15.4551 1.88837 15.0557 1.99732 14.5848C2.10626 14.1139 2.15872 13.6431 2.15872 13.1638L2.11837 12.2682H0V8.62729H2.00135L1.91258 6.20139C1.91258 4.2716 2.45731 2.75384 3.54272 1.6523C4.62813 0.550767 6.08879 0 7.91664 0C9.86554 0 11.3787 0.521337 12.452 1.56401C13.5253 2.60668 14.0417 3.98991 13.9974 5.71369L13.9732 5.79357H9.50239C9.50239 5.0452 9.34906 4.49443 9.04644 4.14967C8.74381 3.80071 8.36049 3.62834 7.90454 3.62834C7.44858 3.62834 7.07736 3.85117 6.83123 4.29683C6.5851 4.74248 6.46001 5.37734 6.46001 6.20139L6.58913 8.62729H10.6967V12.2682H6.7586L6.78281 12.8779C6.78281 13.5085 6.64159 14.1266 6.35914 14.7278C6.07669 15.329 5.66915 15.8798 5.1325 16.3885H10.4748L10.5918 14.6227H13.9449V20H0.597178Z" fill="currentColor"/>
</svg>
