<svg viewBox="0 0 24 24" fill="none" xmlns="http://www.w3.org/2000/svg"><path d="M3 17.035C3.9 17.035 4.09891 17.027 4.8 17.035C6.32935 17.0174 6.91092 18.0405 8.4 18.0233C9.92935 18.0409 10.5109 17.0179 12 17.035C13.4891 17.0179 14.0706 18.0409 15.6 18.0233C17.0891 18.0405 17.6706 17.0174 19.2 17.035C19.9011 17.027 20.1 17.035 21 17.035" stroke="currentColor" stroke-linecap="round" stroke-linejoin="round"/><path d="M3 20.0115C3.9 20.0115 4.09891 20.0034 4.8 20.0115C6.32935 19.9939 6.91092 21.0169 8.4 20.9998C9.92935 21.0174 10.5109 19.9943 12 20.0115C13.4891 19.9943 14.0706 21.0174 15.6 20.9998C17.0891 21.0169 17.6706 19.9939 19.2 20.0115C19.9011 20.0034 20.1 20.0115 21 20.0115" stroke="currentColor" stroke-linecap="round" stroke-linejoin="round"/><path d="M7.80005 7.76221V8.55591" stroke="currentColor" stroke-miterlimit="10" stroke-linecap="round" stroke-linejoin="round"/><path d="M7.80005 10.937V11.7307" stroke="currentColor" stroke-miterlimit="10" stroke-linecap="round" stroke-linejoin="round"/><path d="M7.80005 14.1118V14.9055" stroke="currentColor" stroke-miterlimit="10" stroke-linecap="round" stroke-linejoin="round"/><path d="M12 7.76221V8.55591" stroke="currentColor" stroke-miterlimit="10" stroke-linecap="round" stroke-linejoin="round"/><path d="M12 10.937V11.7307" stroke="currentColor" stroke-miterlimit="10" stroke-linecap="round" stroke-linejoin="round"/><path d="M12 14.1118V14.9055" stroke="currentColor" stroke-miterlimit="10" stroke-linecap="round" stroke-linejoin="round"/><path d="M16.2 7.76221V8.55591" stroke="currentColor" stroke-miterlimit="10" stroke-linecap="round" stroke-linejoin="round"/><path d="M16.2 10.937V11.7307" stroke="currentColor" stroke-miterlimit="10" stroke-linecap="round" stroke-linejoin="round"/><path d="M16.2 14.1118V14.9055" stroke="currentColor" stroke-miterlimit="10" stroke-linecap="round" stroke-linejoin="round"/><path d="M19.2 14.9055V5.38109H4.80005L4.80005 14.9055" stroke="currentColor" stroke-miterlimit="10" stroke-linecap="round" stroke-linejoin="round"/><path d="M17.2 5.38111V3H6.80005V5.38111" stroke="currentColor" stroke-miterlimit="10" stroke-linecap="round" stroke-linejoin="round"/><path d="M20.2 5.3811H3.80005" stroke="currentColor" stroke-miterlimit="10" stroke-linecap="round" stroke-linejoin="round"/></svg>