<svg preserveAspectRatio="none" width="100%" height="100%" overflow="visible" style="display: block;" viewBox="0 0 22.0001 17" fill="none" xmlns="http://www.w3.org/2000/svg">
<g id="email">
<path id="Subtract" fill-rule="evenodd" clip-rule="evenodd" d="M6.10352e-05 2.21742C6.10352e-05 1.62933 0.248402 1.06533 0.690452 0.649489C1.1325 0.233648 1.73205 3.05176e-05 2.3572 3.05176e-05H19.6429C20.2681 3.05176e-05 20.8676 0.233648 21.3097 0.649489C21.7517 1.06533 22.0001 1.62933 22.0001 2.21742V2.72299L11.6019 9.24507C11.4204 9.34783 11.2119 9.40058 11.0001 9.39733C10.7882 9.40058 10.5797 9.34783 10.3982 9.24507L6.10352e-05 2.72299V2.21742ZM6.10352e-05 4.94333V14.7826C6.10352e-05 15.3707 0.248402 15.9347 0.690452 16.3506C1.1325 16.7664 1.73205 17 2.3572 17H19.6429C20.2681 17 20.8676 16.7664 21.3097 16.3506C21.7517 15.9347 22.0001 15.3707 22.0001 14.7826V4.94333L12.6862 10.7854L12.6783 10.7913C12.177 11.0913 11.5942 11.2489 11.0001 11.2452C10.4108 11.2452 9.81678 11.0944 9.32178 10.7913L9.31392 10.7854L6.10352e-05 4.94333Z" fill="var(--fill-0, #0B3268)"/>
</g>
</svg>
