<svg preserveAspectRatio="none" width="100%" height="100%" overflow="visible" style="display: block;" viewBox="0 0 22 22" fill="none" xmlns="http://www.w3.org/2000/svg">
<path id="Vector" d="M16.4825 0H5.5C2.47937 0 0 2.47937 0 5.51746V16.5C0 19.5206 2.47937 22 5.5 22H16.4825C19.5206 22 22 19.5206 22 16.4825V5.51746C22 2.47937 19.5206 0 16.4825 0ZM13.9508 11H11.873V17.8095H9.25397V11H7.85714V8.20635H9.07937V7.01905C9.07937 5.90159 9.63809 4.1381 11.9952 4.1381H14.1429V6.46032H12.6238C12.3794 6.46032 12.0476 6.61746 12.0476 7.15873V8.20635H14.1952L13.9508 11Z" fill="var(--fill-0, #0B3268)"/>
</svg>
