<svg preserveAspectRatio="none" width="100%" height="100%" overflow="visible" style="display: block;" viewBox="0 0 22 22" fill="none" xmlns="http://www.w3.org/2000/svg">
<path id="Vector" d="M11.6489 21.9773C23.7145 21.2872 25.9576 4.35368 14.5091 0.551125C11.3411 -0.505443 7.70873 -0.0248671 4.93723 1.83825H4.93801C3.65355 2.68931 2.56237 3.79925 1.73488 5.09646C0.907387 6.39366 0.36195 7.84932 0.133758 9.36953L0.133065 9.36906C-0.952776 16.1551 4.76103 22.426 11.6489 21.9773ZM20.5788 15.0078C20.1849 15.9371 19.6556 16.8033 19.0078 17.5785C18.9621 17.3068 19.0883 16.9921 18.9003 16.7386C18.6963 16.3423 18.5074 15.938 18.2948 15.5464C18.2158 15.4008 18.2376 15.3171 18.3541 15.2123C19.6015 14.1215 18.4895 14.7015 18.612 13.1426C18.6164 13.1004 18.608 13.0579 18.5879 13.0206C18.5679 12.9833 18.537 12.9528 18.4993 12.9332C17.908 12.5569 17.1361 12.4277 16.5251 12.8458C15.7635 13.2045 14.6773 12.9301 14.4309 12.059C14.213 11.48 14.2398 10.8953 14.234 10.304C14.2692 9.98512 14.7081 9.93158 14.637 9.563C14.6539 9.09499 14.5008 8.60094 14.9449 8.29548C14.9789 8.26555 15.0195 8.24393 15.0634 8.23236C15.1072 8.22078 15.1532 8.21955 15.1976 8.22877C15.6034 8.27768 16.0135 8.18237 16.3558 7.95962C16.7187 7.73032 17.1668 7.87876 17.5689 7.82656C17.7605 7.81296 17.9025 7.86904 18.0204 8.01769C18.2524 8.30955 18.6152 8.39526 18.9201 8.57253C19.0226 8.63215 19.0777 8.55699 19.1258 8.49516C19.3819 8.16591 19.7743 8.0553 20.1185 7.86598C20.3059 7.75895 20.6817 8.16755 21.0016 8.18206C21.6391 10.4058 21.4912 12.8813 20.5788 15.0078ZM20.429 6.65014C20.0469 6.70022 20.3038 6.33855 20.1067 6.14931C19.9087 5.97324 19.7203 5.78665 19.5425 5.59038C19.4504 5.49237 19.3909 5.47661 19.2844 5.58131C18.9985 5.86324 19.0146 5.83332 19.348 6.17021C19.7373 6.59669 20.0307 6.58956 19.3263 6.88592C19.166 6.95784 19.0146 7.12174 18.8397 6.88492C18.7338 6.74163 18.5897 6.64535 18.6068 6.4246C18.6331 6.08421 18.3725 5.83742 18.2519 5.54353C18.2159 5.45584 18.1523 5.51763 18.1183 5.5608C17.8647 5.88582 17.4815 6.01146 17.1344 6.19201C16.5348 6.71443 16.6717 6.65752 15.876 6.63481C15.8024 6.63796 15.7807 6.54946 15.7488 6.49773C15.3481 5.84416 15.4258 5.68484 15.8409 5.06783C15.9935 4.97656 16.6681 5.08191 16.7956 5.21463C16.8529 5.27421 16.9 5.34363 16.9827 5.44751C17.0462 5.19451 17.014 5.00065 17.0206 4.80969C17.1282 4.02612 17.7889 4.37924 18.2579 4.20905C18.4796 4.04019 18.5706 3.95613 18.5236 3.87328C19.3076 4.68815 19.9514 5.62637 20.429 6.65014ZM18.4594 3.8077C18.1393 3.59998 17.4281 3.381 17.4091 2.86774C17.7805 3.15665 18.1314 3.47071 18.4594 3.8077ZM3.73575 3.7084C4.33253 3.11282 5.00023 2.59229 5.72396 2.15843C5.97008 2.28363 6.14568 2.74426 6.45441 2.58059C6.78367 2.40841 7.1346 2.27185 7.37098 1.96397C7.50489 1.80185 7.73923 1.92593 7.91414 1.87676C8.60178 1.78398 8.78769 2.56423 9.0449 3.0284C9.0222 3.04744 9.01024 3.0657 9.00037 3.06458C8.4037 2.99748 7.8566 3.1884 7.31587 3.3959C7.13824 3.46407 7.00133 3.46986 6.89021 3.2994C6.75287 3.08862 6.57641 3.08254 6.35731 3.17346C6.15438 3.31641 5.42528 3.34111 5.47566 3.628C5.52514 3.89754 5.31159 4.35696 5.79709 4.26513C6.02458 4.18625 6.22015 4.85619 6.35918 4.47103C6.65751 3.26646 7.91522 4.31763 8.88499 3.54796C9.24177 3.33701 9.53521 4.03186 9.67385 4.27662C9.77921 4.50626 9.85542 4.77662 10.2259 4.69653C9.99358 4.92812 9.75967 5.15815 9.52996 5.39225C9.46333 5.46016 9.40276 5.4384 9.32794 5.4125C9.03914 5.31259 8.7464 5.22378 8.45859 5.12107C8.3213 5.07206 8.25545 5.06727 8.25856 5.25059C8.49356 6.51129 7.41586 5.29541 6.66743 6.24084C5.73353 7.17618 6.45627 7.96109 5.17274 8.94439C5.09601 9.0146 5.03228 9.02306 4.95642 8.96753C4.39883 8.57309 3.14606 8.35877 2.72954 9.00354C2.72357 9.02297 2.72211 9.04349 2.72528 9.06356C2.72844 9.08363 2.73616 9.10272 2.74783 9.11938C2.9709 9.4757 2.98841 10.0752 3.41195 9.47747C3.53802 9.3704 3.6861 9.40645 3.81521 9.42782C3.95103 9.45031 3.88358 9.59365 3.8802 9.67702C3.89939 10.0095 4.37925 10.0687 4.28485 10.4429C4.23099 10.7137 4.57321 10.564 4.72359 10.6095C4.96669 10.6444 5.15112 10.5634 5.30696 10.3742C5.42515 10.2307 6.10356 10.1332 6.25979 10.2255C6.38366 10.3499 6.43569 10.5442 6.52455 10.6961C6.67224 10.9914 6.67861 10.9974 6.89601 10.764C7.39554 10.3732 8.0977 10.6824 8.57301 10.9537C8.94643 11.1622 8.82308 11.9063 9.37933 11.7994C9.48616 11.7743 9.54396 11.865 9.60253 11.9307C10.0066 12.4233 10.659 12.3644 10.8979 13.0398C11.0519 13.3216 11.0354 13.5685 10.9046 13.8472C10.8116 14.3707 10.5533 14.7565 10.0078 14.9031C9.57524 15.058 10.305 15.7613 9.3149 16.0417C9.06098 16.0968 9.02809 16.2906 9.06098 16.5179C9.166 17.1033 9.02337 17.545 8.37732 17.6992C8.18626 17.7622 8.22031 18.0153 8.12963 18.1596C7.68391 18.9691 8.08908 19.5597 8.65672 20.1267C8.15849 20.156 7.61853 20.2065 7.44632 19.6719C7.23117 19.0492 7.03647 18.4211 6.71743 17.839C6.61029 17.6435 6.67926 17.4163 6.67649 17.2043C6.59872 16.3368 5.70979 15.6875 5.87676 14.7632C5.94149 14.3002 5.27888 14.9613 4.59284 14.1188C4.36417 13.8485 3.83211 13.1951 3.924 12.8565C4.11181 12.39 4.13161 11.8272 4.5652 11.5034C4.74989 11.3603 4.7667 10.9141 4.42223 11.0007C3.53737 11.1482 3.72644 10.4856 3.20819 10.6114C2.85726 10.6486 2.60394 10.534 2.33122 10.2893C1.51299 9.53938 1.27843 10.095 0.809619 9.53904C1.12423 7.33055 2.1513 5.28401 3.73575 3.7084Z" fill="var(--fill-0, #0B3268)"/>
</svg>
