<svg preserveAspectRatio="none" width="100%" height="100%" overflow="visible" style="display: block;" viewBox="0 0 22 22" fill="none" xmlns="http://www.w3.org/2000/svg">
<path id="Vector" d="M16.4695 0H5.51309C2.4774 0 0 2.47937 0 5.51746V16.5C0 19.5206 2.4774 22 5.51309 22H16.4869C19.5226 22 22 19.5206 22 16.4825V5.51746C21.9826 2.47937 19.5052 0 16.4695 0ZM7.32752 17.8095H4.18715V8.73016H7.32752V17.8095ZM5.73989 7.33333C4.85012 7.33333 4.13481 6.61746 4.13481 5.72698C4.13481 4.83651 4.85012 4.12064 5.73989 4.12064C6.62966 4.12064 7.34496 4.83651 7.34496 5.72698C7.32752 6.61746 6.61221 7.33333 5.73989 7.33333ZM17.8128 17.8095H17.7954H15.1784V13.4095C15.1784 12.3444 15.0389 10.9825 13.5908 10.9825C12.1079 10.9825 11.8636 12.1349 11.8636 13.3397V17.8095H9.24663V8.73016H11.6891V9.95238H11.7589C12.1427 9.25397 13.0325 8.7127 14.4282 8.7127C17.3069 8.7127 17.8128 10.3714 17.8128 12.8333V17.8095Z" fill="var(--fill-0, #0B3268)"/>
</svg>
