<svg preserveAspectRatio="none" width="100%" height="100%" overflow="visible" style="display: block;" viewBox="0 0 18 22" fill="none" xmlns="http://www.w3.org/2000/svg">
<path id="Vector" d="M14.7167 2.05029C13.6792 1.20085 12.4662 0.592238 11.1651 0.268344C9.86393 -0.05555 8.50714 -0.0866492 7.19253 0.177289C5.50223 0.523829 3.94717 1.34894 2.7126 2.55434C1.47802 3.75974 0.615962 5.29461 0.229115 6.97612C-0.157731 8.65762 -0.0530612 10.4149 0.530657 12.0386C1.11438 13.6623 2.15254 15.084 3.52148 16.1343C5.08443 17.2782 6.41517 18.7094 7.44254 20.3513L8.14255 21.5153C8.23145 21.6632 8.3571 21.7855 8.50727 21.8704C8.65744 21.9554 8.82704 22 8.99956 22C9.17209 22 9.34168 21.9554 9.49185 21.8704C9.64203 21.7855 9.76767 21.6632 9.85658 21.5153L10.5276 20.3973C11.4222 18.8247 12.642 17.461 14.1056 16.3973C15.2533 15.6077 16.2017 14.5623 16.8761 13.3434C17.5505 12.1246 17.9325 10.7657 17.9918 9.37396C18.0512 7.98224 17.7863 6.59576 17.2181 5.32393C16.6499 4.05209 15.7939 2.92969 14.7177 2.04529L14.7167 2.05029ZM8.99856 13.0013C8.20742 13.0013 7.43405 12.7667 6.77625 12.3272C6.11844 11.8877 5.60574 11.2629 5.30299 10.532C5.00023 9.80113 4.92102 8.99686 5.07536 8.22094C5.2297 7.44501 5.61067 6.73228 6.17009 6.17287C6.72951 5.61346 7.44225 5.2325 8.21819 5.07815C8.99413 4.92381 9.7984 5.00303 10.5293 5.30578C11.2602 5.60853 11.885 6.12122 12.3245 6.77902C12.764 7.43681 12.9986 8.21017 12.9986 9.0013C12.9986 10.0622 12.5772 11.0796 11.827 11.8297C11.0769 12.5799 10.0594 13.0013 8.99856 13.0013Z" fill="var(--fill-0, #0B3268)"/>
</svg>
