<svg preserveAspectRatio="none" width="100%" height="100%" overflow="visible" style="display: block;" viewBox="0 0 19.666 19.666" fill="none" xmlns="http://www.w3.org/2000/svg">
<path id="Union" fill-rule="evenodd" clip-rule="evenodd" d="M9.31184 13.2984C9.76683 13.6437 10.4122 13.4955 10.7049 13.005L11.3032 12.0027C11.7679 11.2241 12.6982 10.8555 13.57 11.1046L18.2153 12.4318C19.1598 12.7017 19.7685 13.6175 19.6517 14.5928L19.2496 17.9487C19.1241 18.9962 18.2052 19.7753 17.1573 19.6534C14.4973 19.3441 11.9487 18.6577 9.55975 17.3022C6.5717 15.6068 4.05923 13.0943 2.36375 10.1063C1.0083 7.71736 0.321906 5.16866 0.0125666 2.50871C-0.109302 1.46078 0.669785 0.541853 1.71728 0.416363L5.07321 0.0143223C6.04851 -0.102519 6.9643 0.506193 7.23415 1.45068L8.56139 6.096C8.81049 6.96781 8.44192 7.89813 7.66334 8.36282L6.61694 8.98735C6.11828 9.28497 5.9752 9.94527 6.33794 10.3988C7.20485 11.4826 8.20635 12.4593 9.31184 13.2984Z" fill="var(--fill-0, #0B3268)"/>
</svg>
