<svg preserveAspectRatio="none" width="100%" height="100%" overflow="visible" style="display: block;" viewBox="0 0 22 22" fill="none" xmlns="http://www.w3.org/2000/svg">
<g id="youtube">
<path id="Vector" d="M9.58561 8.83489V12.8508L13.2872 10.8603L9.58561 8.83489Z" fill="var(--fill-0, #0B3268)"/>
<path id="Vector_2" d="M16.4825 0H5.5C2.47937 0 0 2.47937 0 5.51746V16.5C0 19.5206 2.47937 22 5.5 22H16.4825C19.5206 22 22 19.5206 22 16.4825V5.51746C22 2.47937 19.5206 0 16.4825 0ZM17.8095 11.5413C17.8095 12.6937 17.7048 13.8635 17.7048 13.8635C17.7048 13.8635 17.5825 14.8413 17.181 15.2778C16.6571 15.854 16.081 15.854 15.819 15.8889C13.8984 16.0286 11.0175 16.046 11.0175 16.046C11.0175 16.046 7.4381 15.9937 6.3381 15.8889C6.04127 15.8365 5.34286 15.854 4.81905 15.2778C4.4 14.8413 4.29524 13.8635 4.29524 13.8635C4.29524 13.8635 4.19048 12.6937 4.19048 11.5413V10.4587C4.19048 9.30635 4.29524 8.13651 4.29524 8.13651C4.29524 8.13651 4.41746 7.15873 4.81905 6.72222C5.34286 6.14603 5.91905 6.12857 6.18095 6.09365C8.11905 5.95397 11 5.93651 11 5.93651C11 5.93651 13.881 5.95397 15.8016 6.09365C16.0635 6.12857 16.6571 6.14603 17.181 6.70476C17.6 7.14127 17.7048 8.13651 17.7048 8.13651C17.7048 8.13651 17.8095 9.30635 17.8095 10.4587V11.5413Z" fill="var(--fill-0, #0B3268)"/>
</g>
</svg>
