<svg viewBox="0 0 112 25" fill="none" xmlns="http://www.w3.org/2000/svg">
<g id="NIP">
<path id="Vector" d="M21.1659 23.5688H23.2517V24.0273H19.0493L2.54503 3.19643V15.2374H2.55016C2.75541 21.924 8.98458 23.5841 9.06412 23.6636V24.0273H0V23.5688H2.0858V0.485926H0V0.0273438H4.97718L20.7066 19.9488V9.09652C20.7066 6.62171 19.2699 2.03076 14.4954 0.485926V0.0273438H23.2517V0.485926H21.1659V23.5688Z" fill="#FFFFFF"/>
<path id="Vector_2" d="M31.5091 23.5688H33.5923V24.0273H25.2517V23.5688H27.3349V0.485926H25.2517V0.0273438H31.5091V23.5688Z" fill="#FFFFFF"/>
<path id="Vector_3" d="M50.7855 0.485926C49.9697 0.19643 49.0948 0.0273438 48.1815 0.0273438H35.5923V0.485926H37.6781V23.5688H35.5923V24.0273H43.9329V23.5688H41.8497V15.2374H48.1815C49.0974 15.2374 49.9774 15.0888 50.7855 14.7788C57.6766 12.1401 57.143 2.73529 50.7855 0.485926ZM46.8936 14.7481C46.9218 14.7583 41.8497 14.7481 41.8497 14.7481V0.514107C41.8497 0.514107 46.9218 0.50386 46.8936 0.514107C53.1971 2.60975 53.936 12.0248 46.8936 14.7481Z" fill="#FFFFFF"/>
</g>
<path id="Line" d="M62.4817 0.0273438H61.7556V24.0273H62.4817V0.0273438Z" fill="#FFFFFF"/>
<g id="Text">
<g id="novel insight property">
<path d="M72.7493 0.351562V0.0976562H74.7415V0.351562H73.9602V5.9082L73.4622 6.00586L69.6633 1.36719V5.70312H70.2297C70.3534 5.71615 70.4413 5.80078 70.4934 5.95703H68.4817V5.70312H69.2629V0.351562H68.4817V0.0976562H69.9563L73.5598 4.49219V0.351562H72.7493Z" fill="#FFFFFF"/>
<path d="M77.8864 0C78.5765 0 79.1852 0.195312 79.7125 0.585938C80.4678 1.14583 80.8454 1.96289 80.8454 3.03711C80.8454 3.94206 80.5426 4.68099 79.9372 5.25391C79.3642 5.78776 78.6709 6.05469 77.8571 6.05469C77.1474 6.05469 76.5224 5.84635 75.9821 5.42969C75.2464 4.85026 74.8786 4.03971 74.8786 2.99805C74.8786 2.09961 75.1846 1.36719 75.7965 0.800781C76.3694 0.266927 77.0661 0 77.8864 0ZM77.8864 5.78125C79.0452 5.77474 79.6279 4.84375 79.6344 2.98828C79.6279 1.19141 79.0355 0.286458 77.8571 0.273438C76.6787 0.279948 76.0862 1.20117 76.0797 3.03711C76.0862 4.85352 76.6885 5.76823 77.8864 5.78125Z" fill="#FFFFFF"/>
<path d="M84.0879 6.00586H83.9415C83.8112 6.00586 83.7103 5.98307 83.6387 5.9375C83.5476 5.8724 83.4271 5.64453 83.2774 5.25391L81.3829 0.351562H80.836V0.0976562H83.2188V0.351562H82.4375L84.1661 4.78516L85.7383 0.351562H84.9571V0.0976562H86.6075V0.351562H86.1192L84.0879 6.00586Z" fill="#FFFFFF"/>
<path d="M91.2172 1.9043H90.9926L90.8168 1.35742C90.8103 1.33789 90.8038 1.3151 90.7973 1.28906C90.602 0.664062 90.2472 0.351562 89.7329 0.351562H88.3461V2.79297H90.309V3.07617H88.3461V5.70312H89.7329C89.811 5.70312 89.8859 5.69661 89.9575 5.68359C90.3546 5.60547 90.6411 5.27669 90.8168 4.69727L90.9926 4.15039H91.2172L91.1782 5.95703H86.52V5.70312H87.3012V0.351562H86.52V0.0976562H91.1782L91.2172 1.9043Z" fill="#FFFFFF"/>
<path d="M96.0809 5.95703H91.5985V5.70312H92.3797V0.351562H91.5985V0.0976562H94.2547V0.351562H93.4247V5.70312H94.6356C94.7853 5.70312 94.9221 5.67708 95.0458 5.625C95.3322 5.5013 95.5438 5.19206 95.6805 4.69727L95.8954 3.93555H96.1297L96.0809 5.95703Z" fill="#FFFFFF"/>
<path d="M71.2258 14.957H68.6184V14.7031H69.3997V9.35156H68.6184V9.09766H71.2258V9.35156H70.4446V14.7031H70.9719C71.0045 14.7031 71.037 14.7064 71.0696 14.7129C71.1737 14.7324 71.2258 14.8138 71.2258 14.957Z" fill="#FFFFFF"/>
<path d="M75.5817 9.35156V9.09766H77.5739V9.35156H76.7926V14.9082L76.2946 15.0059L72.4958 10.3672V14.7031H73.0622C73.1859 14.7161 73.2737 14.8008 73.3258 14.957H71.3141V14.7031H72.0954V9.35156H71.3141V9.09766H72.7887L76.3922 13.4922V9.35156H75.5817Z" fill="#FFFFFF"/>
<path d="M82.125 13.3848C82.125 13.7949 81.9786 14.1465 81.6856 14.4395C81.2624 14.8496 80.6602 15.0547 79.879 15.0547C79.2084 15.0547 78.6257 14.8887 78.1309 14.5566C78.1309 14.6803 78.1244 14.7715 78.1114 14.8301C78.0788 14.9277 77.9812 14.9766 77.8184 14.9766V12.9355H78.1504C78.1635 13.1439 78.196 13.3392 78.2481 13.5215C78.4629 14.3613 78.9838 14.7812 79.8106 14.7812C80.0385 14.7812 80.25 14.7389 80.4454 14.6543C80.862 14.472 81.0704 14.153 81.0704 13.6973C81.0704 13.5345 81.0346 13.3848 80.9629 13.248C80.8132 12.9746 80.4519 12.7012 79.879 12.4277C79.2474 12.1348 78.8829 11.959 78.7852 11.9004C78.1732 11.5488 77.8672 11.0996 77.8672 10.5527C77.8672 10.1816 78.0007 9.86263 78.2676 9.5957C78.6583 9.19857 79.2181 9 79.9473 9C80.5333 9 81.0736 9.12695 81.5684 9.38086C81.5684 9.32227 81.5717 9.27018 81.5782 9.22461C81.6042 9.10742 81.7051 9.04883 81.8809 9.04883V10.7773H81.5489C81.5489 10.4193 81.461 10.1133 81.2852 9.85938C81.0053 9.47526 80.5951 9.2832 80.0547 9.2832C79.8659 9.2832 79.6902 9.3125 79.5274 9.37109C79.1303 9.52734 78.9317 9.81055 78.9317 10.2207C78.9317 10.3835 78.9675 10.5299 79.0391 10.6602C79.1823 10.9336 79.5372 11.2005 80.1036 11.4609C80.7351 11.7539 81.1029 11.9329 81.2071 11.998C81.8191 12.3561 82.125 12.8184 82.125 13.3848Z" fill="#FFFFFF"/>
<path d="M85.0942 14.957H82.4868V14.7031H83.268V9.35156H82.4868V9.09766H85.0942V9.35156H84.3129V14.7031H84.8403C84.8728 14.7031 84.9054 14.7064 84.9379 14.7129C85.0421 14.7324 85.0942 14.8138 85.0942 14.957Z" fill="#FFFFFF"/>
<path d="M88.952 12.3008H91.5399V12.5547H90.8465V14.957L89.87 14.6934C89.4533 14.9342 88.9715 15.0547 88.4247 15.0547C87.7541 15.0547 87.1551 14.8626 86.6278 14.4785C85.853 13.9121 85.4657 13.0853 85.4657 11.998C85.4657 11.0801 85.7586 10.3444 86.3446 9.79102C86.898 9.26367 87.5881 9 88.4149 9C88.8902 9 89.3394 9.09766 89.7625 9.29297L90.6415 9.11719L90.6903 11.0801H90.4168C90.3062 10.6374 90.1694 10.2826 90.0067 10.0156C89.6942 9.52734 89.1994 9.2832 88.5223 9.2832C88.4572 9.2832 88.3921 9.28646 88.327 9.29297C87.2137 9.39062 86.6571 10.3053 86.6571 12.0371C86.6571 12.278 86.6668 12.5026 86.6864 12.7109C86.8231 14.0716 87.4286 14.752 88.5028 14.752C89.0171 14.752 89.45 14.5794 89.8016 14.2344V12.5547H88.952V12.3008Z" fill="#FFFFFF"/>
<path d="M94.304 14.957H91.6965V14.7031H92.4778V9.35156H91.6965V9.09766H94.304V9.35156H93.5227V11.793H96.3157V9.35156H95.5344V9.09766H98.1516V9.35156H97.3606V14.7031H97.8879C98.0116 14.7161 98.0995 14.8008 98.1516 14.957H95.5344V14.7031H96.3157V12.0762H93.5227V14.7031H94.05C94.0826 14.7031 94.1152 14.7064 94.1477 14.7129C94.2519 14.7324 94.304 14.8138 94.304 14.957Z" fill="#FFFFFF"/>
<path d="M102.273 14.957H99.3629V14.7031H100.291V9.35156H99.9098C99.3825 9.35807 99.0211 9.6901 98.8258 10.3477L98.611 11.0898H98.3278L98.3668 9.09766H103.289L103.338 11.0898H103.054L102.84 10.3477C102.651 9.6901 102.286 9.35807 101.746 9.35156H101.336V14.7031H102.009C102.133 14.7161 102.221 14.8008 102.273 14.957Z" fill="#FFFFFF"/>
<path d="M71.3137 18.3516H70.4446V21.0859H71.1965C71.9843 21.0664 72.3977 20.6042 72.4368 19.6992C72.4368 19.5365 72.4205 19.3835 72.3879 19.2402C72.2577 18.6478 71.8997 18.3516 71.3137 18.3516ZM71.4309 23.957H68.6184V23.7031H69.3997V18.3516H68.6184V18.0977H71.6555C72.0787 18.0977 72.4433 18.1693 72.7493 18.3125C73.3027 18.5794 73.5793 19.0286 73.5793 19.6602C73.5793 19.9271 73.5273 20.168 73.4231 20.3828C73.1041 21.0404 72.3912 21.3691 71.2844 21.3691H70.4446V23.7031H71.177C71.2096 23.7031 71.2421 23.7064 71.2747 23.7129C71.3788 23.7324 71.4309 23.8138 71.4309 23.957Z" fill="#FFFFFF"/>
<path d="M76.3141 23.957H73.7067V23.7031H74.4879V18.3516H73.7067V18.0977H76.7438C77.2581 18.0977 77.6943 18.2181 78.0524 18.459C78.4756 18.752 78.6872 19.1393 78.6872 19.6211C78.6872 19.7969 78.6579 19.9694 78.5993 20.1387C78.404 20.6595 77.9743 21.0046 77.3102 21.1738L78.8629 23.7031H79.1364C79.1754 23.7031 79.2112 23.7064 79.2438 23.7129C79.3349 23.7259 79.3805 23.8073 79.3805 23.957H77.8083L76.2848 21.2715H75.5329V23.7031H76.3141V23.957ZM76.3336 18.3516H75.5329V20.9883H76.3825C76.6429 20.9883 76.8708 20.9134 77.0661 20.7637C77.3851 20.5098 77.5446 20.1387 77.5446 19.6504C77.5446 19.4486 77.5088 19.2565 77.4372 19.0742C77.2484 18.5924 76.8805 18.3516 76.3336 18.3516Z" fill="#FFFFFF"/>
<path d="M82.4473 18C83.1374 18 83.7461 18.1953 84.2735 18.5859C85.0287 19.1458 85.4063 19.9629 85.4063 21.0371C85.4063 21.9421 85.1036 22.681 84.4981 23.2539C83.9252 23.7878 83.2318 24.0547 82.418 24.0547C81.7084 24.0547 81.0834 23.8464 80.543 23.4297C79.8073 22.8503 79.4395 22.0397 79.4395 20.998C79.4395 20.0996 79.7455 19.3672 80.3575 18.8008C80.9304 18.2669 81.627 18 82.4473 18ZM82.4473 23.7812C83.6062 23.7747 84.1889 22.8438 84.1954 20.9883C84.1889 19.1914 83.5964 18.2865 82.418 18.2734C81.2396 18.2799 80.6472 19.2012 80.6407 21.0371C80.6472 22.8535 81.2494 23.7682 82.4473 23.7812Z" fill="#FFFFFF"/>
<path d="M88.4731 18.3516H87.604V21.0859H88.3559C89.1437 21.0664 89.5571 20.6042 89.5961 19.6992C89.5961 19.5365 89.5799 19.3835 89.5473 19.2402C89.4171 18.6478 89.059 18.3516 88.4731 18.3516ZM88.5903 23.957H85.7778V23.7031H86.559V18.3516H85.7778V18.0977H88.8149C89.2381 18.0977 89.6027 18.1693 89.9086 18.3125C90.462 18.5794 90.7387 19.0286 90.7387 19.6602C90.7387 19.9271 90.6866 20.168 90.5825 20.3828C90.2635 21.0404 89.5506 21.3691 88.4438 21.3691H87.604V23.7031H88.3364C88.3689 23.7031 88.4015 23.7064 88.434 23.7129C88.5382 23.7324 88.5903 23.8138 88.5903 23.957Z" fill="#FFFFFF"/>
<path d="M95.5633 19.9043H95.3387L95.1629 19.3574C95.1564 19.3379 95.1499 19.3151 95.1434 19.2891C94.9481 18.6641 94.5933 18.3516 94.079 18.3516H92.6922V20.793H94.6551V21.0762H92.6922V23.7031H94.079C94.1571 23.7031 94.2319 23.6966 94.3036 23.6836C94.7007 23.6055 94.9872 23.2767 95.1629 22.6973L95.3387 22.1504H95.5633L95.5243 23.957H90.8661V23.7031H91.6473V18.3516H90.8661V18.0977H95.5243L95.5633 19.9043Z" fill="#FFFFFF"/>
<path d="M98.552 23.957H95.9446V23.7031H96.7258V18.3516H95.9446V18.0977H98.9817C99.496 18.0977 99.9322 18.2181 100.29 18.459C100.713 18.752 100.925 19.1393 100.925 19.6211C100.925 19.7969 100.896 19.9694 100.837 20.1387C100.642 20.6595 100.212 21.0046 99.5481 21.1738L101.101 23.7031H101.374C101.413 23.7031 101.449 23.7064 101.482 23.7129C101.573 23.7259 101.618 23.8073 101.618 23.957H100.046L98.5227 21.2715H97.7708V23.7031H98.552V23.957ZM98.5715 18.3516H97.7708V20.9883H98.6204C98.8808 20.9883 99.1086 20.9134 99.304 20.7637C99.623 20.5098 99.7825 20.1387 99.7825 19.6504C99.7825 19.4486 99.7467 19.2565 99.675 19.0742C99.4862 18.5924 99.1184 18.3516 98.5715 18.3516Z" fill="#FFFFFF"/>
<path d="M105.427 23.957H102.517V23.7031H103.445V18.3516H103.064C102.537 18.3581 102.175 18.6901 101.98 19.3477L101.765 20.0898H101.482L101.521 18.0977H106.443L106.492 20.0898H106.209L105.994 19.3477C105.805 18.6901 105.44 18.3581 104.9 18.3516H104.49V23.7031H105.164C105.287 23.7161 105.375 23.8008 105.427 23.957Z" fill="#FFFFFF"/>
<path d="M110.486 23.957H107.83V23.7031H108.631V21.5645L106.824 18.3516H106.316V18.0977H108.738V18.3516H107.996L109.5 21.1445L110.916 18.3516H110.135V18.0977H111.863C111.863 18.1302 111.86 18.1628 111.854 18.1953C111.834 18.2995 111.753 18.3516 111.609 18.3516C111.395 18.3581 111.222 18.4492 111.092 18.625L109.686 21.4766V23.7031H110.223C110.346 23.7161 110.434 23.8008 110.486 23.957Z" fill="#FFFFFF"/>
</svg>