<svg width="24" height="24" viewBox="0 0 24 24" fill="none" xmlns="http://www.w3.org/2000/svg">
<path d="M18.4363 8.20418C19.6011 7.03926 20.4789 5.6191 20.9998 4.05624L19.9436 2.99995C18.3807 3.52094 16.9605 4.39865 15.7956 5.56353L9.25875 12.1004C8.09491 13.2643 7.21799 14.6831 6.69752 16.2446L6.69678 16.2467L7.75302 17.303C9.31596 16.782 10.7361 15.9043 11.901 14.7394L18.4363 8.20418Z" stroke="#0B3268" stroke-miterlimit="10" stroke-linecap="round" stroke-linejoin="round"/>
<path d="M7.75416 17.303L7.75342 17.3032" stroke="#0B3268" stroke-miterlimit="10" stroke-linecap="round" stroke-linejoin="round"/>
<path d="M7.75342 17.3031L9.33779 21L10.6581 19.6797V15.7994" stroke="#0B3268" stroke-miterlimit="10" stroke-linecap="round" stroke-linejoin="round"/>
<path d="M8.20031 13.3421H4.32031L3 14.6624L6.69686 16.2468" stroke="#0B3268" stroke-miterlimit="10" stroke-linecap="round" stroke-linejoin="round"/>
<path d="M6.69678 16.2468L6.69779 16.2438" stroke="#0B3268" stroke-miterlimit="10" stroke-linecap="round" stroke-linejoin="round"/>
<path d="M17.5985 9.04248L20.2112 16.8808C20.3902 17.4175 20.2505 18.0093 19.8504 18.4094L19.1829 19.0769L14.4297 12.2113" stroke="#0B3268" stroke-miterlimit="10" stroke-linecap="round" stroke-linejoin="round"/>
<path d="M14.9578 6.40178L7.11949 3.78902C6.5827 3.61007 5.99094 3.74977 5.59083 4.14988L4.92334 4.81737L11.789 9.57056" stroke="#0B3268" stroke-miterlimit="10" stroke-linecap="round" stroke-linejoin="round"/>
<path d="M19.3566 14.3184L20.6716 13.0034C21.1091 12.5659 21.1091 11.8565 20.6716 11.419C20.2341 10.9815 19.5248 10.9815 19.0872 11.419L18.5645 11.9418L19.3566 14.3184Z" stroke="#0B3268" stroke-miterlimit="10" stroke-linecap="round" stroke-linejoin="round"/>
<path d="M12.0582 5.4353L12.581 4.91252C13.0185 4.47499 13.0185 3.76568 12.581 3.32815C12.1435 2.89062 11.4341 2.89062 10.9966 3.32815L9.68164 4.64312L12.0582 5.4353Z" stroke="#0B3268" stroke-miterlimit="10" stroke-linecap="round" stroke-linejoin="round"/>
</svg>
