<svg width="24" height="24" viewBox="0 0 24 24" fill="none" xmlns="http://www.w3.org/2000/svg">
<g clip-path="url(#clip0_2316_8798)">
<path d="M4 12H20C20.2652 12 20.5196 12.1054 20.7071 12.2929C20.8946 12.4804 21 12.7348 21 13V16C21 17.0609 20.5786 18.0784 19.8284 18.8285C19.0783 19.5787 18.0609 20.0001 17 20.0001H7C5.93913 20.0001 4.92172 19.5787 4.17157 18.8285C3.42143 18.0784 3 17.0609 3 16V13C3 12.7348 3.10536 12.4804 3.29289 12.2929C3.48043 12.1054 3.73478 12 4 12Z" stroke="#0B3268" stroke-linecap="round" stroke-linejoin="round"/>
<path d="M6 12.0001V5.00002C6 4.46958 6.21071 3.96087 6.58579 3.58579C6.96086 3.21072 7.46957 3 8 3H11V5.25003" stroke="#0B3268" stroke-linecap="round" stroke-linejoin="round"/>
<path d="M4 21L5 19.5" stroke="#0B3268" stroke-linecap="round" stroke-linejoin="round"/>
<path d="M20 21L19 19.5" stroke="#0B3268" stroke-linecap="round" stroke-linejoin="round"/>
</g>
<defs>
<clipPath id="clip0_2316_8798">
<rect width="24" height="24" fill="white"/>
</clipPath>
</defs>
</svg>
