<svg width="24" height="24" viewBox="0 0 24 24" fill="none" xmlns="http://www.w3.org/2000/svg">
<g clip-path="url(#clip0_2316_8821)">
<path d="M16.5042 9.60001C17.0552 9.60027 17.5033 10.1304 17.4001 10.68C16.8375 13.1697 14.5607 14.9893 12.0083 14.9893C9.45598 14.9893 7.17925 13.1697 6.61656 10.68C6.50646 10.1258 6.96423 9.58937 7.52053 9.60001H16.5042Z" stroke="#0B3268" stroke-linecap="square"/>
<path d="M18.0002 20.9999L15.3843 13.864" stroke="#0B3268"/>
<path d="M6 20.9999L8.6159 13.864" stroke="#0B3268"/>
<path d="M17.1185 18.5999H6.87891" stroke="#0B3268"/>
<path d="M7.93661 3L7.44062 3.65599C7.24259 3.91574 7.15208 4.24172 7.18782 4.56638C7.22356 4.89105 7.38283 5.18953 7.63262 5.39998C7.7716 5.51548 7.88456 5.6591 7.96404 5.82139C8.04354 5.98369 8.08776 6.16098 8.09381 6.3416C8.09985 6.52221 8.06758 6.70207 7.99912 6.86931C7.93066 7.03657 7.82757 7.18742 7.69661 7.31196" stroke="#0B3268" stroke-linecap="square"/>
<path d="M12.4473 3L11.9514 3.65599C11.7534 3.91574 11.6628 4.24172 11.6986 4.56638C11.7343 4.89105 11.8936 5.18953 12.1433 5.39998C12.2801 5.51689 12.3911 5.66103 12.4692 5.82319C12.5473 5.98535 12.5906 6.16199 12.5967 6.34186C12.6027 6.52173 12.5712 6.70088 12.5041 6.8679C12.4371 7.03492 12.3361 7.18615 12.2073 7.31196" stroke="#0B3268" stroke-linecap="square"/>
<path d="M16.648 3L16.152 3.65599C15.954 3.91574 15.8635 4.24172 15.8992 4.56638C15.935 4.89105 16.0943 5.18953 16.344 5.39998C16.4808 5.51689 16.5918 5.66103 16.6699 5.82319C16.7479 5.98535 16.7913 6.16199 16.7974 6.34186C16.8034 6.52173 16.7719 6.70088 16.7048 6.8679C16.6378 7.03492 16.5367 7.18615 16.408 7.31196" stroke="#0B3268" stroke-linecap="square"/>
</g>
<defs>
<clipPath id="clip0_2316_8821">
<rect width="24" height="24" fill="white"/>
</clipPath>
</defs>
</svg>
