<svg width="24" height="24" viewBox="0 0 24 24" fill="none" xmlns="http://www.w3.org/2000/svg">
<g clip-path="url(#clip0_2316_8877)">
<path d="M8.53027 17.7524H21.4192V17.1079C21.4192 15.9963 20.5238 15.0952 19.4193 15.0952H9.36281L5.97113 12.7051C5.06633 12.0675 3.81926 12.2888 3.1857 13.1994L2.81836 13.7274L8.53027 17.7524Z" stroke="#0B3268" stroke-miterlimit="10" stroke-linecap="round" stroke-linejoin="round"/>
<path d="M8.53 17.7524H2" stroke="#0B3268" stroke-miterlimit="10" stroke-linecap="round" stroke-linejoin="round"/>
<path d="M22 21H2" stroke="#0B3268" stroke-miterlimit="10" stroke-linecap="round" stroke-linejoin="round"/>
<path d="M4.57812 17.7524V21" stroke="#0B3268" stroke-miterlimit="10" stroke-linecap="round" stroke-linejoin="round"/>
<path d="M20.0986 17.7524V21" stroke="#0B3268" stroke-miterlimit="10" stroke-linecap="round" stroke-linejoin="round"/>
<path d="M19.1879 9.91357C18.2561 6.80683 15.3907 4.54427 11.9997 4.54427C8.60875 4.54427 5.74332 6.80683 4.81152 9.91357H19.1879Z" stroke="#0B3268" stroke-miterlimit="10" stroke-linecap="round" stroke-linejoin="round"/>
<path d="M12 9.91352V21" stroke="#0B3268" stroke-miterlimit="10" stroke-linecap="round" stroke-linejoin="round"/>
<path d="M12 4.54419V3.00006" stroke="#0B3268" stroke-miterlimit="10" stroke-linecap="round" stroke-linejoin="round"/>
</g>
<defs>
<clipPath id="clip0_2316_8877">
<rect width="24" height="24" fill="white"/>
</clipPath>
</defs>
</svg>
