<svg width="24" height="24" viewBox="0 0 24 24" fill="none" xmlns="http://www.w3.org/2000/svg">
<g clip-path="url(#clip0_2316_8829)">
<path d="M8.53027 17.7522H21.4192V17.1076C21.4192 15.996 20.5238 15.0949 19.4193 15.0949H9.36281L5.97113 12.7049C5.06633 12.0673 3.81926 12.2885 3.1857 13.1991L2.81836 13.7271L8.53027 17.7522Z" stroke="#0B3268" stroke-miterlimit="10" stroke-linecap="round" stroke-linejoin="round"/>
<path d="M8.53 17.7522H2" stroke="#0B3268" stroke-miterlimit="10" stroke-linecap="round" stroke-linejoin="round"/>
<path d="M22 21H2" stroke="#0B3268" stroke-miterlimit="10" stroke-linecap="round" stroke-linejoin="round"/>
<path d="M4.57812 17.7524V21" stroke="#0B3268" stroke-miterlimit="10" stroke-linecap="round" stroke-linejoin="round"/>
<path d="M20.0986 17.7524V21" stroke="#0B3268" stroke-miterlimit="10" stroke-linecap="round" stroke-linejoin="round"/>
<path d="M19.1879 9.91333C18.2561 6.80659 15.3907 4.54403 11.9997 4.54403C8.60875 4.54403 5.74332 6.80659 4.81152 9.91333H19.1879Z" stroke="#0B3268" stroke-miterlimit="10" stroke-linecap="round" stroke-linejoin="round"/>
<path d="M12 9.91352V21" stroke="#0B3268" stroke-miterlimit="10" stroke-linecap="round" stroke-linejoin="round"/>
<path d="M12 4.54419V3.00006" stroke="#0B3268" stroke-miterlimit="10" stroke-linecap="round" stroke-linejoin="round"/>
</g>
<defs>
<clipPath id="clip0_2316_8829">
<rect width="24" height="24" fill="white"/>
</clipPath>
</defs>
</svg>
