<svg width="24" height="24" viewBox="0 0 24 24" fill="none" xmlns="http://www.w3.org/2000/svg">
<g clip-path="url(#clip0_2316_8797)">
<path d="M3.81914 11.8743H20.181C20.6634 11.8743 21.1261 12.0976 21.4672 12.4951C21.8084 12.8926 22 13.4317 22 13.9938V18.2329H2.0001V14.016C1.99758 13.7358 2.04277 13.4578 2.13306 13.1981C2.22335 12.9383 2.35694 12.7021 2.5261 12.5029C2.69527 12.3037 2.89665 12.1456 3.11859 12.0377C3.34054 11.9298 3.57865 11.8743 3.81914 11.8743Z" stroke="#0B3268" stroke-miterlimit="10" stroke-linecap="round"/>
<path d="M4.72382 3.42847H19.2761C19.515 3.42847 19.7516 3.48329 19.9722 3.58981C20.1929 3.69632 20.3935 3.85245 20.5624 4.04927C20.7313 4.24608 20.8653 4.47974 20.9567 4.73689C21.0481 4.99405 21.0952 5.26966 21.0952 5.54801V11.8733H2.90479V5.54801C2.90479 4.98587 3.09643 4.44676 3.43757 4.04927C3.77871 3.65177 4.24138 3.42847 4.72382 3.42847Z" stroke="#0B3268" stroke-miterlimit="10" stroke-linecap="round"/>
<path d="M7.45722 7.65601H10.181C10.6635 7.65601 11.1261 7.87931 11.4673 8.2768C11.8084 8.6743 12.0001 9.21341 12.0001 9.77555V11.8729H5.63818V9.77555C5.63818 9.21341 5.82983 8.6743 6.17097 8.2768C6.5121 7.87931 6.97478 7.65601 7.45722 7.65601Z" stroke="#0B3268" stroke-miterlimit="10" stroke-linecap="round"/>
<path d="M13.819 7.65601H16.5428C17.0253 7.65601 17.488 7.87931 17.8291 8.2768C18.1702 8.6743 18.3619 9.21341 18.3619 9.77555V11.8729H12V9.77555C12 9.21341 12.1916 8.6743 12.5328 8.2768C12.8739 7.87931 13.3366 7.65601 13.819 7.65601Z" stroke="#0B3268" stroke-miterlimit="10" stroke-linecap="round"/>
<path d="M2.90479 21.4286V18.2549" stroke="#0B3268" stroke-miterlimit="10" stroke-linecap="round"/>
<path d="M21.0952 21.4286V18.2549" stroke="#0B3268" stroke-miterlimit="10" stroke-linecap="round"/>
</g>
<defs>
<clipPath id="clip0_2316_8797">
<rect width="24" height="24" fill="white"/>
</clipPath>
</defs>
</svg>
