<svg width="24" height="24" viewBox="0 0 24 24" fill="none" xmlns="http://www.w3.org/2000/svg">
<g clip-path="url(#clip0_2316_8838)">
<path d="M15 11C14.9999 10.4459 14.8463 9.90271 14.5563 9.43058C14.2663 8.95844 13.8512 8.57584 13.357 8.32521C12.8629 8.07457 12.309 7.96568 11.7567 8.01062C11.2044 8.05555 10.6754 8.25256 10.2283 8.57979C9.78114 8.90702 9.43336 9.35169 9.2235 9.86449C9.01364 10.3773 8.9499 10.9382 9.03935 11.485C9.1288 12.0318 9.36794 12.5432 9.73025 12.9624C10.0926 13.3816 10.5639 13.6923 11.092 13.86" stroke="#0B3268" stroke-linecap="round" stroke-linejoin="round"/>
<path d="M11.0588 21.25C10.8851 21.1572 10.7261 21.0393 10.5868 20.9L6.34284 16.657C5.42527 15.7394 4.74471 14.6122 4.35987 13.3729C3.97503 12.1336 3.89746 10.8192 4.13385 9.54321C4.37024 8.26721 4.9135 7.06787 5.71676 6.04864C6.52002 5.0294 7.55917 4.22088 8.74458 3.6928C9.93 3.16473 11.2261 2.93296 12.521 3.01748C13.816 3.10199 15.071 3.50027 16.1777 4.17795C17.2844 4.85563 18.2096 5.79236 18.8736 6.90736C19.5376 8.02235 19.9203 9.28213 19.9888 10.578" stroke="#0B3268" stroke-linecap="round" stroke-linejoin="round"/>
<path d="M15.6282 21.955L17.8002 20.817L19.9722 21.955C20.0367 21.9891 20.1094 22.0046 20.1822 21.9995C20.2549 21.9944 20.3248 21.969 20.3838 21.9262C20.4429 21.8834 20.4887 21.8249 20.5162 21.7573C20.5437 21.6898 20.5517 21.6158 20.5392 21.544L20.1252 19.134L21.8822 17.427C21.9343 17.3761 21.9711 17.3117 21.9885 17.241C22.0058 17.1703 22.003 17.0962 21.9805 17.027C21.9579 16.9578 21.9164 16.8963 21.8607 16.8495C21.805 16.8027 21.7373 16.7723 21.6652 16.762L19.2372 16.41L18.1512 14.217C18.1188 14.1517 18.0687 14.0967 18.0067 14.0583C17.9447 14.0199 17.8732 13.9995 17.8002 13.9995C17.7273 13.9995 17.6558 14.0199 17.5938 14.0583C17.5318 14.0967 17.4817 14.1517 17.4492 14.217L16.3632 16.41L13.9352 16.762C13.863 16.772 13.795 16.8021 13.7391 16.8489C13.6831 16.8957 13.6414 16.9573 13.6188 17.0266C13.5962 17.096 13.5935 17.1703 13.6111 17.2411C13.6287 17.3119 13.6658 17.3763 13.7182 17.427L15.4752 19.134L15.0602 21.545C15.0487 21.6167 15.0573 21.6903 15.0851 21.7574C15.113 21.8245 15.1589 21.8826 15.2178 21.9251C15.2767 21.9676 15.3463 21.9929 15.4188 21.9982C15.4913 22.0035 15.5638 21.9885 15.6282 21.955Z" stroke="#0B3268" stroke-linecap="round" stroke-linejoin="round"/>
</g>
<defs>
<clipPath id="clip0_2316_8838">
<rect width="24" height="24" fill="white"/>
</clipPath>
</defs>
</svg>
