<svg width="24" height="24" viewBox="0 0 24 24" fill="none" xmlns="http://www.w3.org/2000/svg">
<g clip-path="url(#clip0_2316_8873)">
<path d="M5.00004 19.4999C7.2092 19.4999 9.00008 17.6473 9.00008 15.362C9.00008 13.0768 7.2092 11.2241 5.00004 11.2241C2.79088 11.2241 1 13.0768 1 15.362C1 17.6473 2.79088 19.4999 5.00004 19.4999Z" stroke="#0B3268" stroke-linecap="round" stroke-linejoin="round"/>
<path d="M8.5 7.60342H14.5001M14.5001 7.60342H15.0001L19.0001 15.362M14.5001 7.60342L16.5001 4.5M16.5001 4.5H14.0001M16.5001 4.5H18.5001" stroke="#0B3268" stroke-linecap="round" stroke-linejoin="round"/>
<path d="M5 15.3618L8.50003 7.60327L12.0001 14.3274H15.0001" stroke="#0B3268" stroke-linecap="round" stroke-linejoin="round"/>
<path d="M8.50003 7.60342C8.1667 6.56895 7.00002 4.5 5 4.5" stroke="#0B3268" stroke-linecap="round" stroke-linejoin="round"/>
<path d="M19 19.4999C21.2092 19.4999 23.0001 17.6473 23.0001 15.362C23.0001 13.0768 21.2092 11.2241 19 11.2241C16.7909 11.2241 15 13.0768 15 15.362C15 17.6473 16.7909 19.4999 19 19.4999Z" stroke="#0B3268" stroke-linecap="round" stroke-linejoin="round"/>
</g>
<defs>
<clipPath id="clip0_2316_8873">
<rect width="24" height="24" fill="white"/>
</clipPath>
</defs>
</svg>
