<svg width="24" height="24" viewBox="0 0 24 24" fill="none" xmlns="http://www.w3.org/2000/svg">
<g clip-path="url(#clip0_2316_8871)">
<path d="M15.7345 6.73431C15.7345 4.67181 14.0625 2.99986 12.0001 2.99986C9.93761 2.99986 8.26562 4.67181 8.26562 6.73431C8.26562 7.69961 8.6326 8.57791 9.2343 9.23959C10.0041 10.0861 10.9503 10.8458 11.367 11.9115L12.0001 13.531L12.6332 11.9115C13.0498 10.8458 13.996 10.0861 14.7658 9.23959C15.3675 8.57791 15.7345 7.69961 15.7345 6.73431Z" stroke="#0B3268" stroke-miterlimit="10" stroke-linecap="round" stroke-linejoin="round"/>
<path d="M8.26556 6.73441C8.26556 6.73422 8.26556 6.73404 8.26556 6.73385C5.15899 7.91117 3 10.5118 3 13.5311C3 17.6561 7.02943 21 12 21C16.9706 21 21 17.6561 21 13.5311C21 10.5118 18.841 7.91117 15.7344 6.73385C15.7344 6.73404 15.7344 6.73422 15.7344 6.73441" stroke="#0B3268" stroke-miterlimit="10" stroke-linecap="round" stroke-linejoin="round"/>
<path d="M11.1464 11.348C9.47436 11.5778 8.22803 12.4679 8.22803 13.5311C8.22803 14.7685 9.9167 15.7717 11.9998 15.7717C14.0829 15.7717 15.7716 14.7685 15.7716 13.5311C15.7716 12.4679 14.5253 11.5778 12.8532 11.348" stroke="#0B3268" stroke-miterlimit="10" stroke-linecap="round" stroke-linejoin="round"/>
<path d="M13.307 6.73445C13.307 7.45632 12.7218 8.0415 11.9999 8.0415C11.2781 8.0415 10.6929 7.45632 10.6929 6.73445C10.6929 6.01258 11.2781 5.42739 11.9999 5.42739C12.7218 5.42739 13.307 6.01258 13.307 6.73445Z" stroke="#0B3268" stroke-miterlimit="10" stroke-linecap="round" stroke-linejoin="round"/>
<path d="M9.178 9.17517C7.06677 9.96729 5.61426 11.62 5.61426 13.531C5.61426 16.2122 8.47331 18.3857 12.0002 18.3857C15.527 18.3857 18.3861 16.2122 18.3861 13.531C18.3861 11.62 16.9335 9.96729 14.8223 9.17517" stroke="#0B3268" stroke-miterlimit="10" stroke-linecap="round" stroke-linejoin="round"/>
</g>
<defs>
<clipPath id="clip0_2316_8871">
<rect width="24" height="24" fill="white"/>
</clipPath>
</defs>
</svg>
