<svg width="24" height="24" viewBox="0 0 24 24" fill="none" xmlns="http://www.w3.org/2000/svg">
<g clip-path="url(#clip0_2316_8807)">
<path d="M9.53369 8H12.4428C13.0857 8 13.7023 8.26339 14.157 8.73223C14.6116 9.20107 14.867 9.83696 14.867 10.5V13.5C14.867 14.163 14.6116 14.7989 14.157 15.2678C13.7023 15.7366 13.0857 16 12.4428 16H9.53369V8Z" stroke="#0B3268" stroke-linecap="round" stroke-linejoin="round"/>
<path d="M9 10.7999C10.0667 10.2666 11.1333 10.2666 12.2 10.7999C13.2667 11.3332 14.3333 11.3332 15.4 10.7999" stroke="#0B3268" stroke-linecap="round" stroke-linejoin="round"/>
<path d="M9 13.2C10.0667 12.6667 11.1333 12.6667 12.2 13.2C13.2667 13.7334 14.3333 13.7334 15.4 13.2" stroke="#0B3268" stroke-linecap="round" stroke-linejoin="round"/>
<path d="M2.7612 15.8268C2.25866 14.6136 2 13.3132 2 12C2 10.6868 2.25866 9.38642 2.7612 8.17317C3.26375 6.95991 4.00035 5.85752 4.92893 4.92893C5.85752 4.00035 6.95991 3.26375 8.17317 2.7612C9.38642 2.25866 10.6868 2 12 2C13.3132 2 14.6136 2.25866 15.8268 2.7612C17.0401 3.26375 18.1425 4.00035 19.0711 4.92893C19.9997 5.85752 20.7362 6.95991 21.2388 8.17317C21.7413 9.38642 22 10.6868 22 12C22 13.3132 21.7413 14.6136 21.2388 15.8268C20.7362 17.0401 19.9997 18.1425 19.0711 19.0711C18.1425 19.9997 17.0401 20.7362 15.8268 21.2388C14.6136 21.7413 13.3132 22 12 22C10.6868 22 9.38642 21.7413 8.17317 21.2388C6.95991 20.7362 5.85752 19.9997 4.92893 19.0711C4.00035 18.1425 3.26375 17.0401 2.7612 15.8268Z" stroke="#0B3268" stroke-linecap="round" stroke-linejoin="round"/>
</g>
<defs>
<clipPath id="clip0_2316_8807">
<rect width="24" height="24" fill="white"/>
</clipPath>
</defs>
</svg>
