<svg width="24" height="24" viewBox="0 0 24 24" fill="none" xmlns="http://www.w3.org/2000/svg">
<path fill-rule="evenodd" clip-rule="evenodd" d="M1 6.21739C1 5.6293 1.24834 5.0653 1.69039 4.64946C2.13244 4.23362 2.73199 4 3.35714 4H20.6429C21.268 4 21.8676 4.23362 22.3096 4.64946C22.7517 5.0653 23 5.6293 23 6.21739V6.72296L12.6019 13.245C12.4203 13.3478 12.2118 13.4006 12 13.3973C11.7882 13.4006 11.5797 13.3478 11.3981 13.245L1 6.72296V6.21739ZM1 8.9433V18.7826C1 19.3707 1.24834 19.9347 1.69039 20.3505C2.13244 20.7664 2.73199 21 3.35714 21H20.6429C21.268 21 21.8676 20.7664 22.3096 20.3505C22.7517 19.9347 23 19.3707 23 18.7826V8.9433L13.6861 14.7854L13.6783 14.7913C13.1769 15.0913 12.5942 15.2488 12 15.2451C11.4107 15.2451 10.8167 15.0943 10.3217 14.7913L10.3139 14.7854L1 8.9433Z" fill="#0B3268"/>
</svg>
