<svg width="24" height="24" viewBox="0 0 24 24" fill="none" xmlns="http://www.w3.org/2000/svg">
<g clip-path="url(#clip0_2316_8809)">
<path d="M17.4881 20.5714C18.7004 20.5714 19.6832 19.5703 19.6832 18.3354C19.6832 17.1005 18.7004 16.0994 17.4881 16.0994C16.2758 16.0994 15.293 17.1005 15.293 18.3354C15.293 19.5703 16.2758 20.5714 17.4881 20.5714Z" stroke="#0B3268" stroke-miterlimit="10"/>
<path d="M7.24395 20.5714C8.45628 20.5714 9.43907 19.5703 9.43907 18.3354C9.43907 17.1005 8.45628 16.0994 7.24395 16.0994C6.03162 16.0994 5.04883 17.1005 5.04883 18.3354C5.04883 19.5703 6.03162 20.5714 7.24395 20.5714Z" stroke="#0B3268" stroke-miterlimit="10"/>
<path d="M7.63721 2.57153L8.67985 4.8702" stroke="#0B3268" stroke-miterlimit="10"/>
<path d="M10.2656 8.36523L15.5642 19.4132" stroke="#0B3268" stroke-miterlimit="10"/>
<path d="M17.0945 2.57153L9.16797 19.4132" stroke="#0B3268" stroke-miterlimit="10"/>
<path d="M13.6841 10.0899C16.8283 11.3421 18.6976 10.6221 21.0002 9.47049V6.13013C18.0114 7.58925 16.9707 8.18772 14.907 7.39389" stroke="#0B3268" stroke-miterlimit="10"/>
<mask id="mask0_2316_8809" style="mask-type:luminance" maskUnits="userSpaceOnUse" x="3" y="4" width="11" height="8">
<path d="M13.9998 4.06201H3V11.5154H10.6189L13.9998 4.06201Z" fill="white"/>
</mask>
<g mask="url(#mask0_2316_8809)">
<path d="M14.9065 7.39388C14.3739 7.18898 13.7828 6.89133 13.0873 6.49179C8.70035 3.96419 6.49587 4.72462 3.73145 6.10727V9.47152C7.64402 7.62557 8.25452 7.13893 11.6439 9.08591C12.3768 9.50823 13.0529 9.83875 13.6836 10.0899" stroke="#0B3268" stroke-miterlimit="10" stroke-linecap="round" stroke-linejoin="round"/>
</g>
</g>
<defs>
<clipPath id="clip0_2316_8809">
<rect width="24" height="24" fill="white"/>
</clipPath>
</defs>
</svg>
