<svg width="24" height="24" viewBox="0 0 24 24" fill="none" xmlns="http://www.w3.org/2000/svg">
<path d="M15.6667 19.516C12.605 19.516 9.94667 17.7805 8.62054 15.2382H15.6667V12.7937H7.82613C7.765 12.3965 7.72226 11.9871 7.72226 11.5715C7.72226 11.156 7.76506 10.7465 7.82613 10.3493H15.6667V7.90487H8.62054C9.94667 5.36266 12.5989 3.62707 15.6667 3.62707C17.6405 3.62707 19.4433 4.3482 20.8305 5.53987L23 3.38266C21.0567 1.641 18.4839 0.571533 15.6667 0.571533C10.8817 0.571533 6.8178 3.6332 5.30833 7.90487H1V10.3493H4.74C4.69113 10.7527 4.66667 11.156 4.66667 11.5715C4.66667 11.9871 4.69113 12.3904 4.74 12.7937H1V15.2382H5.30833C6.8178 19.5099 10.8817 22.5715 15.6667 22.5715C18.4839 22.5715 21.0567 21.5021 23 19.7604L20.8305 17.5971C19.4433 18.7887 17.6405 19.516 15.6667 19.516Z" fill="#0B3268"/>
</svg>
