<svg width="24" height="24" viewBox="0 0 24 24" fill="none" xmlns="http://www.w3.org/2000/svg">
<g clip-path="url(#clip0_2316_8868)">
<path d="M4.92855 14.2207L2.47902 15.1908C1.58574 15.5445 1 16.4011 1 17.3538V22H12V17.3538C12 16.4011 11.4143 15.5445 10.5209 15.1908L8.0714 14.2207" stroke="#0B3268" stroke-miterlimit="10" stroke-linejoin="round"/>
<path d="M4.92871 12.6998V14.2207C4.92871 15.08 5.63225 15.7766 6.50016 15.7766C7.36802 15.7766 8.07156 15.08 8.07156 14.2207V12.6998" stroke="#0B3268" stroke-miterlimit="10" stroke-linejoin="round"/>
<path d="M3.35709 6.89349C2.48923 6.89349 1.78564 7.59007 1.78564 8.44933V8.45019C1.78564 9.309 2.48919 10.0052 3.35664 10.0052H3.35709V10.0054C3.35723 11.7239 4.76427 13.1169 6.49994 13.1169H6.50127C8.23625 13.1169 9.64284 11.724 9.64284 10.0061V10.0052H9.64457C10.5117 10.0043 11.2143 9.30796 11.2143 8.44933C11.2143 7.59007 10.5107 6.89349 9.64284 6.89349" stroke="#0B3268" stroke-miterlimit="10" stroke-linejoin="round"/>
<path d="M10.5365 7.21704V5.99625C10.5365 3.78916 8.72935 1.99995 6.50014 1.99995C4.27097 1.99995 2.46387 3.78916 2.46387 5.99625V7.21704" stroke="#0B3268" stroke-miterlimit="10" stroke-linejoin="round"/>
<path d="M16.3853 15.5393L15.9286 17.3316L13.479 18.3017C12.5858 18.6555 12 19.5121 12 20.4647V22H23V20.4647C23 19.5121 22.4142 18.6555 21.521 18.3017L19.0714 17.3316L18.6147 15.5393" stroke="#0B3268" stroke-miterlimit="10" stroke-linejoin="round"/>
<path d="M20.1451 9.73309H20.6428C21.5107 9.73309 22.2142 10.4297 22.2142 11.2889C22.2142 12.1482 21.5107 12.8448 20.6428 12.8448C20.6428 14.5634 19.2357 15.9565 17.4999 15.9565C15.7642 15.9565 14.357 14.5634 14.357 12.8448C13.4892 12.8448 12.7856 12.1482 12.7856 11.2889C12.7856 10.4297 13.4892 9.73309 14.357 9.73309H17.0124C18.0121 9.73309 18.8225 8.93072 18.8225 7.9409V8.41961C18.8225 9.14344 19.4139 9.73088 20.1451 9.73309Z" stroke="#0B3268" stroke-miterlimit="10" stroke-linejoin="round"/>
<path d="M21.5365 10.0566V8.83585C21.5365 6.62871 19.7293 4.83951 17.5001 4.83951C15.271 4.83951 13.4639 6.62871 13.4639 8.83585V10.0566" stroke="#0B3268" stroke-miterlimit="10" stroke-linejoin="round"/>
<path d="M15.9287 5.10083V3.78473C15.9287 2.92547 16.6323 2.22884 17.5002 2.22884C18.368 2.22884 19.0716 2.92547 19.0716 3.78473V5.10083" stroke="#0B3268" stroke-miterlimit="10" stroke-linejoin="round"/>
<path d="M15.9287 17.3317L15.9337 17.3463C16.4433 18.8369 18.5762 18.827 19.0716 17.3317" stroke="#0B3268" stroke-miterlimit="10" stroke-linejoin="round"/>
<path d="M4.1921 6.87013L4.1898 6.37089C4.24963 6.37089 4.30903 6.38158 4.36517 6.40245L4.1921 6.87013ZM2.73162 6.87015L2.72932 6.37091L4.1898 6.37089L4.1921 6.87013L4.19441 7.36937L2.73393 7.36939L2.73162 6.87015ZM4.1921 6.87013L4.36517 6.40245C5.93045 6.98435 6.94299 6.65393 7.57853 5.99432C8.25494 5.2923 8.60362 4.1159 8.5781 2.84902L9.07876 2.84128L9.57942 2.83355C9.60803 4.25395 9.2263 5.72877 8.30232 6.68774C7.33747 7.68913 5.87961 8.02948 4.01904 7.33781L4.1921 6.87013Z" fill="#0B3268"/>
</g>
<defs>
<clipPath id="clip0_2316_8868">
<rect width="24" height="24" fill="white"/>
</clipPath>
</defs>
</svg>
