<svg width="24" height="24" viewBox="0 0 24 24" fill="none" xmlns="http://www.w3.org/2000/svg">
<path d="M17.4825 1H6.5C3.47937 1 1 3.47937 1 6.51746V17.5C1 20.5206 3.47937 23 6.5 23H17.4825C20.5206 23 23 20.5206 23 17.4825V6.51746C23 3.47937 20.5206 1 17.4825 1ZM14.9508 12H12.873V18.8095H10.254V12H8.85714V9.20635H10.0794V8.01905C10.0794 6.90159 10.6381 5.1381 12.9952 5.1381H15.1429V7.46032H13.6238C13.3794 7.46032 13.0476 7.61746 13.0476 8.15873V9.20635H15.1952L14.9508 12Z" fill="#0B3268"/>
</svg>
