<svg width="24" height="24" viewBox="0 0 24 24" fill="none" xmlns="http://www.w3.org/2000/svg">
<g clip-path="url(#clip0_2316_8822)">
<path d="M11.52 13.0286C11.2965 12.7092 11.0066 12.45 10.6733 12.2715C10.3401 12.0929 9.97259 12 9.6 12H7.2C6.08609 12 5.01781 12.4741 4.23015 13.318C3.4425 14.162 3 15.3065 3 16.5C3 17.6935 3.4425 18.838 4.23015 19.682C5.01781 20.5259 6.08609 21 7.2 21H19.2C19.6774 21 20.1352 20.7968 20.4728 20.4351C20.8103 20.0734 21 19.5829 21 19.0714C21 18.56 20.8103 18.0694 20.4728 17.7077C20.1352 17.3461 19.6774 17.1429 19.2 17.1429H15.6C15.2274 17.1429 14.8599 17.0499 14.5267 16.8714C14.1934 16.6929 13.9035 16.4337 13.68 16.1143L11.52 13.0286Z" stroke="#0B3268" stroke-linecap="round" stroke-linejoin="round"/>
<path d="M7.7998 15.8572L9.5998 18.4286" stroke="#0B3268" stroke-linecap="round" stroke-linejoin="round"/>
<path d="M13.1465 15.3523L14.6841 9.38315C14.7748 9.02687 14.9724 8.71245 15.2463 8.48833C15.5202 8.2642 15.8554 8.14281 16.2001 8.14286H18.6001C19.2366 8.14286 19.847 7.87194 20.2971 7.38971C20.7472 6.90747 21.0001 6.25342 21.0001 5.57143C21.0001 4.88944 20.7472 4.23539 20.2971 3.75316C19.847 3.27092 19.2366 3 18.6001 3H13.8001" stroke="#0B3268" stroke-linecap="round" stroke-linejoin="round"/>
<path d="M4.19971 8.14282H8.99971" stroke="#0B3268" stroke-linecap="round" stroke-linejoin="round"/>
<path d="M6 8.14282L8.4 12" stroke="#0B3268" stroke-linecap="round" stroke-linejoin="round"/>
</g>
<defs>
<clipPath id="clip0_2316_8822">
<rect width="24" height="24" fill="white"/>
</clipPath>
</defs>
</svg>
