<svg width="23" height="23" viewBox="0 0 23 23" fill="none" xmlns="http://www.w3.org/2000/svg">
<g clip-path="url(#clip0_2316_8872)">
<path d="M8.625 11.5C8.625 12.2625 8.9279 12.9938 9.46707 13.5329C10.0062 14.0721 10.7375 14.375 11.5 14.375C12.2625 14.375 12.9938 14.0721 13.5329 13.5329C14.0721 12.9938 14.375 12.2625 14.375 11.5C14.375 10.7375 14.0721 10.0062 13.5329 9.46707C12.9938 8.9279 12.2625 8.625 11.5 8.625C10.7375 8.625 10.0062 8.9279 9.46707 9.46707C8.9279 10.0062 8.625 10.7375 8.625 11.5Z" stroke="#0B3268" stroke-linecap="round" stroke-linejoin="round"/>
<path d="M11.5 15.8125C11.5 16.6654 11.2471 17.4992 10.7732 18.2084C10.2993 18.9176 9.62583 19.4703 8.83782 19.7967C8.04982 20.1231 7.18272 20.2085 6.34617 20.0421C5.50963 19.8757 4.74122 19.465 4.1381 18.8619C3.53499 18.2588 3.12426 17.4904 2.95787 16.6538C2.79147 15.8173 2.87687 14.9502 3.20327 14.1622C3.52967 13.3742 4.08242 12.7007 4.7916 12.2268C5.50079 11.7529 6.33457 11.5 7.1875 11.5C6.33457 11.5 5.50079 11.2471 4.7916 10.7732C4.08242 10.2993 3.52967 9.62583 3.20327 8.83782C2.87687 8.04982 2.79147 7.18272 2.95787 6.34617C3.12426 5.50963 3.53499 4.74122 4.1381 4.1381C4.74122 3.53499 5.50963 3.12426 6.34617 2.95787C7.18272 2.79147 8.04982 2.87687 8.83782 3.20327C9.62583 3.52967 10.2993 4.08242 10.7732 4.7916C11.2471 5.50079 11.5 6.33457 11.5 7.1875C11.5 6.33457 11.7529 5.50079 12.2268 4.7916C12.7007 4.08242 13.3742 3.52967 14.1622 3.20327C14.9502 2.87687 15.8173 2.79147 16.6538 2.95787C17.4904 3.12426 18.2588 3.53499 18.8619 4.1381C19.465 4.74122 19.8757 5.50963 20.0421 6.34617C20.2085 7.18272 20.1231 8.04982 19.7967 8.83782C19.4703 9.62583 18.9176 10.2993 18.2084 10.7732C17.4992 11.2471 16.6654 11.5 15.8125 11.5C16.6654 11.5 17.4992 11.7529 18.2084 12.2268C18.9176 12.7007 19.4703 13.3742 19.7967 14.1622C20.1231 14.9502 20.2085 15.8173 20.0421 16.6538C19.8757 17.4904 19.465 18.2588 18.8619 18.8619C18.2588 19.465 17.4904 19.8757 16.6538 20.0421C15.8173 20.2085 14.9502 20.1231 14.1622 19.7967C13.3742 19.4703 12.7007 18.9176 12.2268 18.2084C11.7529 17.4992 11.5 16.6654 11.5 15.8125Z" stroke="#0B3268" stroke-linecap="round" stroke-linejoin="round"/>
<path d="M11.5 7.1875V8.625" stroke="#0B3268" stroke-linecap="round" stroke-linejoin="round"/>
<path d="M7.1875 11.5H8.625" stroke="#0B3268" stroke-linecap="round" stroke-linejoin="round"/>
<path d="M15.8125 11.5H14.375" stroke="#0B3268" stroke-linecap="round" stroke-linejoin="round"/>
<path d="M11.5 15.8125V14.375" stroke="#0B3268" stroke-linecap="round" stroke-linejoin="round"/>
<path d="M7.6665 7.6665L9.46817 9.46817" stroke="#0B3268" stroke-linecap="round" stroke-linejoin="round"/>
<path d="M13.5312 9.46817L15.3329 7.6665" stroke="#0B3268" stroke-linecap="round" stroke-linejoin="round"/>
<path d="M7.6665 15.3334L9.46817 13.5317" stroke="#0B3268" stroke-linecap="round" stroke-linejoin="round"/>
<path d="M13.5312 13.5317L15.3329 15.3334" stroke="#0B3268" stroke-linecap="round" stroke-linejoin="round"/>
</g>
<defs>
<clipPath id="clip0_2316_8872">
<rect width="23" height="23" fill="white"/>
</clipPath>
</defs>
</svg>
