<svg width="24" height="24" viewBox="0 0 24 24" fill="none" xmlns="http://www.w3.org/2000/svg">
<g clip-path="url(#clip0_2316_9368)">
<path d="M22.5705 12.0789H14.325C13.4446 12.0789 12.6096 12.4149 11.9738 13.0252L8.49379 16.3653C8.49371 16.3653 8.49362 16.3653 8.49353 16.3653H4.50728C3.71983 16.3653 3.07926 17.0069 3.07926 17.7955C3.07926 17.802 3.07994 17.8289 3.08033 17.845H3.08012C3.08751 18.0615 3.1419 18.2648 3.2333 18.4455C2.68596 18.632 2.28657 19.129 2.25847 19.7281C2.23913 20.1394 2.39266 20.5579 2.66908 20.8476C2.899 21.0885 3.19703 21.2213 3.50826 21.2213H11.5485C12.409 21.2213 13.2471 20.8679 13.8486 20.2513L17.1226 16.8949H18.6391V18.1621C18.6391 18.3994 18.8315 18.5918 19.0687 18.5918H22.5705C22.8078 18.5918 23.0002 18.3994 23.0002 18.1621V12.5085C23.0002 12.2713 22.8078 12.0789 22.5705 12.0789ZM4.50728 17.2248H7.87543C7.82851 17.373 7.80333 17.529 7.80161 17.6892C7.79903 17.927 7.84853 18.1569 7.94448 18.3664H4.50728C4.19984 18.3664 3.95062 18.1256 3.93906 17.8178L3.93863 17.7956C3.93863 17.4808 4.19374 17.2248 4.50728 17.2248ZM16.9415 16.0356C16.8257 16.0356 16.7148 16.0823 16.6339 16.1652L13.2334 19.6512C12.7926 20.103 12.1787 20.3619 11.5479 20.3619H3.50821C3.43207 20.3619 3.3589 20.3258 3.29079 20.2544C3.17688 20.135 3.1086 19.9442 3.11685 19.7685C3.1309 19.4693 3.39834 19.2258 3.71305 19.2258H8.92915C9.41852 19.3735 9.9659 19.2786 10.3882 18.9313L12.9747 16.8043C13.158 16.6535 13.1844 16.3827 13.0337 16.1995C12.8829 16.0162 12.6121 15.9898 12.4289 16.1405L9.84237 18.2676C9.5537 18.5049 9.13699 18.4843 8.87299 18.2197C8.73412 18.0806 8.65879 17.8955 8.6609 17.6985C8.663 17.5016 8.74232 17.3181 8.88416 17.182L12.5689 13.6452C13.0438 13.1894 13.6675 12.9383 14.325 12.9383H18.639V16.0357H16.9415V16.0356ZM22.1408 17.7325H19.4984V12.9382H22.1408V17.7325Z" fill="#0B3268"/>
<path d="M3.26763 9.05504L3.78678 8.23313L4.30597 9.05504C4.38469 9.17969 4.5218 9.25527 4.66927 9.25527H5.09565C5.2304 9.25527 5.35737 9.19207 5.43854 9.08452L5.8223 8.57628L6.20605 9.08452C6.28726 9.19207 6.41419 9.25527 6.54894 9.25527H8.31775V9.37997C8.31775 10.3511 9.10782 11.1412 10.079 11.1412H15.9354C16.9065 11.1412 17.6966 10.3511 17.6966 9.37997V4.54001C17.6966 3.56888 16.9065 2.77881 15.9354 2.77881H10.079C9.10782 2.77881 8.31775 3.56888 8.31775 4.54001V4.66471H2.90437C1.8543 4.66475 1 5.5194 1 6.56986V7.35008C1 8.40058 1.8543 9.25523 2.90437 9.25523C3.0518 9.25527 3.18891 9.17965 3.26763 9.05504ZM9.17712 4.54001C9.17712 4.04273 9.58172 3.63818 10.079 3.63818H15.9354C16.4327 3.63818 16.8372 4.04278 16.8372 4.54001V9.37997C16.8372 9.87725 16.4327 10.2818 15.9354 10.2818H10.079C9.58168 10.2818 9.17712 9.8772 9.17712 9.37997V4.54001ZM1.85938 7.35008V6.56986C1.85938 5.99321 2.32816 5.52408 2.90437 5.52408H8.31775V8.39586H6.76293L6.16519 7.60424C6.08398 7.49669 5.95705 7.43348 5.8223 7.43348C5.68755 7.43348 5.56057 7.49669 5.47941 7.60424L4.89495 8.37824L4.15008 7.19896C4.07136 7.07431 3.93425 6.99873 3.78678 6.99873C3.63931 6.99873 3.5022 7.07431 3.42348 7.19896L2.68253 8.37218C2.21254 8.27009 1.85938 7.85058 1.85938 7.35008Z" fill="#0B3268"/>
<path d="M13.8474 8.57647C14.7387 8.57647 15.4639 7.85133 15.4639 6.95999C15.4639 6.06865 14.7387 5.34351 13.8474 5.34351C12.9561 5.34351 12.231 6.06865 12.231 6.95999C12.231 7.85133 12.9561 8.57647 13.8474 8.57647ZM13.8474 6.20292C14.2649 6.20292 14.6045 6.54255 14.6045 6.96003C14.6045 7.37752 14.2649 7.71714 13.8474 7.71714C13.43 7.71714 13.0903 7.37752 13.0903 6.96003C13.0903 6.54255 13.43 6.20292 13.8474 6.20292Z" fill="#0B3268"/>
</g>
<defs>
<clipPath id="clip0_2316_9368">
<rect width="24" height="24" fill="white" transform="matrix(-1 0 0 1 24 0)"/>
</clipPath>
</defs>
</svg>
