<svg xmlns="http://www.w3.org/2000/svg" viewBox="0 0 36 36" fill="none">
  <g transform="translate(-766.75,-22)">
    <path d="M769.75 37.4576L783.061 25.6424C783.51 25.2428 784.102 25 784.75 25C785.398 25 785.99 25.2428 786.439 25.6424L799.75 37.4576" stroke="#0B3268" stroke-width="1.5" stroke-miterlimit="10" stroke-linecap="round" stroke-linejoin="round"/>
    <path d="M772.038 35.4498V49.9153C772.038 52.7235 774.315 55 777.123 55H792.377C795.185 55 797.462 52.7235 797.462 49.9153V42.2549" stroke="#0B3268" stroke-width="1.5" stroke-miterlimit="10" stroke-linecap="round" stroke-linejoin="round"/>
    <path d="M794.919 27.5425V33.1878" stroke="#0B3268" stroke-width="1.5" stroke-miterlimit="10" stroke-linecap="round" stroke-linejoin="round"/>
    <path d="M779.665 42.2881C778.261 42.2881 777.123 41.1499 777.123 39.7457C777.123 38.3416 778.261 37.2034 779.665 37.2034C781.07 37.2034 782.208 38.3416 782.208 39.7457C782.208 41.1499 781.07 42.2881 779.665 42.2881Z" stroke="#0B3268" stroke-width="1.5" stroke-miterlimit="10" stroke-linecap="round" stroke-linejoin="round"/>
    <path d="M789.835 49.9152C788.431 49.9152 787.292 48.777 787.292 47.3729C787.292 45.9688 788.431 44.8305 789.835 44.8305C791.239 44.8305 792.377 45.9688 792.377 47.3729C792.377 48.777 791.239 49.9152 789.835 49.9152Z" stroke="#0B3268" stroke-width="1.5" stroke-miterlimit="10" stroke-linecap="round" stroke-linejoin="round"/>
    <path d="M789.835 37.2034L779.665 49.9152" stroke="#0B3268" stroke-width="1.5" stroke-miterlimit="10" stroke-linecap="round" stroke-linejoin="round"/>
  </g>
</svg>
