<svg width="24" height="24" viewBox="0 0 24 24" fill="none" xmlns="http://www.w3.org/2000/svg">
<path d="M5 14.5781V15.8672C5 17.9997 6.88398 19.7344 9.2 19.7344H10.6V23H13.4V19.7344H14.4555C16.9615 19.7344 19 17.8574 19 15.5499C19 13.6258 17.5843 11.9566 15.5574 11.4902L13.4 10.9935V6.84375H14.8C15.5718 6.84375 16.2 7.4222 16.2 8.13281V9.42188H19V8.13281C19 6.00032 17.116 4.26562 14.8 4.26562H13.4V1H10.6V4.26562H9.54454C7.03849 4.26562 5 6.14259 5 8.45005C5 10.3742 6.41573 12.0434 8.4426 12.5098L10.6 13.0065V17.1562H9.2C8.42823 17.1562 7.8 16.5778 7.8 15.8672V14.5781H5ZM13.4 13.6512L14.8779 13.9915C15.6566 14.1702 16.2 14.811 16.2 15.5499C16.2 16.4355 15.4173 17.1562 14.4555 17.1562H13.4V13.6512ZM9.12207 10.0085C8.34343 9.82973 7.8 9.18898 7.8 8.45001C7.8 7.56442 8.58269 6.84371 9.54454 6.84371H10.6V10.3488L9.12207 10.0085Z" fill="#0B3268"/>
</svg>
