<svg width="24" height="24" viewBox="0 0 24 24" fill="none" xmlns="http://www.w3.org/2000/svg">
<path d="M13.9336 12C13.9336 13.0678 13.0678 13.9336 12 13.9336C10.9322 13.9336 10.0664 13.0678 10.0664 12C10.0664 10.9322 10.9322 10.0664 12 10.0664C13.0678 10.0664 13.9336 10.9322 13.9336 12Z" fill="#0B3268"/>
<path d="M15.2656 6.15625H8.73438C7.31271 6.15625 6.15625 7.31271 6.15625 8.73438V15.2656C6.15625 16.6873 7.31271 17.8438 8.73438 17.8438H15.2656C16.6873 17.8438 17.8438 16.6873 17.8438 15.2656V8.73438C17.8438 7.31271 16.6873 6.15625 15.2656 6.15625ZM12 15.2227C10.223 15.2227 8.77734 13.777 8.77734 12C8.77734 10.223 10.223 8.77734 12 8.77734C13.777 8.77734 15.2227 10.223 15.2227 12C15.2227 13.777 13.777 15.2227 12 15.2227ZM15.6953 8.94922C15.3393 8.94922 15.0508 8.66069 15.0508 8.30469C15.0508 7.94868 15.3393 7.66016 15.6953 7.66016C16.0513 7.66016 16.3398 7.94868 16.3398 8.30469C16.3398 8.66069 16.0513 8.94922 15.6953 8.94922Z" fill="#0B3268"/>
<path d="M17.1992 1H6.80078C3.60229 1 1 3.60229 1 6.80078V17.1992C1 20.3977 3.60229 23 6.80078 23H17.1992C20.3977 23 23 20.3977 23 17.1992V6.80078C23 3.60229 20.3977 1 17.1992 1ZM19.1328 15.2656C19.1328 17.3979 17.3979 19.1328 15.2656 19.1328H8.73438C6.60205 19.1328 4.86719 17.3979 4.86719 15.2656V8.73438C4.86719 6.60205 6.60205 4.86719 8.73438 4.86719H15.2656C17.3979 4.86719 19.1328 6.60205 19.1328 8.73438V15.2656Z" fill="#0B3268"/>
</svg>
