<svg width="24" height="24" viewBox="0 0 24 24" fill="none" xmlns="http://www.w3.org/2000/svg">
<path d="M17.4695 1H6.51309C3.4774 1 1 3.47937 1 6.51746V17.5C1 20.5206 3.4774 23 6.51309 23H17.4869C20.5226 23 23 20.5206 23 17.4825V6.51746C22.9826 3.47937 20.5052 1 17.4695 1ZM8.32752 18.8095H5.18715V9.73016H8.32752V18.8095ZM6.73989 8.33333C5.85012 8.33333 5.13481 7.61746 5.13481 6.72698C5.13481 5.83651 5.85012 5.12064 6.73989 5.12064C7.62966 5.12064 8.34496 5.83651 8.34496 6.72698C8.32752 7.61746 7.61221 8.33333 6.73989 8.33333ZM18.8128 18.8095H18.7954H16.1784V14.4095C16.1784 13.3444 16.0389 11.9825 14.5908 11.9825C13.1079 11.9825 12.8636 13.1349 12.8636 14.3397V18.8095H10.2466V9.73016H12.6891V10.9524H12.7589C13.1427 10.254 14.0325 9.7127 15.4282 9.7127C18.3069 9.7127 18.8128 11.3714 18.8128 13.8333V18.8095Z" fill="#0B3268"/>
</svg>
