<svg width="25" height="24" viewBox="0 0 25 24" fill="none" xmlns="http://www.w3.org/2000/svg">
<path d="M11.291 1.66797C12.533 1.41861 13.8147 1.44794 15.0439 1.75391C16.2732 2.05992 17.4192 2.63499 18.3994 3.4375L18.5254 3.54102C19.482 4.35903 20.2477 5.37785 20.7617 6.52832C21.2982 7.72927 21.5482 9.03841 21.4922 10.3525C21.4361 11.6669 21.0754 12.9505 20.4385 14.1016C19.8812 15.1086 19.1258 15.9902 18.2197 16.6943L17.8223 16.9854L17.8115 16.9932C16.2937 18.0963 15.0278 19.5096 14.0986 21.1396L13.4277 22.2578C13.3833 22.3316 13.321 22.3931 13.2461 22.4355C13.1711 22.4779 13.0861 22.4999 13 22.5C12.9137 22.5 12.828 22.478 12.7529 22.4355C12.678 22.3931 12.6157 22.3316 12.5713 22.2578L11.8711 21.0938L11.8662 21.0859C10.8071 19.3933 9.43563 17.9176 7.8252 16.7373H7.82617C6.53328 15.7453 5.55227 14.4026 5.00098 12.8691C4.44979 11.3357 4.35147 9.67587 4.7168 8.08789C5.08218 6.50005 5.89574 5.05042 7.06152 3.91211C8.22684 2.77434 9.69472 1.99461 11.29 1.66699L11.291 1.66797ZM14.3447 6.78516C13.707 6.52101 13.0052 6.45133 12.3281 6.58594C11.6509 6.72064 11.0283 7.05377 10.54 7.54199C10.052 8.03015 9.71965 8.65209 9.58496 9.3291C9.45026 10.0063 9.51897 10.7088 9.7832 11.3467C10.0474 11.9845 10.4953 12.5295 11.0693 12.9131C11.6434 13.2967 12.3184 13.5009 13.0088 13.501C13.9347 13.501 14.8228 13.1332 15.4775 12.4785C16.132 11.8239 16.4999 10.9364 16.5 10.0107C16.5 9.32028 16.2957 8.64441 15.9121 8.07031C15.5285 7.49627 14.9826 7.04936 14.3447 6.78516Z" stroke="#0B3268"/>
</svg>
