<svg width="25" height="24" viewBox="0 0 25 24" fill="none" xmlns="http://www.w3.org/2000/svg">
<path d="M18.7167 3.05029C17.6792 2.20085 16.4662 1.59224 15.1651 1.26834C13.8639 0.94445 12.5071 0.913351 11.1925 1.17729C9.50223 1.52383 7.94717 2.34894 6.7126 3.55434C5.47802 4.75974 4.61596 6.29461 4.22912 7.97612C3.84227 9.65763 3.94694 11.4149 4.53066 13.0386C5.11438 14.6623 6.15254 16.084 7.52148 17.1343C9.08443 18.2782 10.4152 19.7094 11.4425 21.3513L12.1425 22.5153C12.2315 22.6632 12.3571 22.7855 12.5073 22.8704C12.6574 22.9554 12.827 23 12.9996 23C13.1721 23 13.3417 22.9554 13.4919 22.8704C13.642 22.7855 13.7677 22.6632 13.8566 22.5153L14.5276 21.3973C15.4222 19.8247 16.642 18.461 18.1056 17.3973C19.2533 16.6077 20.2017 15.5623 20.8761 14.3434C21.5505 13.1246 21.9325 11.7657 21.9918 10.374C22.0512 8.98224 21.7863 7.59576 21.2181 6.32393C20.6499 5.05209 19.7939 3.92969 18.7177 3.04529L18.7167 3.05029ZM12.9986 14.0013C12.2074 14.0013 11.4341 13.7667 10.7762 13.3272C10.1184 12.8877 9.60574 12.2629 9.30299 11.532C9.00023 10.8011 8.92102 9.99686 9.07536 9.22094C9.2297 8.44501 9.61067 7.73228 10.1701 7.17287C10.7295 6.61346 11.4423 6.23249 12.2182 6.07815C12.9941 5.92381 13.7984 6.00303 14.5293 6.30578C15.2602 6.60853 15.885 7.12122 16.3245 7.77902C16.764 8.43681 16.9986 9.21017 16.9986 10.0013C16.9986 11.0622 16.5772 12.0796 15.827 12.8297C15.0769 13.5799 14.0594 14.0013 12.9986 14.0013Z" fill="#0B3268"/>
</svg>
