<svg width="24" height="24" viewBox="0 0 24 24" fill="none" xmlns="http://www.w3.org/2000/svg">
<path d="M5 12.9998C5 12.4694 5.21071 11.9606 5.58579 11.5856C5.96086 11.2105 6.46957 10.9998 7 10.9998H17C17.5304 10.9998 18.0391 11.2105 18.4142 11.5856C18.7893 11.9606 19 12.4694 19 12.9998V18.9999C19 19.5304 18.7893 20.0391 18.4142 20.4142C18.0391 20.7893 17.5304 21 17 21H7C6.46957 21 5.96086 20.7893 5.58579 20.4142C5.21071 20.0391 5 19.5304 5 18.9999V12.9998Z" stroke="#0B3268" stroke-linecap="round" stroke-linejoin="round"/>
<path d="M11 16.0003C11 16.2655 11.1054 16.5199 11.2929 16.7074C11.4804 16.8949 11.7348 17.0003 12 17.0003C12.2652 17.0003 12.5196 16.8949 12.7071 16.7074C12.8946 16.5199 13 16.2655 13 16.0003C13 15.735 12.8946 15.4807 12.7071 15.2931C12.5196 15.1056 12.2652 15.0002 12 15.0002C11.7348 15.0002 11.4804 15.1056 11.2929 15.2931C11.1054 15.4807 11 15.735 11 16.0003Z" stroke="#0B3268" stroke-linecap="round" stroke-linejoin="round"/>
<path d="M8 11.0002V7.00009C8 5.9392 8.42143 4.92176 9.17157 4.1716C9.92172 3.42144 10.9391 3 12 3C13.0609 3 14.0783 3.42144 14.8284 4.1716C15.5786 4.92176 16 5.9392 16 7.00009V11.0002" stroke="#0B3268" stroke-linecap="round" stroke-linejoin="round"/>
</svg>
