<svg width="24" height="24" viewBox="0 0 24 24" fill="none" xmlns="http://www.w3.org/2000/svg">
<g clip-path="url(#clip0_2316_8832)">
<path d="M18.2654 19.6155H4.4896V14.077C3.12036 14.077 2 12.8308 2 11.3078C2 9.78477 3.12036 8.53857 4.4896 8.53857C5.85889 8.53857 6.97921 9.78477 6.97921 11.3078V16.8463H16.9791" stroke="#0B3268" stroke-miterlimit="10" stroke-linecap="round" stroke-linejoin="round"/>
<path d="M6.979 16.846H21.9996V19.6152H6.979" stroke="#0B3268" stroke-miterlimit="10" stroke-linecap="round" stroke-linejoin="round"/>
<path d="M6.979 14.077H21.9996V16.8462" stroke="#0B3268" stroke-miterlimit="10" stroke-linecap="round" stroke-linejoin="round"/>
<path d="M22 14.0769V11.3077C22 9.77828 20.8853 8.53845 19.5104 8.53845H17.3851C15.6077 8.53845 14.0267 7.39647 13.1904 5.6519C12.4094 4.02281 10.8413 3 9.17506 3C6.58749 3 4.48975 5.3333 4.48975 8.21154V8.53845" stroke="#0B3268" stroke-miterlimit="10" stroke-linecap="round" stroke-linejoin="round"/>
<path d="M5.73438 19.6154V21" stroke="#0B3268" stroke-miterlimit="10" stroke-linecap="round" stroke-linejoin="round"/>
<path d="M20.7549 19.6154V21" stroke="#0B3268" stroke-miterlimit="10" stroke-linecap="round" stroke-linejoin="round"/>
</g>
<defs>
<clipPath id="clip0_2316_8832">
<rect width="24" height="24" fill="white"/>
</clipPath>
</defs>
</svg>
