<svg width="24" height="24" viewBox="0 0 24 24" fill="none" xmlns="http://www.w3.org/2000/svg">
<g clip-path="url(#clip0_2316_8869)">
<path d="M12.3306 10.5872C12.8486 12.734 14.7316 14.4885 17.1087 14.4885C19.4157 14.4885 21.3321 12.7687 21.8585 10.5872C22.5041 7.914 20.8323 5.51403 19.0362 3.70901C18.434 3.10378 17.7949 2.51739 17.1087 2.00723C17.1044 2.00382 17.0997 2.00167 17.0946 1.99997C17.0895 2.00167 17.0847 2.00382 17.0805 2.00723C16.3943 2.51739 15.7551 3.10378 15.1529 3.70901C13.3569 5.51403 11.6851 7.914 12.3306 10.5872Z" stroke="#0B3268" stroke-miterlimit="10" stroke-linecap="round" stroke-linejoin="round"/>
<path d="M17.1084 6.85704V22" stroke="#0B3268" stroke-miterlimit="10" stroke-linecap="round" stroke-linejoin="round"/>
<path d="M17.1088 11.5393L19.2759 9.37221" stroke="#0B3268" stroke-miterlimit="10" stroke-linecap="round" stroke-linejoin="round"/>
<path d="M17.1084 9.4646L14.9413 7.2975" stroke="#0B3268" stroke-miterlimit="10" stroke-linecap="round" stroke-linejoin="round"/>
<path d="M12.124 19.2285H1.99991" stroke="#0B3268" stroke-miterlimit="10" stroke-linecap="round" stroke-linejoin="round"/>
<path d="M12.124 16.739H1.99991V14.2494H12.124V16.739Z" stroke="#0B3268" stroke-miterlimit="10" stroke-linecap="round" stroke-linejoin="round"/>
<path d="M10.8794 16.739V22" stroke="#0B3268" stroke-miterlimit="10" stroke-linecap="round" stroke-linejoin="round"/>
<path d="M3.24512 16.739V22" stroke="#0B3268" stroke-miterlimit="10" stroke-linecap="round" stroke-linejoin="round"/>
<path d="M22 22H1.99992" stroke="#0B3268" stroke-miterlimit="10" stroke-linecap="round" stroke-linejoin="round"/>
</g>
<defs>
<clipPath id="clip0_2316_8869">
<rect width="24" height="24" fill="white"/>
</clipPath>
</defs>
</svg>
