<svg width="24" height="24" viewBox="0 0 24 24" fill="none" xmlns="http://www.w3.org/2000/svg">
<path fill-rule="evenodd" clip-rule="evenodd" d="M11.4574 15.4868C11.9123 15.8322 12.5577 15.684 12.8504 15.1935L13.4487 14.1911C13.9134 13.4125 14.8437 13.044 15.7155 13.2931L20.3609 14.6203C21.3053 14.8902 21.9141 15.8059 21.7972 16.7813L21.3952 20.1372C21.2697 21.1847 20.3507 21.9638 19.3028 21.8419C16.6429 21.5325 14.0942 20.8461 11.7053 19.4907C8.71722 17.7952 6.20475 15.2828 4.50928 12.2947C3.15383 9.90581 2.46743 7.35711 2.15809 4.69716C2.03622 3.64924 2.81531 2.73031 3.86281 2.60482L7.21873 2.20278C8.19403 2.08593 9.10982 2.69465 9.37968 3.63913L10.7069 8.28445C10.956 9.15627 10.5874 10.0866 9.80887 10.5513L8.76247 11.1758C8.26381 11.4734 8.12072 12.1337 8.48346 12.5872C9.35038 13.671 10.3519 14.6477 11.4574 15.4868Z" fill="#0B3268"/>
</svg>
