<svg width="24" height="24" viewBox="0 0 24 24" fill="none" xmlns="http://www.w3.org/2000/svg">
<path d="M5.59718 22V18.3843H5.7263C6.04506 18.3128 6.31137 18.111 6.52119 17.7831C6.72697 17.4551 6.88837 17.0557 6.99732 16.5848C7.10626 16.1139 7.15872 15.6431 7.15872 15.1638L7.11837 14.2682H5V10.6273H7.00135L6.91258 8.20139C6.91258 6.2716 7.45731 4.75384 8.54272 3.6523C9.62813 2.55077 11.0888 2 12.9166 2C14.8655 2 16.3787 2.52134 17.452 3.56401C18.5253 4.60668 19.0417 5.98991 18.9974 7.71369L18.9732 7.79357H14.5024C14.5024 7.0452 14.3491 6.49443 14.0464 6.14967C13.7438 5.80071 13.3605 5.62834 12.9045 5.62834C12.4486 5.62834 12.0774 5.85117 11.8312 6.29683C11.5851 6.74248 11.46 7.37734 11.46 8.20139L11.5891 10.6273H15.6967V14.2682H11.7586L11.7828 14.8779C11.7828 15.5085 11.6416 16.1266 11.3591 16.7278C11.0767 17.329 10.6692 17.8798 10.1325 18.3885H15.4748L15.5918 16.6227H18.9449V22H5.59718Z" fill="#0B3268"/>
</svg>
