<svg width="24" height="24" viewBox="0 0 24 24" fill="none" xmlns="http://www.w3.org/2000/svg">
<path d="M11 21H7C6.46957 21 5.96086 20.7893 5.58579 20.4142C5.21071 20.0391 5 19.5304 5 19V13C5 12.4696 5.21071 11.9609 5.58579 11.5858C5.96086 11.2107 6.46957 11 7 11H16" stroke="#0B3268" stroke-linecap="round" stroke-linejoin="round"/>
<path d="M8 11V7C8 5.93913 8.42143 4.92172 9.17157 4.17157C9.92172 3.42143 10.9391 3 12 3C13.0609 3 14.0783 3.42143 14.8284 4.17157C15.5786 4.92172 16 5.93913 16 7V11" stroke="#0B3268" stroke-linecap="round" stroke-linejoin="round"/>
<path d="M15.6282 21.955L17.8002 20.817L19.9722 21.955C20.0367 21.9891 20.1094 22.0046 20.1822 21.9995C20.2549 21.9944 20.3248 21.969 20.3838 21.9262C20.4429 21.8834 20.4887 21.8249 20.5162 21.7573C20.5437 21.6898 20.5517 21.6158 20.5392 21.544L20.1252 19.134L21.8822 17.427C21.9343 17.3761 21.9711 17.3117 21.9885 17.241C22.0058 17.1703 22.003 17.0962 21.9805 17.027C21.9579 16.9578 21.9164 16.8963 21.8607 16.8495C21.805 16.8027 21.7373 16.7723 21.6652 16.762L19.2372 16.41L18.1512 14.217C18.1188 14.1517 18.0687 14.0967 18.0067 14.0583C17.9447 14.0199 17.8732 13.9995 17.8002 13.9995C17.7273 13.9995 17.6558 14.0199 17.5938 14.0583C17.5318 14.0967 17.4817 14.1517 17.4492 14.217L16.3632 16.41L13.9352 16.762C13.863 16.772 13.795 16.8021 13.7391 16.8489C13.6831 16.8957 13.6414 16.9573 13.6188 17.0266C13.5962 17.096 13.5935 17.1703 13.6111 17.2411C13.6287 17.3119 13.6658 17.3763 13.7182 17.427L15.4752 19.134L15.0602 21.545C15.0487 21.6167 15.0573 21.6903 15.0851 21.7574C15.113 21.8245 15.1589 21.8826 15.2178 21.9251C15.2767 21.9676 15.3463 21.9929 15.4188 21.9982C15.4913 22.0035 15.5638 21.9885 15.6282 21.955Z" stroke="#0B3268" stroke-linecap="round" stroke-linejoin="round"/>
</svg>
