<svg width="24" height="24" viewBox="0 0 24 24" fill="none" xmlns="http://www.w3.org/2000/svg">
<g clip-path="url(#clip0_2316_8867)">
<path d="M5.30508 5.38983H22L20.3051 15.2203H7.08475L4.71186 2H2" stroke="#0B3268" stroke-miterlimit="10" stroke-linecap="round" stroke-linejoin="round"/>
<path d="M20.3054 18.6103H7.08505C6.14899 18.6103 5.39014 17.8514 5.39014 16.9154C5.39014 15.9793 6.14899 15.2205 7.08505 15.2205" stroke="#0B3268" stroke-miterlimit="10" stroke-linecap="round" stroke-linejoin="round"/>
<path d="M8.77988 21.9999C9.71595 21.9999 10.4748 21.2411 10.4748 20.305C10.4748 19.3689 9.71595 18.6101 8.77988 18.6101C7.8438 18.6101 7.08496 19.3689 7.08496 20.305C7.08496 21.2411 7.8438 21.9999 8.77988 21.9999Z" stroke="#0B3268" stroke-miterlimit="10" stroke-linecap="round" stroke-linejoin="round"/>
<path d="M16.9151 21.9999C17.8512 21.9999 18.61 21.2411 18.61 20.305C18.61 19.3689 17.8512 18.6101 16.9151 18.6101C15.9791 18.6101 15.2202 19.3689 15.2202 20.305C15.2202 21.2411 15.9791 21.9999 16.9151 21.9999Z" stroke="#0B3268" stroke-miterlimit="10" stroke-linecap="round" stroke-linejoin="round"/>
<path d="M10.3052 8.77954V11.8304" stroke="#0B3268" stroke-miterlimit="10" stroke-linecap="round" stroke-linejoin="round"/>
<path d="M13.6948 8.77954V11.8304" stroke="#0B3268" stroke-miterlimit="10" stroke-linecap="round" stroke-linejoin="round"/>
<path d="M17.085 8.77954V11.8304" stroke="#0B3268" stroke-miterlimit="10" stroke-linecap="round" stroke-linejoin="round"/>
</g>
<defs>
<clipPath id="clip0_2316_8867">
<rect width="24" height="24" fill="white"/>
</clipPath>
</defs>
</svg>
