<svg width="24" height="24" viewBox="0 0 24 24" fill="none" xmlns="http://www.w3.org/2000/svg">
<g clip-path="url(#clip0_2316_8793)">
<path d="M3 17.0351C3.9 17.0351 4.09891 17.0271 4.8 17.0351C6.32935 17.0175 6.91092 18.0406 8.4 18.0235C9.92935 18.041 10.5109 17.018 12 17.0351C13.4891 17.018 14.0706 18.041 15.6 18.0235C17.0891 18.0406 17.6706 17.0175 19.2 17.0351C19.9011 17.0271 20.1 17.0351 21 17.0351" stroke="#0B3268" stroke-linecap="round" stroke-linejoin="round"/>
<path d="M3 20.0115C3.9 20.0115 4.09891 20.0034 4.8 20.0115C6.32935 19.9939 6.91092 21.0169 8.4 20.9998C9.92935 21.0174 10.5109 19.9943 12 20.0115C13.4891 19.9943 14.0706 21.0174 15.6 20.9998C17.0891 21.0169 17.6706 19.9939 19.2 20.0115C19.9011 20.0034 20.1 20.0115 21 20.0115" stroke="#0B3268" stroke-linecap="round" stroke-linejoin="round"/>
<path d="M7.7998 7.76221V8.55591" stroke="#0B3268" stroke-miterlimit="10" stroke-linecap="round" stroke-linejoin="round"/>
<path d="M7.7998 10.937V11.7307" stroke="#0B3268" stroke-miterlimit="10" stroke-linecap="round" stroke-linejoin="round"/>
<path d="M7.7998 14.1118V14.9055" stroke="#0B3268" stroke-miterlimit="10" stroke-linecap="round" stroke-linejoin="round"/>
<path d="M12 7.76221V8.55591" stroke="#0B3268" stroke-miterlimit="10" stroke-linecap="round" stroke-linejoin="round"/>
<path d="M12 10.937V11.7307" stroke="#0B3268" stroke-miterlimit="10" stroke-linecap="round" stroke-linejoin="round"/>
<path d="M12 14.1118V14.9055" stroke="#0B3268" stroke-miterlimit="10" stroke-linecap="round" stroke-linejoin="round"/>
<path d="M16.2002 7.76221V8.55591" stroke="#0B3268" stroke-miterlimit="10" stroke-linecap="round" stroke-linejoin="round"/>
<path d="M16.2002 10.937V11.7307" stroke="#0B3268" stroke-miterlimit="10" stroke-linecap="round" stroke-linejoin="round"/>
<path d="M16.2002 14.1118V14.9055" stroke="#0B3268" stroke-miterlimit="10" stroke-linecap="round" stroke-linejoin="round"/>
<path d="M19.1998 14.9055V5.38109H4.7998L4.7998 14.9055" stroke="#0B3268" stroke-miterlimit="10" stroke-linecap="round" stroke-linejoin="round"/>
<path d="M17.1998 5.38111V3H6.7998V5.38111" stroke="#0B3268" stroke-miterlimit="10" stroke-linecap="round" stroke-linejoin="round"/>
<path d="M20.1998 5.3811H3.7998" stroke="#0B3268" stroke-miterlimit="10" stroke-linecap="round" stroke-linejoin="round"/>
</g>
<defs>
<clipPath id="clip0_2316_8793">
<rect width="24" height="24" fill="white"/>
</clipPath>
</defs>
</svg>
