<svg width="24" height="24" viewBox="0 0 24 24" fill="none" xmlns="http://www.w3.org/2000/svg">
<path d="M12 1C18.0751 1 23 5.92486 23 12C23 18.0751 18.0751 23 12 23C9.98272 23 8.09228 22.457 6.46686 21.5092L1.0046 23L2.49175 17.5346C1.54336 15.909 1 14.018 1 12C1 5.92486 5.92486 1 12 1ZM8.03047 6.83916C7.88814 6.84916 7.74859 6.88392 7.62154 6.94892C7.52623 6.99768 7.43774 7.06816 7.29871 7.19945C7.16743 7.3234 7.09134 7.43167 7.01117 7.53605C6.60451 8.06552 6.38593 8.71545 6.38999 9.38308C6.39221 9.92276 6.53239 10.4472 6.75377 10.937C7.20272 11.93 7.94308 12.9799 8.92105 13.9535C9.15596 14.1873 9.38612 14.4237 9.63429 14.6422C10.8481 15.711 12.2946 16.4816 13.8587 16.893C13.8587 16.893 14.4747 16.9876 14.4837 16.9882C14.6877 16.9992 14.8915 16.9844 15.0957 16.974C15.4162 16.9575 15.729 16.8708 16.0121 16.72C16.1942 16.6231 16.2803 16.5749 16.4331 16.4785C16.4331 16.4785 16.48 16.4469 16.5704 16.3795C16.7189 16.2689 16.8106 16.191 16.9342 16.0627C17.0252 15.9681 17.1036 15.8564 17.1641 15.7304C17.2501 15.5509 17.3367 15.2083 17.3711 14.9237C17.3974 14.7063 17.3895 14.5875 17.3866 14.5139C17.3819 14.3956 17.2841 14.2738 17.1769 14.2221L16.5373 13.9346C16.5373 13.9346 15.5808 13.5183 14.9959 13.2515C14.9349 13.2236 14.8683 13.2108 14.8013 13.2067C14.6545 13.1977 14.4901 13.236 14.3855 13.3462C14.38 13.344 14.3071 13.4069 13.5113 14.3711C13.4674 14.4235 13.3646 14.5376 13.1867 14.5269C13.1598 14.5251 13.1331 14.5212 13.107 14.5144C13.035 14.4953 12.9648 14.4703 12.8962 14.4412C12.7601 14.3835 12.7124 14.3616 12.6194 14.3215C11.9844 14.0441 11.4016 13.673 10.8865 13.2188C10.7483 13.0971 10.6198 12.9661 10.4874 12.8378C10.0252 12.3897 9.64677 11.9132 9.36526 11.4432C9.34989 11.4175 9.32621 11.3805 9.3007 11.339C9.25464 11.2641 9.20385 11.175 9.18792 11.1138C9.14703 10.952 9.2555 10.822 9.2555 10.822C9.2555 10.822 9.52324 10.5293 9.64764 10.3701C9.76732 10.2169 9.87063 10.0671 9.93641 9.96027C10.066 9.75196 10.107 9.53668 10.0389 9.37059C9.73032 8.61822 9.41191 7.8699 9.08376 7.12583C9.01899 6.97899 8.82635 6.87231 8.65116 6.85208C8.59183 6.84522 8.53254 6.83834 8.47296 6.83442C8.3255 6.82723 8.17773 6.82881 8.03047 6.83916Z" fill="#0B3268"/>
</svg>
