<svg width="24" height="24" viewBox="0 0 24 24" fill="none" xmlns="http://www.w3.org/2000/svg">
<path d="M10.5854 9.83496V13.8508L14.287 11.8604L10.5854 9.83496Z" fill="#0B3268"/>
<path d="M17.4825 1H6.5C3.47937 1 1 3.47937 1 6.51746V17.5C1 20.5206 3.47937 23 6.5 23H17.4825C20.5206 23 23 20.5206 23 17.4825V6.51746C23 3.47937 20.5206 1 17.4825 1ZM18.8095 12.5413C18.8095 13.6937 18.7048 14.8635 18.7048 14.8635C18.7048 14.8635 18.5825 15.8413 18.181 16.2778C17.6571 16.854 17.081 16.854 16.819 16.8889C14.8984 17.0286 12.0175 17.046 12.0175 17.046C12.0175 17.046 8.4381 16.9937 7.3381 16.8889C7.04127 16.8365 6.34286 16.854 5.81905 16.2778C5.4 15.8413 5.29524 14.8635 5.29524 14.8635C5.29524 14.8635 5.19048 13.6937 5.19048 12.5413V11.4587C5.19048 10.3063 5.29524 9.13651 5.29524 9.13651C5.29524 9.13651 5.41746 8.15873 5.81905 7.72222C6.34286 7.14603 6.91905 7.12857 7.18095 7.09365C9.11905 6.95397 12 6.93651 12 6.93651C12 6.93651 14.881 6.95397 16.8016 7.09365C17.0635 7.12857 17.6571 7.14603 18.181 7.70476C18.6 8.14127 18.7048 9.13651 18.7048 9.13651C18.7048 9.13651 18.8095 10.3063 18.8095 11.4587V12.5413Z" fill="#0B3268"/>
</svg>
