<svg xmlns="http://www.w3.org/2000/svg" viewBox="0 0 32 32" fill="none">
  <rect width="32" height="32" rx="6" fill="#0B3268"/>
  <g transform="translate(4.2 9.2) scale(0.45)">
    <path d="M21.1659 23.5688H23.2517V24.0273H19.0493L2.54503 3.19643V15.2374H2.55016C2.75541 21.924 8.98458 23.5841 9.06412 23.6636V24.0273H0V23.5688H2.0858V0.485926H0V0.0273438H4.97718L20.7066 19.9488V9.09652C20.7066 6.62171 19.2699 2.03076 14.4954 0.485926V0.0273438H23.2517V0.485926H21.1659V23.5688Z" fill="#FFFFFF"/>
    <path d="M31.5091 23.5688H33.5923V24.0273H25.2517V23.5688H27.3349V0.485926H25.2517V0.0273438H31.5091V23.5688Z" fill="#FFFFFF"/>
    <path d="M50.7855 0.485926C49.9697 0.19643 49.0948 0.0273438 48.1815 0.0273438H35.5923V0.485926H37.6781V23.5688H35.5923V24.0273H43.9329V23.5688H41.8497V15.2374H48.1815C49.0974 15.2374 49.9774 15.0888 50.7855 14.7788C57.6766 12.1401 57.143 2.73529 50.7855 0.485926ZM46.8936 14.7481C46.9218 14.7583 41.8497 14.7481 41.8497 14.7481V0.514107C41.8497 0.514107 46.9218 0.50386 46.8936 0.514107C53.1971 2.60975 53.936 12.0248 46.8936 14.7481Z" fill="#FFFFFF"/>
  </g>
</svg>
