<svg xmlns="http://www.w3.org/2000/svg" viewBox="400.917 22 36 36" fill="none">
  <path d="M423.722 37.483H419.146V42.0592" stroke="#0E4286" stroke-width="1.5" stroke-miterlimit="10" stroke-linecap="round" stroke-linejoin="round"/>
  <path d="M405.417 37.483H409.993V42.0592C412.52 42.0592 414.569 40.0105 414.569 37.483H419.145V26.5" stroke="#0E4286" stroke-width="1.5" stroke-miterlimit="10" stroke-linecap="round" stroke-linejoin="round"/>
  <path d="M418.917 48.9238V53.5" stroke="#0E4286" stroke-width="1.5" stroke-miterlimit="10" stroke-linecap="round" stroke-linejoin="round"/>
  <path d="M423.493 53.5H428.984C430.88 53.5 432.417 51.9634 432.417 50.0678V46.6356C429.889 46.6356 427.84 44.5868 427.84 42.0594H432.417V29.9323C432.417 28.0368 430.88 26.5002 428.984 26.5002H408.849C406.954 26.5002 405.417 28.0368 405.417 29.9323V50.0678C405.417 51.9634 406.954 53.5 408.849 53.5H414.341" stroke="#0E4286" stroke-width="1.5" stroke-miterlimit="10" stroke-linecap="round" stroke-linejoin="round"/>
  <path d="M421.204 48.9236H416.628" stroke="#0E4286" stroke-width="1.5" stroke-miterlimit="10" stroke-linecap="round" stroke-linejoin="round"/>
</svg>
