<svg width="24" height="24" viewBox="0 0 24 24" fill="none" xmlns="http://www.w3.org/2000/svg">
<g id="T05 &#194;&#183; Project Story">
<g id="Frame">
<g id="Frame 8">
<g id="Frame_2">
<g id="Frame_3">
<g id="spa " clip-path="url(#clip0_0_1)">
<path id="path3993" d="M10.7143 15.4925C10.7143 16.3364 10.0077 17.0206 9.13594 17.0206H6.29344C5.11346 17.0206 4.08493 17.7981 3.79877 18.9064L3 21.9999H21L20.2012 18.9064C19.9151 17.7981 18.8865 17.0206 17.7066 17.0206H14.8641C13.9923 17.0206 13.2857 16.3364 13.2857 15.4925" stroke="#0E4286" stroke-miterlimit="10" stroke-linecap="round" stroke-linejoin="round"/>
<path id="path3997" d="M6.85709 22V19.5104H17.1428V22" stroke="#0E4286" stroke-miterlimit="10" stroke-linecap="round" stroke-linejoin="round"/>
<path id="path4001" d="M9.24054 13.6133C7.8086 12.6178 6.85709 10.8302 6.85709 8.84648C6.85709 6.75117 7.91866 4.92096 9.48671 3.96034C9.73739 2.8396 10.7674 2.00001 11.9999 2.00001C13.4201 2.00001 14.5714 3.11466 14.5714 4.48964C14.5714 5.86461 11.9999 6.97926 11.9999 6.97926" stroke="#0E4286" stroke-miterlimit="10" stroke-linecap="round" stroke-linejoin="round"/>
<path id="path4005" d="M14.513 3.96034C16.0811 4.92097 17.1426 6.75117 17.1426 8.84648C17.1426 10.8302 16.1911 12.6178 14.7592 13.6133" stroke="#0E4286" stroke-miterlimit="10" stroke-linecap="round" stroke-linejoin="round"/>
<path id="path4009" d="M15.2144 11.3777C15.2144 13.7839 13.7754 15.776 12.0001 15.776C10.225 15.776 8.78586 13.7839 8.78586 11.3777C8.78586 8.26563 12.0001 6.97933 12.0001 6.97933C12.0001 6.97933 15.2144 8.26563 15.2144 11.3777Z" stroke="#0E4286" stroke-miterlimit="10" stroke-linecap="round" stroke-linejoin="round"/>
</g>
</g>
</g>
</g>
</g>
</g>
<defs>
<clipPath id="clip0_0_1">
<rect width="24" height="24" fill="white"/>
</clipPath>
</defs>
</svg>
