<svg xmlns="http://www.w3.org/2000/svg" viewBox="570.583 22 36 36" fill="none">
  <path d="M574.725 45.7403C573.971 43.9204 573.583 41.9698 573.583 40C573.583 38.0302 573.971 36.0796 574.725 34.2597C575.479 32.4399 576.584 30.7863 577.977 29.3934C579.37 28.0005 581.023 26.8956 582.843 26.1418C584.663 25.388 586.613 25 588.583 25C590.553 25 592.504 25.388 594.324 26.1418C596.143 26.8956 597.797 28.0005 599.19 29.3934C600.583 30.7863 601.688 32.4399 602.442 34.2597C603.195 36.0796 603.583 38.0302 603.583 40C603.583 41.9698 603.195 43.9204 602.442 45.7403C601.688 47.5601 600.583 49.2137 599.19 50.6066C597.797 51.9995 596.143 53.1044 594.324 53.8582C592.504 54.612 590.553 55 588.583 55C586.613 55 584.663 54.612 582.843 53.8582C581.023 53.1044 579.37 51.9995 577.977 50.6066C576.584 49.2137 575.479 47.5601 574.725 45.7403Z" stroke="#0E4286" stroke-width="1.5" stroke-linecap="round" stroke-linejoin="round"/>
  <path d="M584.884 34H589.248C590.212 34 591.137 34.3951 591.819 35.0983C592.501 35.8016 592.884 36.7554 592.884 37.75V42.25C592.884 43.2446 592.501 44.1984 591.819 44.9017C591.137 45.6049 590.212 46 589.248 46H584.884V34Z" stroke="#0E4286" stroke-width="1.5" stroke-linecap="round" stroke-linejoin="round"/>
  <path d="M584.083 38.2C585.683 37.4 587.283 37.4 588.883 38.2C590.483 39 592.083 39 593.683 38.2" stroke="#0E4286" stroke-width="1.5" stroke-linecap="round" stroke-linejoin="round"/>
  <path d="M584.083 41.8C585.683 41 587.283 41 588.883 41.8C590.483 42.6 592.083 42.6 593.683 41.8" stroke="#0E4286" stroke-width="1.5" stroke-linecap="round" stroke-linejoin="round"/>
</svg>
