<svg width="24" height="24" viewBox="0 0 24 24" fill="none" xmlns="http://www.w3.org/2000/svg">
<g id="T05 &#194;&#183; Project Story">
<g id="Frame">
<g id="Frame_2">
<g id="Frame_3">
<g id="Frame 1">
<g id="Dirham">
<path id="Vector" fill-rule="evenodd" clip-rule="evenodd" d="M3.90011 10.969H2.63658C2.63658 10.969 1.81841 11.0089 1.41012 10.2846C1.10002 9.73446 0.957454 9.28609 1.01106 8.43421C1.46829 9.06712 2.51623 8.98494 2.51623 8.98494H3.90285C3.90155 8.61465 3.89897 8.23068 3.8948 7.84065C3.87906 6.37873 3.97542 4.80351 3.66816 3.62035C3.49844 2.96683 3.26835 2.41976 2.96033 2.04964C3.10759 2.00023 6.35553 1.98354 8.03172 2.01872C10.645 2.07354 15.8323 1.73102 18.5483 5.95375C19.1199 6.8425 19.4783 7.95215 19.7031 8.98497H21.3524C21.3524 8.98497 22.1706 8.94509 22.5789 9.66938C22.889 10.2195 23.0316 10.6679 22.978 11.5197C22.5207 10.8868 21.4728 10.969 21.4728 10.969H20.0086C20.0455 11.351 20.0635 11.6621 20.0722 11.8664V12.1336C20.0637 12.3329 20.0463 12.6341 20.0113 13.0035H21.3634C21.3634 13.0035 22.1816 12.9636 22.5899 13.6879C22.9 14.2381 23.0425 14.6865 22.9889 15.5383C22.5317 14.9054 21.4838 14.9876 21.4838 14.9876H19.709C19.4847 16.0282 19.125 17.1496 18.5483 18.0462C15.8323 22.269 10.6451 21.9264 8.03175 21.9813C6.3556 22.0165 3.10763 21.9997 2.96033 21.9503C3.26838 21.5802 3.49844 21.0331 3.66816 20.3796C3.97542 19.1964 3.87906 17.6212 3.8948 16.1593C3.8991 15.7597 3.90168 15.3664 3.90295 14.9876H2.64756C2.64756 14.9876 1.82939 15.0275 1.42111 14.3032C1.11097 13.753 0.968436 13.3047 1.02204 12.4528C1.47927 13.0857 2.52721 13.0035 2.52721 13.0035H3.90038C3.89969 12.4635 3.89956 11.4291 3.90015 10.969H3.90011ZM16.5405 8.98497C16.2126 7.23185 15.4412 5.18338 13.6682 3.99199C11.3543 2.43702 6.7385 3.05933 6.7385 3.05933L6.7484 8.98494H13.0533H16.5405V8.98497ZM16.7621 13.0036C16.7745 12.6816 16.7741 12.4094 16.7697 12.2054V11.7947C16.7742 11.5848 16.7745 11.303 16.7611 10.969H10.9357H6.75169L6.75342 12L6.75176 13.0036H13.0642H16.7622H16.7621ZM6.74844 14.9876L6.7385 20.9407C6.7385 20.9407 11.3543 21.563 13.6683 20.008C15.4504 18.8104 16.2206 16.7468 16.5456 14.9876H10.9467H6.74847H6.74844Z" fill="#0B3268"/>
</g>
</g>
</g>
</g>
</g>
</g>
</svg>
