<svg width="14" height="14" viewBox="0 0 14 14" fill="none" xmlns="http://www.w3.org/2000/svg">
<g id="T05 &#194;&#183; Project Story">
<g id="Frame">
<g id="Frame_2">
<g id="Frame_3">
<g id="Frame_4">
<g id="Location Primary">
<path id="Vector" d="M10.3347 1.77935C9.7295 1.28384 9.02191 0.928815 8.26293 0.739877C7.50395 0.550939 6.7125 0.532798 5.94566 0.686762C4.95967 0.888911 4.05256 1.37023 3.3324 2.07337C2.61224 2.77652 2.10938 3.67186 1.88372 4.65274C1.65807 5.63362 1.71912 6.6587 2.05962 7.60586C2.40012 8.55302 3.0057 9.38233 3.80424 9.99502C4.71595 10.6623 5.4922 11.4972 6.09149 12.4549L6.49983 13.1339C6.55169 13.2202 6.62498 13.2916 6.71258 13.3411C6.80018 13.3906 6.89911 13.4167 6.99974 13.4167C7.10038 13.4167 7.19931 13.3906 7.28691 13.3411C7.37451 13.2916 7.4478 13.2202 7.49966 13.1339L7.89108 12.4818C8.41294 11.5644 9.1245 10.7689 9.97825 10.1484C10.6477 9.68786 11.2009 9.07801 11.5943 8.36701C11.9877 7.65602 12.2105 6.86333 12.2452 6.05149C12.2798 5.23965 12.1253 4.43087 11.7938 3.68897C11.4624 2.94706 10.963 2.29233 10.3352 1.77643L10.3347 1.77935ZM6.99916 8.16744C6.53767 8.16744 6.08654 8.03059 5.70283 7.7742C5.31911 7.51781 5.02004 7.15339 4.84344 6.72703C4.66683 6.30067 4.62063 5.83151 4.71066 5.37889C4.80069 4.92627 5.02292 4.51051 5.34924 4.18418C5.67557 3.85786 6.09133 3.63563 6.54395 3.5456C6.99657 3.45557 7.46573 3.50178 7.89209 3.67838C8.31845 3.85498 8.68287 4.15405 8.93926 4.53777C9.19565 4.92148 9.3325 5.37261 9.3325 5.8341C9.3325 6.45294 9.08666 7.04643 8.64908 7.48402C8.21149 7.92161 7.618 8.16744 6.99916 8.16744Z" fill="#3778CE"/>
</g>
</g>
</g>
</g>
</g>
</g>
</svg>
