<svg xmlns="http://www.w3.org/2000/svg" viewBox="80 29 56 24" fill="none">
  <path d="M101.166 52.5414H103.252V53H99.0493L82.545 32.1691V44.2101H82.5502C82.7554 50.8967 88.9846 52.5568 89.0641 52.6362V53H80V52.5414H82.0858V29.4586H80V29H84.9772L100.707 48.9214V38.0692C100.707 35.5944 99.2699 31.0034 94.4954 29.4586V29H103.252V29.4586H101.166V52.5414Z" fill="#FFFFFF"/>
  <path d="M111.595 52.5414H113.678V53H105.337V52.5414H107.421V29.4586H105.337V29H111.595V52.5414Z" fill="#FFFFFF"/>
  <path d="M130.96 29.4586C130.144 29.1691 129.269 29 128.356 29H115.766V29.4586H117.852V52.5414H115.766V53H124.107V52.5414H122.024V44.2101H128.356C129.272 44.2101 130.152 44.0615 130.96 43.7515C137.851 41.1127 137.317 31.7079 130.96 29.4586ZM127.068 43.7208C127.096 43.731 122.024 43.7208 122.024 43.7208V29.4868C122.024 29.4868 127.096 29.4765 127.068 29.4868C133.371 31.5824 134.11 40.9974 127.068 43.7208Z" fill="#FFFFFF"/>
</svg>
