<svg xmlns="http://www.w3.org/2000/svg" viewBox="79 28 114 26" fill="none">
  <!-- NIP wordmark -->
  <path d="M101.166 52.5414H103.252V53H99.0493L82.545 32.1691V44.2101H82.5502C82.7554 50.8967 88.9846 52.5568 89.0641 52.6362V53H80V52.5414H82.0858V29.4586H80V29H84.9772L100.707 48.9214V38.0692C100.707 35.5944 99.2699 31.0034 94.4954 29.4586V29H103.252V29.4586H101.166V52.5414Z" fill="#FFFFFF"/>
  <path d="M111.595 52.5414H113.678V53H105.337V52.5414H107.421V29.4586H105.337V29H111.595V52.5414Z" fill="#FFFFFF"/>
  <path d="M130.96 29.4586C130.144 29.1691 129.269 29 128.356 29H115.766V29.4586H117.852V52.5414H115.766V53H124.107V52.5414H122.024V44.2101H128.356C129.272 44.2101 130.152 44.0615 130.96 43.7515C137.851 41.1127 137.317 31.7079 130.96 29.4586ZM127.068 43.7208C127.096 43.731 122.024 43.7208 122.024 43.7208V29.4868C122.024 29.4868 127.096 29.4765 127.068 29.4868C133.371 31.5824 134.11 40.9974 127.068 43.7208Z" fill="#FFFFFF"/>
  <!-- Divider line -->
  <path d="M142.474 29H141.748V53H142.474V29Z" fill="#FFFFFF"/>
  <!-- novel insight property tag -->
  <path d="M152.443 29.3945V29.1406H154.436V29.3945H153.654V34.9512L153.156 35.0488L149.357 30.4102V34.7461H149.924C150.048 34.7591 150.135 34.8438 150.188 35H148.176V34.7461H148.957V29.3945H148.176V29.1406H149.65L153.254 33.5352V29.3945H152.443ZM157.58 29.043C158.271 29.043 158.879 29.2383 159.407 29.6289C160.162 30.1888 160.539 31.0059 160.539 32.0801C160.539 32.985 160.237 33.724 159.631 34.2969C159.058 34.8307 158.365 35.0977 157.551 35.0977C156.842 35.0977 156.217 34.8893 155.676 34.4727C154.94 33.8932 154.573 33.0827 154.573 32.041C154.573 31.1426 154.879 30.4102 155.491 29.8438C156.064 29.3099 156.76 29.043 157.58 29.043ZM157.58 34.8242C158.739 34.8177 159.322 33.8867 159.329 32.0312C159.322 30.2344 158.73 29.3294 157.551 29.3164C156.373 29.3229 155.78 30.2441 155.774 32.0801C155.78 33.8965 156.383 34.8112 157.58 34.8242ZM163.782 35.0488H163.636C163.505 35.0488 163.404 35.026 163.333 34.9805C163.242 34.9154 163.121 34.6875 162.971 34.2969L161.077 29.3945H160.53V29.1406H162.913V29.3945H162.132L163.86 33.8281L165.432 29.3945H164.651V29.1406H166.302V29.3945H165.813L163.782 35.0488ZM170.911 30.9473H170.687L170.511 30.4004C170.504 30.3809 170.498 30.3581 170.491 30.332C170.296 29.707 169.941 29.3945 169.427 29.3945H168.04V31.8359H170.003V32.1191H168.04V34.7461H169.427C169.505 34.7461 169.58 34.7396 169.652 34.7266C170.049 34.6484 170.335 34.3197 170.511 33.7402L170.687 33.1934H170.911L170.872 35H166.214V34.7461H166.995V29.3945H166.214V29.1406H170.872L170.911 30.9473ZM175.775 35H171.293V34.7461H172.074V29.3945H171.293V29.1406H173.949V29.3945H173.119V34.7461H174.33C174.479 34.7461 174.616 34.7201 174.74 34.668C175.026 34.5443 175.238 34.235 175.375 33.7402L175.589 32.9785H175.824L175.775 35ZM150.92 44H148.312V43.7461H149.094V38.3945H148.312V38.1406H150.92V38.3945H150.139V43.7461H150.666C150.699 43.7461 150.731 43.7493 150.764 43.7559C150.868 43.7754 150.92 43.8568 150.92 44ZM155.276 38.3945V38.1406H157.268V38.3945H156.487V43.9512L155.989 44.0488L152.19 39.4102V43.7461H152.756C152.88 43.7591 152.968 43.8438 153.02 44H151.008V43.7461H151.789V38.3945H151.008V38.1406H152.483L156.086 42.5352V38.3945H155.276ZM161.819 42.4277C161.819 42.8379 161.673 43.1895 161.38 43.4824C160.957 43.8926 160.354 44.0977 159.573 44.0977C158.902 44.0977 158.32 43.9316 157.825 43.5996C157.825 43.7233 157.818 43.8145 157.805 43.873C157.773 43.9707 157.675 44.0195 157.512 44.0195V41.9785H157.845C157.858 42.1868 157.89 42.3822 157.942 42.5645C158.157 43.4043 158.678 43.8242 159.505 43.8242C159.733 43.8242 159.944 43.7819 160.139 43.6973C160.556 43.515 160.764 43.196 160.764 42.7402C160.764 42.5775 160.729 42.4277 160.657 42.291C160.507 42.0176 160.146 41.7441 159.573 41.4707C158.942 41.1777 158.577 41.002 158.479 40.9434C157.867 40.5918 157.561 40.1426 157.561 39.5957C157.561 39.2246 157.695 38.9056 157.962 38.6387C158.352 38.2415 158.912 38.043 159.641 38.043C160.227 38.043 160.768 38.1699 161.262 38.4238C161.262 38.3652 161.266 38.3132 161.272 38.2676C161.298 38.1504 161.399 38.0918 161.575 38.0918V39.8203H161.243C161.243 39.4622 161.155 39.1562 160.979 38.9023C160.699 38.5182 160.289 38.3262 159.749 38.3262C159.56 38.3262 159.384 38.3555 159.221 38.4141C158.824 38.5703 158.626 38.8535 158.626 39.2637C158.626 39.4264 158.662 39.5729 158.733 39.7031C158.876 39.9766 159.231 40.2435 159.798 40.5039C160.429 40.7969 160.797 40.9759 160.901 41.041C161.513 41.3991 161.819 41.8613 161.819 42.4277ZM164.788 44H162.181V43.7461H162.962V38.3945H162.181V38.1406H164.788V38.3945H164.007V43.7461H164.534C164.567 43.7461 164.599 43.7493 164.632 43.7559C164.736 43.7754 164.788 43.8568 164.788 44ZM168.646 41.3438H171.234V41.5977H170.541V44L169.564 43.7363C169.147 43.9772 168.666 44.0977 168.119 44.0977C167.448 44.0977 166.849 43.9056 166.322 43.5215C165.547 42.9551 165.16 42.1283 165.16 41.041C165.16 40.123 165.453 39.3874 166.039 38.834C166.592 38.3066 167.282 38.043 168.109 38.043C168.584 38.043 169.033 38.1406 169.457 38.3359L170.336 38.1602L170.384 40.123H170.111C170 39.6803 169.864 39.3255 169.701 39.0586C169.388 38.5703 168.893 38.3262 168.216 38.3262C168.151 38.3262 168.086 38.3294 168.021 38.3359C166.908 38.4336 166.351 39.3483 166.351 41.0801C166.351 41.321 166.361 41.5456 166.38 41.7539C166.517 43.1146 167.123 43.7949 168.197 43.7949C168.711 43.7949 169.144 43.6224 169.496 43.2773V41.5977H168.646V41.3438ZM173.998 44H171.391V43.7461H172.172V38.3945H171.391V38.1406H173.998V38.3945H173.217V40.8359H176.01V38.3945H175.229V38.1406H177.846V38.3945H177.055V43.7461H177.582C177.706 43.7591 177.794 43.8438 177.846 44H175.229V43.7461H176.01V41.1191H173.217V43.7461H173.744C173.777 43.7461 173.809 43.7493 173.842 43.7559C173.946 43.7754 173.998 43.8568 173.998 44ZM181.967 44H179.057V43.7461H179.985V38.3945H179.604C179.077 38.401 178.715 38.7331 178.52 39.3906L178.305 40.1328H178.022L178.061 38.1406H182.983L183.032 40.1328H182.748L182.534 39.3906C182.345 38.7331 181.98 38.401 181.44 38.3945H181.03V43.7461H181.704C181.827 43.7591 181.915 43.8438 181.967 44ZM151.008 47.3945H150.139V50.1289H150.891C151.678 50.1094 152.092 49.6471 152.131 48.7422C152.131 48.5794 152.115 48.4264 152.082 48.2832C151.952 47.6908 151.594 47.3945 151.008 47.3945ZM151.125 53H148.312V52.7461H149.094V47.3945H148.312V47.1406H151.35C151.773 47.1406 152.137 47.2122 152.443 47.3555C152.997 47.6224 153.273 48.0716 153.273 48.7031C153.273 48.9701 153.221 49.2109 153.117 49.4258C152.798 50.0833 152.085 50.4121 150.979 50.4121H150.139V52.7461H150.871C150.904 52.7461 150.936 52.7493 150.969 52.7559C151.073 52.7754 151.125 52.8568 151.125 53ZM156.008 53H153.401V52.7461H154.182V47.3945H153.401V47.1406H156.438C156.952 47.1406 157.388 47.2611 157.746 47.502C158.17 47.7949 158.381 48.1823 158.381 48.6641C158.381 48.8398 158.352 49.0124 158.293 49.1816C158.098 49.7025 157.668 50.0475 157.004 50.2168L158.557 52.7461H158.83C158.87 52.7461 158.905 52.7493 158.938 52.7559C159.029 52.7689 159.075 52.8503 159.075 53H157.502L155.979 50.3145H155.227V52.7461H156.008V53ZM156.028 47.3945H155.227V50.0312H156.077C156.337 50.0312 156.565 49.9564 156.76 49.8066C157.079 49.5527 157.239 49.1816 157.239 48.6934C157.239 48.4915 157.203 48.2995 157.131 48.1172C156.942 47.6354 156.575 47.3945 156.028 47.3945ZM162.141 47.043C162.832 47.043 163.44 47.2383 163.968 47.6289C164.723 48.1888 165.1 49.0059 165.1 50.0801C165.1 50.985 164.798 51.724 164.192 52.2969C163.619 52.8307 162.926 53.0977 162.112 53.0977C161.402 53.0977 160.777 52.8893 160.237 52.4727C159.501 51.8932 159.134 51.0827 159.134 50.041C159.134 49.1426 159.44 48.4102 160.052 47.8438C160.624 47.3099 161.321 47.043 162.141 47.043ZM162.141 52.8242C163.3 52.8177 163.883 51.8867 163.889 50.0312C163.883 48.2344 163.29 47.3294 162.112 47.3164C160.934 47.3229 160.341 48.2441 160.335 50.0801C160.341 51.8965 160.943 52.8112 162.141 52.8242ZM168.167 47.3945H167.298V50.1289H168.05C168.838 50.1094 169.251 49.6471 169.29 48.7422C169.29 48.5794 169.274 48.4264 169.241 48.2832C169.111 47.6908 168.753 47.3945 168.167 47.3945ZM168.284 53H165.472V52.7461H166.253V47.3945H165.472V47.1406H168.509C168.932 47.1406 169.297 47.2122 169.603 47.3555C170.156 47.6224 170.433 48.0716 170.433 48.7031C170.433 48.9701 170.381 49.2109 170.277 49.4258C169.958 50.0833 169.245 50.4121 168.138 50.4121H167.298V52.7461H168.03C168.063 52.7461 168.096 52.7493 168.128 52.7559C168.232 52.7754 168.284 52.8568 168.284 53ZM175.257 48.9473H175.033L174.857 48.4004C174.851 48.3809 174.844 48.3581 174.837 48.332C174.642 47.707 174.287 47.3945 173.773 47.3945H172.386V49.8359H174.349V50.1191H172.386V52.7461H173.773C173.851 52.7461 173.926 52.7396 173.998 52.7266C174.395 52.6484 174.681 52.3197 174.857 51.7402L175.033 51.1934H175.257L175.218 53H170.56V52.7461H171.341V47.3945H170.56V47.1406H175.218L175.257 48.9473ZM178.246 53H175.639V52.7461H176.42V47.3945H175.639V47.1406H178.676C179.19 47.1406 179.626 47.2611 179.984 47.502C180.408 47.7949 180.619 48.1823 180.619 48.6641C180.619 48.8398 180.59 49.0124 180.531 49.1816C180.336 49.7025 179.906 50.0475 179.242 50.2168L180.795 52.7461H181.068C181.107 52.7461 181.143 52.7493 181.176 52.7559C181.267 52.7689 181.312 52.8503 181.312 53H179.74L178.217 50.3145H177.465V52.7461H178.246V53ZM178.266 47.3945H177.465V50.0312H178.314C178.575 50.0312 178.803 49.9564 178.998 49.8066C179.317 49.5527 179.477 49.1816 179.477 48.6934C179.477 48.4915 179.441 48.2995 179.369 48.1172C179.18 47.6354 178.812 47.3945 178.266 47.3945ZM185.121 53H182.211V52.7461H183.139V47.3945H182.758C182.231 47.401 181.87 47.7331 181.674 48.3906L181.459 49.1328H181.176L181.215 47.1406H186.137L186.186 49.1328H185.903L185.688 48.3906C185.499 47.7331 185.135 47.401 184.594 47.3945H184.184V52.7461H184.858C184.982 52.7591 185.069 52.8438 185.121 53ZM190.18 53H187.524V52.7461H188.325V50.6074L186.518 47.3945H186.011V47.1406H188.432V47.3945H187.69L189.194 50.1875L190.61 47.3945H189.829V47.1406H191.557C191.557 47.1732 191.554 47.2057 191.548 47.2383C191.528 47.3424 191.447 47.3945 191.304 47.3945C191.089 47.401 190.916 47.4922 190.786 47.668L189.38 50.5195V52.7461H189.917C190.04 52.7591 190.128 52.8438 190.18 53Z" fill="#FFFFFF"/>
</svg>
